<?xml version="1.0" encoding="utf-8"?>
<!-- Generator: Adobe Illustrator 23.0.3, SVG Export Plug-In . SVG Version: 6.00 Build 0)  -->
<svg version="1.1" id="Layer_1" xmlns="http://www.w3.org/2000/svg" xmlns:xlink="http://www.w3.org/1999/xlink" x="0px" y="0px"
	 viewBox="0 0 2500 2448" style="enable-background:new 0 0 2500 2448;" xml:space="preserve">
<style type="text/css">
	.st0{fill:#FFBD3B;}
	.st1{fill:#1E1927;}
</style>
<path class="st0" d="M0,0h2500V2448H0V0z"/>
<path class="st1" d="M912,1246.2h221.6l-110.8-429.7L912,1246.2z M189.1,191.7v2065.8H2314V191.7H189.1z M1255.2,1717.4l-81.1-279.3
	h-300l-81.1,279.3H587.7l289.2-987.3V622h275.7l329.7,1095.4H1255.2z M1801.1,1717.4h-221.6V884.1h221.6V1717.4z M1691.6,784.1
	c-63.4,0-114.9-50.8-114.9-113.5c0-62.7,51.4-113.5,114.9-113.5c63.4,0,114.9,50.8,114.9,113.5
	C1806.5,733.3,1755.1,784.1,1691.6,784.1z"/>
</svg>
