<svg xmlns="http://www.w3.org/2000/svg" viewBox="0 0 1771 2008.4"><defs><style>.cls-1{fill:#1572b6;}.cls-2{fill:#33a9dc;}.cls-3{fill:#fff;}.cls-4{fill:#ebebeb;}</style></defs><title>Asset 1</title><g id="Layer_2" data-name="Layer 2"><g id="Layer_1-2" data-name="Layer 1"><path class="cls-1" d="M161.2,1807.7,0,0H1771L1609.6,1807.4l-725.2,201Z"/><path class="cls-2" d="M885.5,1854.8l586-162.5L1609.3,147.8H885.5Z"/><path class="cls-3" d="M885.5,802.7h293.4l20.2-227H885.5V354.1h556l-5.3,59.5-54.5,611H885.5Z"/><path class="cls-4" d="M886.7,1378.5h-1l-246.9-66.7L623,1135H400.6l31.1,348.1,454.2,126.4h1.3v-231Z"/><path class="cls-3" d="M1160.1,1014.9l-26.7,296.7-247.3,66.7v231l454.5-126,3.3-37.5,38.6-431H1160.1Z"/><path class="cls-4" d="M886.3,354.1V575.8H350.9L346.3,526,336.2,413.6l-5.3-59.5Zm-.8,448.6v221.7H641.4l-4.3-49.8L627,862.2l-5.3-59.5H885.5Z"/></g></g></svg>