<?xml version="1.0" encoding="utf-8"?>
<!-- Generator: Adobe Illustrator 23.0.3, SVG Export Plug-In . SVG Version: 6.00 Build 0)  -->
<svg version="1.1" id="Layer_1" xmlns="http://www.w3.org/2000/svg" xmlns:xlink="http://www.w3.org/1999/xlink" x="0px" y="0px"
	 viewBox="0 0 1963 2500" style="enable-background:new 0 0 1963 2500;" xml:space="preserve">
<style type="text/css">
	.st0{fill:#00C28E;}
</style>
<g>
	<path class="st0" d="M883.3,2.5h408.5v1872.4c-209.3,39.6-363.3,55.2-530,55.2c-499-0.5-758.7-223.4-758.7-651.6
		c0-412.5,275.5-680.2,702.4-680.2c66.3,0,116.7,5.2,177.7,20.8L883.3,2.5L883.3,2.5z M897.6,956.6c-47.8-15.6-87.3-20.8-137.8-20.8
		c-206.6,0-326,126-326,346.9c0,215.1,114.1,333.8,323.4,333.8c45.2,0,82-2.5,140.4-10.4L897.6,956.6L897.6,956.6z"/>
	<path class="st0" d="M1959.9,648.6v937.5c0,322.9-24.2,478.1-95.2,612c-66.3,128.7-153.5,209.8-333.9,299.5l-379.1-178.6
		c180.3-83.8,267.6-157.9,323.4-270.9c58.4-115.6,76.8-249.4,76.8-601.5V648.6L1959.9,648.6L1959.9,648.6z M1510.7,2.5h408.5v415.1
		h-408.5V2.5z"/>
</g>
</svg>
