<svg xmlns="http://www.w3.org/2000/svg" viewBox="0 0 353.48 261.16"><defs><style>.cls-1{fill:#def6ff;}.cls-2{fill:#b0d9c7;}.cls-3{opacity:0.25;}.cls-4{fill:none;stroke:#fff;stroke-linecap:round;stroke-linejoin:round;}.cls-5{fill:#e8e8e8;}.cls-6{fill:#35f5bb;}.cls-7{fill:#e1b6be;}.cls-8{fill:#f9d7db;}.cls-9{fill:#053f4c;}.cls-10{fill:#075265;}.cls-11{fill:#f4b7b1;}.cls-12{fill:#6f00f7;}.cls-13{fill:#4902af;}.cls-14{fill:#c5cfd1;}.cls-15{fill:#2c1e56;}.cls-16{fill:#18103a;}.cls-17{fill:#d9dcdd;}</style></defs><title>Asset 4</title><g id="Layer_2" data-name="Layer 2"><g id="OBJECTS"><path class="cls-1" d="M34.16,244.27c-24.5-.59-49.1-32.74-23-54.61,4.54-3.79,15.43-14.23,10.78-17.89-32.49-25.62-19.2-55.53-3.35-61.48,21.24-8,34.88-13,27.94-28.4C29,42.73,84.12,27.09,107.41,40.64,137.32,58,146,37.49,149,28.11,159.37-4.27,210.53-2,231.09,15.32c12.3,10.35,12.19,18.8,13.82,30.89,2,14.95,17.3,18,33.25,17,15.53-1,27.21,4.88,31.17,15.45,6.88,18.41-11.11,35.53-.41,49.32,3.47,4.47,9.34,6.51,14.37,9.36,14.13,8,22.4,24.33,20.14,39.73-2,13.36-12.8,25.82-10.19,39.08,3.86,19.57-18.89,28.32-34.16,28.16S34.16,244.27,34.16,244.27Z"/><path class="cls-2" d="M198.14,189.76c-2.81-3.52-5.7-7.21-6.61-11.61-.84-4.08-2.05-8.56-1.9-12.72a34,34,0,0,0-2-12.27c-4.32-12.34-9.48-10.31-11.3-9.12s-2.44,3.36-2.14,6.72c.24,2.71,3.66,15.07-.67,13.71-5-1.58-6.47-14.75-7.76-19-1.92-6.42-5.47-13.09-11-17-2.75-1.94-6.58-3.14-9.4-1.3a7.84,7.84,0,0,0-3,5c-1.23,5.94,1.48,11.61,4.37,16.63,1.21,2.09,10.08,11.38,3.67,11.17-1.52-.05-15.25-8.3-15.22,2,0,3.63,4.47,6.81,11.39,10.61,4.32,2.37,19.93,8,19.68,12.08s-9.17-1.26-7.29,6c1.05,4.06,6.84,6.36,10.71,7.46,1.84.52,3.78.67,5.58,1.32,2.14.76,4.91,2.9,3.67,5.48-.54,1.13-1.78,1.81-2.28,3a3.56,3.56,0,0,0,.67,3.56,8.24,8.24,0,0,0,3.1,2.15c7.4,3.37,16.11,3,23.83.43s14.62-7.12,21.14-12"/><g class="cls-3"><path class="cls-4" d="M150.07,133.52s13.68,42.09,43.18,65.72"/><path class="cls-4" d="M141.67,163.43s16,9.59,28.26,9.74"/><path class="cls-4" d="M179.21,149.15c1.61,6.68,4.56,25.53-.72,35.46"/><path class="cls-4" d="M164.45,191.39s6.35,4.25,24.37,4.05"/><path class="cls-4" d="M180.19,208.62s9.38.47,16.94-5.34"/></g><path class="cls-5" d="M307.34,232c0,2.09-30.33,4.15-67.8,4.59s-67.86-.88-67.89-3,30.33-4.14,67.8-4.59S307.31,229.89,307.34,232Z"/><path class="cls-6" d="M166.3,144.24s-2.7-8,1.1-7.06c0,0,.71-.05,1,1.94,0,0,1.17-1.83,2.67-1.25S171.12,142.28,166.3,144.24Z"/><path class="cls-6" d="M182.29,135s-4-5.28-.93-5.52c0,0,.52-.22,1.21,1.2,0,0,.42-1.66,1.68-1.6S185.39,132.36,182.29,135Z"/><path class="cls-6" d="M171.09,123.58s-4-5.29-.93-5.53c0,0,.52-.21,1.21,1.2,0,0,.42-1.66,1.68-1.59S174.19,120.93,171.09,123.58Z"/><path class="cls-7" d="M216.32,147.3a4.61,4.61,0,0,0,.29-2.65,1.33,1.33,0,0,0-2.51.43C213.92,146.57,214,147.74,216.32,147.3Z"/><path class="cls-8" d="M255.57,241.44a5.56,5.56,0,0,0-3-2.16c-1.87.05-3.78.18-5.53.12a23.57,23.57,0,0,1-4.45-.56,15.21,15.21,0,0,1-3.74-1.28l-.5,1-2.93,5.95a95.33,95.33,0,0,0,14.28,3.65C254,248,258,245.13,255.57,241.44Z"/><path class="cls-7" d="M256.53,241.46a5.87,5.87,0,0,0-3.16-2.16c-2,0-4,.17-5.84.11a27.16,27.16,0,0,1-4.69-.56,17.38,17.38,0,0,1-3.94-1.28l-.52,1-.44.83a19.33,19.33,0,0,0,2.53,1.11,22.85,22.85,0,0,0,4.29,1.16c1.81.31,4.14.87,6.09,1.1,2.48.51,4.89.75,4.84,2.48,0,1-1.53,1.42-1.67,2.12C256.73,246.26,258.37,244.08,256.53,241.46Z"/><path class="cls-6" d="M261.47,242c-1.73-2.61-5.23-2.83-8.9-2.74a5.56,5.56,0,0,1,3,2.16c2.45,3.69-1.62,6.52-5.87,6.74a35.89,35.89,0,0,0,5.08.58C259.31,248.89,264.09,245.94,261.47,242Z"/><path class="cls-8" d="M190.19,240.23a5.48,5.48,0,0,1,3.08-2c1.86.12,3.77.32,5.52.32a23.5,23.5,0,0,0,4.47-.39A15.83,15.83,0,0,0,207,237l.46,1,2.71,6.06a96.16,96.16,0,0,1-14.4,3.12C191.56,246.79,187.6,243.82,190.19,240.23Z"/><path class="cls-7" d="M189.23,240.21a5.85,5.85,0,0,1,3.24-2c2,.11,4,.32,5.83.33a27,27,0,0,0,4.71-.4,17,17,0,0,0,4-1.13l.49,1,.4.84a19.57,19.57,0,0,1-2.56,1,23.11,23.11,0,0,1-4.33,1c-1.83.25-4.17.72-6.14.88-2.49.42-4.91.56-4.92,2.3,0,1,1.47,1.47,1.59,2.18C188.85,245,187.3,242.76,189.23,240.21Z"/><path class="cls-6" d="M184.27,240.58c1.83-2.54,5.33-2.63,9-2.4a5.48,5.48,0,0,0-3.08,2c-2.59,3.59,1.37,6.56,5.62,7a37.21,37.21,0,0,1-5.1.39C186.18,247.53,181.51,244.4,184.27,240.58Z"/><path class="cls-9" d="M232.6,228.9l30.81-20s-12.59-.9-16.94,1-8.22,3.58-12.43,3.28c-1.43-.1-4.23-1.9-7.64-1.36-5.41-1.11-12.2-.11-14.53.1-4.23.39-8.06-1.5-12.37-3.62s-16.95-1-16.95-1l30.67,22.73,1.27,10.5,6.88-4.45,9.4,7Z"/><path class="cls-10" d="M236.93,245.94s-54.27-14.12-62.15-22.71c-3.18-3.47-4.55-9.19.24-12.9s5-5.21,13.95-.43,49.18,26.5,50.3,28C239.27,237.91,237,242.71,236.93,245.94Z"/><path class="cls-10" d="M208.48,245.41s50.33-9.36,63-20.38c3.69-3.22,4.89-9,.24-12.9s-4.85-5.39-13.92-.95-50.13,24.65-51.31,26.12C206.44,237.3,208.54,242.18,208.48,245.41Z"/><path class="cls-9" d="M239.38,237.62,189.1,209.25s39.43,27,49.34,30.63"/><path class="cls-9" d="M193.91,211.34c-.56-.19-10-3.81-10.8-2.29s7.29,3.09,12.77,3.62"/><path class="cls-9" d="M198.56,213c-.59-.06-10.62-1.51-11,.14s7.79,1.41,13.25.72"/><path class="cls-9" d="M255.92,212.49c.57-.16,10.16-3.43,10.88-1.88s-7.4,2.82-12.9,3.14"/><path class="cls-9" d="M251.22,214c.58,0,10.66-1.11,11,.55s-7.84,1.12-13.27.23"/><rect class="cls-8" x="219.5" y="155.33" width="12.31" height="12.03" transform="translate(60.14 383.96) rotate(-88.94)"/><path class="cls-8" d="M216.83,144.63c-.13,7.06,4.17,12.87,9.61,13s10-5.54,10.09-12.61-4.18-12.87-9.61-13S217,137.56,216.83,144.63Z"/><path class="cls-11" d="M218.91,148.36a1.24,1.24,0,0,0,1.21,1.26,1.24,1.24,0,1,0-1.21-1.26Z"/><path class="cls-11" d="M230.29,148.9a1.24,1.24,0,1,0,1.26-1.21A1.24,1.24,0,0,0,230.29,148.9Z"/><path class="cls-7" d="M229.64,157a7.83,7.83,0,0,1-6.95-.49s4.59,6.14,7.84,6.65A29.83,29.83,0,0,1,229.64,157Z"/><path class="cls-7" d="M219.51,150.14s-2-3.48,2-6.44,10.53-4.77,11.26-6.95-8.64-4.13-12.64.7-5.1,8.64-2,12.46"/><path class="cls-12" d="M217.06,162.51s-8.56-.7-11.91,5.69-31.73,35.77-9.78,43.06c0,0,5.12,1.18,7.75.79s35.79.77,35.79.77,4.61,6.87,14.6,1.46,5.65-16.46-1-30.24-9-19.66-18.36-21.22C234.1,162.82,227.59,170.77,217.06,162.51Z"/><path class="cls-13" d="M252.46,184c-6.4-13.16-8.81-19.1-17.17-21,5.94,4.28,7.36,11.45,10.78,25.23,2.94,11.81,4.89,21.84,1.48,28a16,16,0,0,0,6-2C263.49,208.87,259.16,197.82,252.46,184Z"/><path class="cls-13" d="M204.08,193.78c-.59,0-10.7-1.05-11,2.62s7.87,1.44,13.29-1.21"/><path class="cls-13" d="M207.36,196.15c-.57.16-10.5,2.24-10,4.85s7.86-1.19,12.52-4.5"/><path class="cls-5" d="M245.71,210.32a3.57,3.57,0,0,1-3.63,3.5l-34.8-.65a3.57,3.57,0,0,1-3.5-3.63l.49-25.87a3.56,3.56,0,0,1,3.62-3.5l34.81.65a3.56,3.56,0,0,1,3.49,3.63Z"/><path class="cls-14" d="M242.7,180.82h-.31a3.52,3.52,0,0,1,.34,1.55l-.48,25.88a3.56,3.56,0,0,1-3.63,3.49l-34.5-.64a3.56,3.56,0,0,0,3.16,2.07l34.8.65a3.56,3.56,0,0,0,3.63-3.5l.48-25.87A3.56,3.56,0,0,0,242.7,180.82Z"/><path class="cls-14" d="M226.82,196.51a1.83,1.83,0,1,1-1.79-1.85A1.82,1.82,0,0,1,226.82,196.51Z"/><path class="cls-15" d="M250.61,174.67c-4.08-9.31-7.77-9.64-6.46-15.11s-3.3-7.49-1.77-14.39a13.85,13.85,0,0,0-4.3-13.47,8.44,8.44,0,0,0-4.24-1.94,7.31,7.31,0,0,0-1.17-1.09c-7.82-7-15.68-1-18.57.73-4.39,2.63-6.2,7.43-6.41,7.78-2.63,4.38-2.27,8.35-.86,13.47s-.11,4.79.36,14.09,14.13,18.74,11.17,14,1.44-11.26,3.91-18.88-5-9.05-4.86-15.2S228,135,228,135c1.52.47,5.84,2.13,4.91,9.22a20.16,20.16,0,0,0,0,6.63h0a6.42,6.42,0,0,1-2.42,4.27c-2.32,2-.95,10.15,1.94,13.06h0a11,11,0,0,0,6.89,3.85c8.62,1.22,13,14.45,13,14.45S254.7,184,250.61,174.67Z"/><path class="cls-16" d="M226.65,135.61l-.25-.12s-10.89,2.11-11.8,8.2,6.29,8.46,2.84,15.7c-2.5,5.25-5.92,9.81-6.73,13.85,4,5.41,9.69,8.77,7.68,5.56-3-4.7,1.44-11.25,3.91-18.88s-5-9-4.86-15.19C217.52,140,223.78,136.82,226.65,135.61Z"/><path class="cls-1" d="M114.84.09c8.68-1,13.36,6.6,14.57,14.19.49,3,0,6.37-2.12,8.63-3,3.27-8.09,3.32-12.52,3-3.07-.23-6.22-.56-9-1.91s-5.11-4-5.3-7C100.1,10.41,108.36.86,114.84.09Z"/><path class="cls-1" d="M277.23,50.72c1.72,1.79,4.21,2.61,6.64,3.14a23.4,23.4,0,0,0,11.58,0,9,9,0,0,0,5.66-4.16,12.29,12.29,0,0,0,.94-5c.42-8.72-3.2-21-14.56-18.33C279,28.36,270.26,43.48,277.23,50.72Z"/><path class="cls-1" d="M330.15,118.84c-2.38-4-7.37-6.11-9.25-10.3-3.35-7.44,2.22-16,9.63-17.67,19.76-4.53,29.14,26.93,18.53,39.63a9.14,9.14,0,0,1-12.47,1C332.77,128.28,332.6,122.92,330.15,118.84Z"/><path class="cls-1" d="M16,80.54c.93-2.39.35-4.76.4-7.22,0-2.22.56-3.58,2.94-4,3.9-.67,6.85,2.61,8.92,5.41a20.83,20.83,0,0,1,3.38,6.09,15.67,15.67,0,0,1,.6,5.28,8,8,0,0,1-.56,3,9.28,9.28,0,0,1-2.76,3.16,31,31,0,0,1-8,5.28,11.92,11.92,0,0,1-9.37.18,5.91,5.91,0,0,1-3.2-3.15c-.73-2,.17-4.3,1.41-6.07C11.61,85.77,14.76,83.68,16,80.54Z"/><ellipse class="cls-17" cx="221.37" cy="256.58" rx="62.32" ry="4.58"/></g></g></svg>