<svg xmlns="http://www.w3.org/2000/svg" viewBox="0 0 145.92 151.46"><defs><style>.cls-1{fill:#b0d9c7;}.cls-2{opacity:0.25;}.cls-3{fill:none;stroke:#fff;stroke-linecap:round;stroke-linejoin:round;}.cls-4{fill:#3d3342;}.cls-5{fill:#4c4051;}.cls-6{fill:#ffd1ab;}.cls-7{fill:#594a5f;}.cls-8{fill:#ffe1bd;}.cls-9{fill:#4f06b7;}.cls-10{fill:#6f00f7;}.cls-11{fill:#2c1e56;}.cls-12{fill:#82ccd8;}.cls-13{fill:#97deef;}.cls-14{fill:#75c1c9;}.cls-15{fill:#a7e8f2;}</style></defs><title>Asset 2</title><g id="Layer_2" data-name="Layer 2"><g id="OBJECTS"><path class="cls-1" d="M63,96.75c-2.81-3.51-5.7-7.2-6.61-11.61-.85-4.08-2-8.55-1.9-12.72a33.76,33.76,0,0,0-2-12.26C48.21,47.82,43.05,49.84,41.23,51s-2.44,3.36-2.14,6.72c.24,2.7,3.66,15.06-.67,13.7-5-1.57-6.48-14.74-7.76-19-1.93-6.42-5.48-13.09-11-17-2.75-1.94-6.59-3.13-9.4-1.29a7.75,7.75,0,0,0-3,5C5.94,45.1,8.65,50.78,11.54,55.79c1.21,2.1,10.08,11.39,3.68,11.17C13.69,66.91,0,58.66,0,69c0,3.63,4.47,6.8,11.39,10.6,4.32,2.38,19.92,8,19.67,12.08s-9.16-1.26-7.28,6c1,4.06,6.84,6.36,10.71,7.46,1.84.52,3.78.68,5.58,1.32,2.14.76,4.9,2.91,3.67,5.49-.55,1.12-1.78,1.8-2.28,3a3.54,3.54,0,0,0,.66,3.55,8.21,8.21,0,0,0,3.1,2.15c7.41,3.37,16.11,3,23.84.43s14.61-7.11,21.14-12"/><g class="cls-2"><path class="cls-3" d="M15,40.52S28.64,82.6,58.15,106.23"/><path class="cls-3" d="M6.56,70.42s16,9.59,28.26,9.74"/><path class="cls-3" d="M44.11,56.14c1.61,6.68,4.56,25.53-.72,35.46"/><path class="cls-3" d="M29.34,98.38s6.36,4.25,24.37,4.06"/><path class="cls-3" d="M45.09,115.61s9.37.48,16.93-5.33"/></g><path class="cls-4" d="M138,126.56c-.67-5.81-3.64-9.76-9-12.28-4.36-2-9.26-2.53-14-3.15-10.64-1.36-20.8-2.73-31.55-2.3-8.6.33-13.89,7.67-17.92,14.9-2.53,4.56-1.83,6.69,1.36,10.51A38.75,38.75,0,0,0,77.34,143c7.9,4.49,20,3.38,28.73,2.41,8.21-.91,15.45-1.06,22.77-4.88C133.55,138.08,138.66,132.22,138,126.56Z"/><path class="cls-5" d="M116.76,141.06a5.7,5.7,0,0,1,4.29-1.12c1.88.14,7.06,1.88,9.6,2.1s5.22-.07,6.45,2.24c2.09,3.91.69,7.11-3.51,7.18-2.29,0-4-1.64-7.62-1.65s-8.81-1.73-10.13-4.37"/><path class="cls-6" d="M112,138.85a26.85,26.85,0,0,0,4.56,1.38c1.84.29,6.06.25,7.82,1.63s.8,4.88-.58,5.57c-2.22,1.11-3.84.26-7.53-1.34a24,24,0,0,0-8.22-1.59"/><path class="cls-5" d="M125.58,142.42s-1.33-.92-1.89-.13a12.67,12.67,0,0,0-1,4.94c.34,1,2.44.89,2.44.89l2.15-4.37Z"/><path class="cls-5" d="M58,133c-3.59-1.74-7.2-3.85-8.62-8s.19-11.1,4.64-15c5.42-4.69,11-2.23,15,.41,8.3,5.4,13.11,11,23,16.43,2.94,1.62,19.45,10.29,19.45,10.29.31,1.14-1.6,9.21-3,9.19C92.68,146.21,70.85,139.24,58,133Z"/><path class="cls-5" d="M79.12,140a5.87,5.87,0,0,0-4.39-1.15c-1.93.15-7.24,1.93-9.84,2.15s-5.2-.07-6.67,1.85c-2.77,3.61.57,7.42,4.87,7.49,2.34,0,2.88-1.36,6.6-1.37s9-1.77,10.38-4.48"/><path class="cls-6" d="M84,137.78a28.07,28.07,0,0,1-4.67,1.41c-1.89.29-6.21.26-8,1.67-2,1.52-.82,5,.59,5.71,2.28,1.14,3.93.26,7.72-1.37A24.58,24.58,0,0,1,88,143.57"/><path class="cls-5" d="M70.09,141.44s1.36-.95,1.93-.14a12.77,12.77,0,0,1,1,5.06c-.35,1.06-2.5.92-2.5.92l-2.2-4.48Z"/><path class="cls-7" d="M133.1,136.48c4.26-1.61,8.62-3.57,11.13-7.58s2.4-10.7-1.46-14.49c-4.7-4.62-11.21-2.36-16.17.1-10.14,5-21.42,11.07-31.93,15.34-3.55,1.44-15.35,7.05-15.35,7.05-.6,1.09,1.1,9.27,2.6,8.89"/><path class="cls-8" d="M131,31.42c.28.77,2.36-3.43,3.75-2.65.2.11,1.18,1.59,1.41,1.77.44.36,1.38.06,1.86,1.29,1.07,2.76,1,8.18-3.46,10.51-.07.15-4.14,17.67-6.63,26.35l-6.9-6.45c1.89-4.78,5.84-13.15,8.62-20.75A6.7,6.7,0,0,0,130,36.6a31.92,31.92,0,0,1-1.85-7.22c0-.74,1.65-7,2.39-6.34.42.39.4,2.69-.08,5.24A5.3,5.3,0,0,0,131,31.42Z"/><path class="cls-9" d="M64.5,79.14C61.56,84.6,58,90,57.3,96.17c-.26,2.29,0,4.85,1.62,6.46s6.51,1.75,8.79,1.87c3.2-9.94,4-19.82,7.2-29.76L79.65,60c1.2-3.71,4.48-9.8,4.08-13.58-4.58.07-8.49,10.48-10.15,13.86C70.48,66.5,67.83,73,64.5,79.14Z"/><path class="cls-10" d="M114.84,110.33a43.87,43.87,0,0,1-6.48,3.39,35.12,35.12,0,0,1-10.13,2,83.63,83.63,0,0,1-26.56-2.2c-3.69-.91-5.41-2.71-5.49-6a15.88,15.88,0,0,1,.29-3c1-5.42.08-10.43,2.36-15.43,2.76-6,3.43-13.28,5.33-19.64,1.77-5.9,3.55-11.82,5.51-17.65a12.54,12.54,0,0,1,5.43-7.09c3.33-1.86,7.18-1.08,10.82-1.66s9-1.76,13.34,2.63c1.91,2-.69,1.46-.07,3.83,2.06,7.86,3.67,15.82,5,23.84C114.8,77.19,117.59,108.71,114.84,110.33Z"/><path class="cls-9" d="M86.46,110l-20.23-1.69a24.13,24.13,0,0,1,.24-3.75s11.16.84,16,.42C93.25,104,86.46,110,86.46,110Z"/><path class="cls-10" d="M118.79,60.46a116.88,116.88,0,0,1,6.37-11.62c.72-1.14,2.18-4.52,3.47-5,1.46-.5,4.93,1.12,6.32,1.65a214.53,214.53,0,0,1-8.18,28,9.55,9.55,0,0,1-2,3.69c-2.1,2-5.68,1.74-8.12.13s-4-4.23-5.5-6.75c-2.6-4.41-5.6-9.08-6.88-14.1-.8-3.11-3.49-8.34-.63-11s5.44-.44,7.24,2.07c1.47,2.05,2.84,4.19,4.16,6.34C115.5,54.69,119.16,59.69,118.79,60.46Z"/><path class="cls-11" d="M107.67,14.72c2.87,4.66.68,11.19,3.57,15.84,1.16,1.86,3.07,3.29,3.66,5.4a4.79,4.79,0,0,1-6.75,5.58,7,7,0,0,0-1.07-.5c-1.38-.36-2.59.89-3.74,1.72a5.77,5.77,0,0,1-5,1c-2.14-.66-3.51-2.76-4.27-4.87C92,33,93.2,26.49,94.87,20.45c.83-3,2.09-6.37,5-7.54"/><path class="cls-8" d="M96.83,36.15s0,5.44.87,5.78a21.31,21.31,0,0,0,3.55,1l.35,11.26L86.54,52.32,76.06,46.85S86.69,43,86.76,41.93,86,34.86,86,34.86"/><path class="cls-8" d="M107.09,13.64s1.14,10.5-.5,16.05c-1.22,4.12-6.58,8.08-11.14,8.15-12.55.34-15.26-16.66-15.22-17.48s18.3-8.48,18.3-8.48Z"/><path class="cls-10" d="M113.52,65.35S84.84,80.18,82.36,79.55,57.29,96.17,57.29,96.17s2.33-42.91,16.43-49.53c7.18-3.36,3.56-3.51,9.94-3.56l2.82-.22c3.18,3.71,9.75,9.2,12.43,6.58,2-2,.25-5.41-.32-7.2,4,.54,8.32,1.45,10.67,3.45C115.8,51.29,113.52,65.35,113.52,65.35Z"/><path class="cls-9" d="M78.32,60.46s-7.92,31.06-6.84,31.7S87.84,95,87.84,95l.19-.85-14.5-2.94S79.28,67.11,78.32,60.46Z"/><path class="cls-11" d="M74.37,45.75c-.28-.14-.56-.29-.83-.45A6.91,6.91,0,0,1,70.08,42c-.93-2.34-1.45-5.94-.29-8.26.79-1.57,2.31-2.62,3.34-4A12.23,12.23,0,0,0,75,22.78a46.27,46.27,0,0,1,.29-7.26c.76-4.07,1.81-8,4.87-10.66C85,.55,95-2.2,100.56,2.32c1,.82,1.23,1.5,2.57,1.59a9.91,9.91,0,0,1,4.61,1.21c1.82,1,4,2.39,3.83,4.74a8.39,8.39,0,0,1-3.27,5.06,4.23,4.23,0,0,1-1.92.48c-2.12.1-3.92-1.24-6-1A4,4,0,0,0,97.8,16c-.73.94-.59,2.24-1.44,3.13-1.37,1.43-3.56,1.37-5.2,2.32a1.69,1.69,0,0,0-.71.61,1.94,1.94,0,0,0-.15.9l0,2.63c-.84-.34-1-1.51-1.65-2.09a1.9,1.9,0,0,0-2.39.22A4,4,0,0,0,85.14,26a6.71,6.71,0,0,0,.55,3.14c.59,1.77,2.17,3.34,3.38,2.13.93,1.29,0,3.53,0,5,0,1.19.09,3.54,1.22,4.29s2.64.1,2.75,1.94c.11,1.69-1.55,3.06-3.22,3.31a12.6,12.6,0,0,1-5-.73,7.71,7.71,0,0,0-5-.11,15.9,15.9,0,0,1-2.76,1.33A4.37,4.37,0,0,1,74.37,45.75Z"/><path class="cls-9" d="M105.88,56.39s4.53,8,4.54,10.55-1.49,7.61-1.49,7.61l1.23-.08s2-5,2.15-6.5a10.5,10.5,0,0,0-1.59-6.11c-1.51-2.74-4.31-6.76-5.22-7.17S105.88,56.39,105.88,56.39Z"/><polygon class="cls-12" points="63.99 108.28 129.12 108.02 83.88 118.07 63.99 108.28"/><polygon class="cls-13" points="83.88 119.72 136.58 115.66 145.92 74.52 92.92 78.99 83.88 119.72"/><polygon class="cls-14" points="83.88 119.72 63.99 110.74 63.99 108.28 84.36 117.58 83.88 119.72"/><polygon class="cls-14" points="92.92 78.99 91.54 78.1 83.02 116.96 84.36 117.58 92.92 78.99"/><polygon class="cls-14" points="91.54 78.1 144.25 73.45 145.92 74.52 92.92 78.99 91.54 78.1"/><path class="cls-15" d="M121,96.48c.26,2-1.64,3.82-4.25,4.17s-4.93-.94-5.19-2.9,1.64-3.81,4.24-4.16S120.7,94.53,121,96.48Z"/></g></g></svg>