<svg xmlns="http://www.w3.org/2000/svg" xmlns:xlink="http://www.w3.org/1999/xlink" viewBox="0 0 431.88 349.96"><defs><style>.cls-1{fill:url(#linear-gradient);}.cls-2{fill:#f0ebfc;}.cls-3{fill:#75bbf1;}.cls-4{fill:#202021;}.cls-5{fill:#efd3d0;}.cls-6{fill:#6f00f7;}.cls-7{fill:#272727;}.cls-8{fill:#385d89;}.cls-9{fill:#42679e;}.cls-10{fill:#757475;}.cls-11{fill:none;stroke:#1931b0;stroke-miterlimit:10;}</style><linearGradient id="linear-gradient" x1="215" y1="74.01" x2="215" y2="338.02" gradientUnits="userSpaceOnUse"><stop offset="0" stop-color="#e8f3f7"/><stop offset="1" stop-color="#fff"/></linearGradient></defs><title>Asset 1</title><g id="Layer_2" data-name="Layer 2"><g id="OBJECTS"><path class="cls-1" d="M80.66,344.45S42.55,321,25.15,283.12s0-65.2,20.66-82S8.72,147.42,18,77.83,83-10.25,113.33,5s26.33,56.55,48.45,62,50.4-38.06,100.42-38.06,97.81,19.58,119,71.77-24.58,106.79,5.94,136,37.23,93.21,2.34,108Z"/><ellipse class="cls-2" cx="190.11" cy="340.94" rx="151.33" ry="9.02"/><polygon class="cls-3" points="65.78 231.79 74.92 339.83 137.28 339.83 137.28 231.79 65.78 231.79"/><path class="cls-4" d="M102,147.88s-7.57-1.82-12.87,11.5c-2.38,8-2.86,15-1.36,18.08s2.72,7.47,12.37,7.75,13.65-4.08,15.25-7.48S118.64,148.47,102,147.88Z"/><path class="cls-5" d="M113,159.86a11,11,0,1,0-21.69,2.51,71.11,71.11,0,0,0,1.21,8,11.52,11.52,0,0,0,9.48,8.24,11.52,11.52,0,0,0,9.47-8.24,68.78,68.78,0,0,0,1.2-7.93A10.75,10.75,0,0,0,113,159.86Z"/><path class="cls-5" d="M91.53,164.18a2.76,2.76,0,0,0-2.25-1.13c-1.25.19-1.79,5.33,3,6.18Z"/><path class="cls-5" d="M112.49,164.18a2.76,2.76,0,0,1,2.24-1.13c1.26.19,1.79,5.33-3,6.18Z"/><path class="cls-6" d="M115.6,186.2c-2-1.39-10.26-5.85-10.26-5.85H98.68s-8.25,4.46-10.26,5.85-5.09,10.05-5.09,10.05A9.34,9.34,0,0,0,91,200.58a43.88,43.88,0,0,1,2.09,4.6c.56,1.68-2.75,14.68-2.75,14.68l21.38-.48s-1.37-12.52-.81-14.2a43.88,43.88,0,0,1,2.09-4.6,9.34,9.34,0,0,0,7.68-4.33S117.62,187.6,115.6,186.2Z"/><path class="cls-7" d="M78.84,257.9l-5,6.43s-3.39,6.37-1.76,8,8.45-6.8,10.68-11Z"/><path class="cls-7" d="M94.69,271.17l-.38,8.1s.85,7.17,3.12,7.57,3-10.41,2.47-15.14Z"/><path class="cls-5" d="M98.68,176.62v4.73s3,4.28,6.63,0v-4.73Z"/><path class="cls-8" d="M90.7,215s12.16-.63,17.07-.81,9.28-.51,11.28,4.37c1.67,4.08,2.28,12.54-2,13.62-2.33.59-28.48-.3-28.48-.3A5.1,5.1,0,0,1,85,227.56C84.67,224.1,84.71,215,90.7,215Z"/><path class="cls-9" d="M94.35,272.13s-3.07-28.67-4.34-36-4.15-17.51,1.48-22.31l.17-.14a7.47,7.47,0,0,1,12.22,5.12,37.89,37.89,0,0,1,.14,5.57c-.43,6.95-3.29,36.59-4,47.77C100,272.13,96.19,274.81,94.35,272.13Z"/><path class="cls-4" d="M91.53,164.18c10.72-3.83,11.47-13.07,11.47-13.07a30.78,30.78,0,0,0,9.49,13.07c0-.22.44-2.55.46-2.69a11.51,11.51,0,0,0,.16-2.64,11.11,11.11,0,0,0-11.16-11,11,11,0,0,0-11,11,11.27,11.27,0,0,0,.19,2.55C91.16,161.57,91.53,164.18,91.53,164.18Z"/><path class="cls-5" d="M84.18,197.37s-4.44,6.24-2.77,10.64c1.2,3.14,7.83,1.26,12.14,2.43a4.32,4.32,0,0,0,2.2-3.74s-4.79-2.59-7.33-3.61L91,200.58S86.12,200.1,84.18,197.37Z"/><path class="cls-5" d="M120.15,197s4.54,6.6,2.86,11c-1.19,3.14-7.82,1.26-12.14,2.43a4.33,4.33,0,0,1-2.19-3.74s4.79-2.59,7.33-3.61l-2.59-2.51A8.45,8.45,0,0,0,120.15,197Z"/><path class="cls-9" d="M81,261.19a3.5,3.5,0,0,1-1.67-5.13c3-4.88,11.43-18.54,14.32-23.87,3.55-6.55,11.78-19.9,19.18-20.17h.22a7.46,7.46,0,0,1,6.42,11.59c-1.07,1.64-6.41,6.78-7.54,8.05-4.43,4.95-19.33,20-27.19,28.58a3.47,3.47,0,0,1-3.64,1Z"/><polygon class="cls-10" points="86.86 197.01 118.44 197.01 113.67 216.88 90.35 216.88 86.86 197.01"/><circle class="cls-11" cx="65.78" cy="106" r="3.61"/><circle class="cls-11" cx="387.85" cy="270.44" r="3.61"/><circle class="cls-11" cx="25.5" cy="263.39" r="3.61"/><circle class="cls-11" cx="177.3" cy="137.61" r="3.61"/><circle class="cls-11" cx="103.57" cy="15" r="3.61"/><circle class="cls-11" cx="387.85" cy="79.67" r="3.61"/><circle class="cls-11" cx="411.72" cy="172.74" r="3.61"/><line class="cls-11" x1="148.4" y1="77.78" x2="148.4" y2="88.77"/><line class="cls-11" x1="142.91" y1="83.28" x2="153.9" y2="83.28"/><line class="cls-11" x1="426.39" y1="278.78" x2="426.39" y2="289.77"/><line class="cls-11" x1="420.9" y1="284.28" x2="431.88" y2="284.28"/><line class="cls-11" x1="330.5" y1="114.21" x2="330.5" y2="125.2"/><line class="cls-11" x1="325.01" y1="119.7" x2="335.99" y2="119.7"/><line class="cls-11" x1="256" y1="54.5" x2="256" y2="65.49"/><line class="cls-11" x1="250.51" y1="59.99" x2="261.49" y2="59.99"/><line class="cls-11" x1="5.49" y1="166.37" x2="5.49" y2="177.36"/><line class="cls-11" y1="171.87" x2="10.99" y2="171.87"/></g></g></svg>