<svg xmlns="http://www.w3.org/2000/svg" viewBox="0 0 323.31 360.82"><defs><style>.cls-1,.cls-2{fill:#9dfcea;}.cls-1{opacity:0.39;}.cls-2{opacity:0.38;}.cls-3{fill:#342c49;}.cls-4{fill:#fcd590;}.cls-5{fill:#0028ff;}.cls-6{fill:#1e1927;}.cls-7{fill:#10eaf0;}.cls-8{fill:#d07e4d;}</style></defs><title>Asset 1</title><g id="Layer_2" data-name="Layer 2"><g id="Layer_1-2" data-name="Layer 1"><ellipse class="cls-1" cx="157.62" cy="336.86" rx="157.62" ry="16.63"/><path class="cls-2" d="M51.86,358.5c0,1.29-9.85,2.32-22,2.32s-22-1-22-2.32,9.85-2.32,22-2.32S51.86,357.22,51.86,358.5Z"/><path class="cls-3" d="M281.7,312.79s25.11,9.76,38.6,10.23c0,0,15.82-1.4-25.12-20,0,0-4.36,4.14-13.95,3.25Z"/><path class="cls-3" d="M210.1,333.35s26.62,4.18,39.9,1.75c0,0,17.26-3.34-26.7-12.78,0,0-6.55.7-16.87-2.09Z"/><path class="cls-4" d="M206.43,235.6s25.49,28.81,19.45,49.74a92.44,92.44,0,0,1-19.45,34.89s9.68,4.65,18.52,2.79c0,0,28-23,24.93-76.61,0,0-14.53-14-32.29-16.38l-3.81,6Z"/><path class="cls-5" d="M213.78,236s-13-3.26-41.39,7.44-95.79,29.3-103-27c0,0,2.08-25.58-2.57-40.93l35.81,24.65s37.68,9.3,67.92,0,40.93-8.84,48.84-6.05C219.37,194.17,229.13,215.57,213.78,236Z"/><path class="cls-3" d="M127.26,16s7.9,27.45,0,43.73c0,0,2.33,37.21-35.81,31.16,0,0,4.19,17.68,10.7,18.61,0,0-52.1,15.81-74.42-24.19,0,0-6.52-14,0-23.72s14.88-8.37,14.88-8.37-4.19-20.47,7-34S114.69-14.68,127.26,16Z"/><path class="cls-4" d="M120.29,25.79s18.91,49.52-5.58,61.4c-15.35,7.44-23.26,3.72-23.26,3.72s-3.25,15.35,3.26,27.91c0,0-10.24,11.16-21.4-7,0,0,6-17.21,4.19-29.77a28.33,28.33,0,0,1-4.19-11.16s-6.51-10.7-2.79-16.74,10.7-3.26,11.63,1.39C82.15,55.56,107.73,59.28,120.29,25.79Z"/><polygon class="cls-6" points="117 202.79 189.68 194.99 213.32 122.22 206.43 122.22 185.41 187.68 117 195.57 117 202.79"/><path class="cls-5" d="M73.31,111.84s-18.14,1.86-17.21,20,6,28.38,6,28.38a46.65,46.65,0,0,1,26.51-8.84s5.58,36.28,14,48.84c0,0-1.86-24.19,0-36.75,0,0,14.42-7,10.24-20s-18.14-24.65-18.14-24.65S84.36,129.07,73.31,111.84Z"/><path class="cls-4" d="M113.61,222.55s-30.07,16.74-51.46-62.33c0,0,9.77-9.77,26.51-8.84,0,0,7.44,39.07,14,48.84s28.84,5.12,31.63-2.32-2.32-19.08,6-23.26,16.75-5.12,18.61-.47-4.19,11.19-8.84,13.5-2.79,13.48-6.51,17.2S123.13,221.25,113.61,222.55Z"/><path class="cls-4" d="M217.59,230s22.71,2.49,40.38,25.18,23.26,51.06,23.26,51.06,9.77,1.4,13.95-3.25c0,0,.47-82.13-74.42-104.79C220.76,198.23,225.58,212.4,217.59,230Z"/><path class="cls-7" d="M2.14,191.38S-11,130.52,27.73,122.22,69.37,190.8,69.37,190.8s-11.44,82.48,95.79,55.26c0,0,27.69-7.7,33.27,16S191,298.83,174.71,303s-88.84,10.23-107.91,6C66.8,309.06,31.45,307.67,2.14,191.38Z"/><polygon class="cls-6" points="56.07 337.95 72.38 337.95 86.33 310.47 71.2 310.47 56.07 337.95"/><polygon class="cls-6" points="189.51 337.95 173.19 337.95 156.94 305.93 170.99 304.33 189.51 337.95"/><path class="cls-4" d="M123.19,54.17S126,60,129.7,62.31s.23,7.44-2.32,7l-2.56-.46Z"/><path class="cls-8" d="M109.65,49.51a8.41,8.41,0,0,0,3.88,3.37,7.43,7.43,0,0,0,2.49.46c.44,0,.88,0,1.33,0s.89-.11,1.37-.13a12.41,12.41,0,0,1-1.27.61,7.91,7.91,0,0,1-1.38.32,6,6,0,0,1-2.89-.31,5.56,5.56,0,0,1-2.35-1.72A5.5,5.5,0,0,1,109.65,49.51Z"/><path class="cls-8" d="M112.09,69.31c.08,1.44.29,2.83,1.19,3.59a4,4,0,0,0,1.65.78l1,.18c.34,0,.69.07,1.06.15-.34.14-.69.23-1,.34a8,8,0,0,1-1.11.09,3.62,3.62,0,0,1-2.22-.8,3.14,3.14,0,0,1-1-2.16A4,4,0,0,1,112.09,69.31Z"/></g></g></svg>