<svg xmlns="http://www.w3.org/2000/svg" viewBox="0 0 264.58 317.28"><defs><style>.cls-1{fill:#35f5bb;}.cls-2{fill:#e1b6be;}.cls-3{fill:#f9d7db;}.cls-4{fill:#053f4c;}.cls-5{fill:#075265;}.cls-6{fill:#f4b7b1;}.cls-7{fill:#6f00f7;}.cls-8{fill:#4902af;}.cls-9{fill:#e8e8e8;}.cls-10{fill:#c5cfd1;}.cls-11{fill:#2c1e56;}.cls-12{fill:#18103a;}</style></defs><title>Asset 9</title><g id="Layer_2" data-name="Layer 2"><g id="Layer_1-2" data-name="Layer 1"><path class="cls-1" d="M2.26,64.33S-4.29,45,4.91,47.25c0,0,1.72-.12,2.38,4.7,0,0,2.83-4.45,6.47-3S13.91,59.59,2.26,64.33Z"/><path class="cls-1" d="M41,42S31.29,29.2,38.7,28.63c0,0,1.25-.52,2.94,2.91,0,0,1-4,4.06-3.87S48.46,35.58,41,42Z"/><path class="cls-1" d="M13.85,14.33S4.18,1.53,11.59,1c0,0,1.26-.51,2.94,2.91,0,0,1-4,4.07-3.86S21.35,7.91,13.85,14.33Z"/><path class="cls-2" d="M123.3,71.74s1.63-4,.71-6.42-5.62-2.55-6.07,1.05S117.77,72.79,123.3,71.74Z"/><path class="cls-3" d="M218.28,299.56a13.4,13.4,0,0,0-7.25-5.23c-4.52.12-9.15.43-13.39.29a58,58,0,0,1-10.77-1.36,37.79,37.79,0,0,1-9-3.09l-1.21,2.46L169.53,307a228.54,228.54,0,0,0,34.54,8.85C214.38,315.32,224.23,308.49,218.28,299.56Z"/><path class="cls-2" d="M220.6,299.6a14.12,14.12,0,0,0-7.65-5.23c-4.77.11-9.65.41-14.11.27a64.18,64.18,0,0,1-11.36-1.37,41.4,41.4,0,0,1-9.53-3.1l-1.27,2.46-1.05,2a49.29,49.29,0,0,0,6.1,2.69,55.49,55.49,0,0,0,10.39,2.79c4.4.76,10,2.12,14.75,2.67,6,1.24,11.83,1.81,11.69,6-.08,2.42-3.68,3.43-4,5.14C221.1,311.22,225.06,306,220.6,299.6Z"/><path class="cls-1" d="M232.57,300.94c-4.19-6.3-12.66-6.83-21.54-6.61a13.4,13.4,0,0,1,7.25,5.23c5.95,8.93-3.9,15.76-14.21,16.3a92,92,0,0,0,12.3,1.41C227.33,317.57,238.9,310.44,232.57,300.94Z"/><path class="cls-3" d="M60.08,296.61a13.32,13.32,0,0,1,7.44-4.95c4.51.28,9.13.76,13.36.78a56.81,56.81,0,0,0,10.82-1,37.83,37.83,0,0,0,9.15-2.75l1.11,2.5,6.56,14.65a229.91,229.91,0,0,1-34.85,7.55C63.39,312.5,53.8,305.31,60.08,296.61Z"/><path class="cls-2" d="M57.76,296.57a14.08,14.08,0,0,1,7.83-4.95c4.76.29,9.63.78,14.1.8a64.05,64.05,0,0,0,11.4-.95,41,41,0,0,0,9.64-2.74l1.18,2.51,1,2.05a51,51,0,0,1-6.2,2.46,56.41,56.41,0,0,1-10.49,2.4c-4.41.59-10.08,1.75-14.84,2.11-6,1-11.88,1.38-11.9,5.57,0,2.42,3.55,3.56,3.83,5.28C56.82,308.15,53.06,302.74,57.76,296.57Z"/><path class="cls-1" d="M45.75,297.46c4.42-6.14,12.9-6.36,21.77-5.8a13.32,13.32,0,0,0-7.44,4.95c-6.28,8.7,3.31,15.89,13.59,16.82a93.18,93.18,0,0,1-12.34,1C50.36,314.27,39.07,306.72,45.75,297.46Z"/><path class="cls-4" d="M162.69,269.19l74.56-48.28s-30.46-2.18-41,2.41-19.88,8.65-30.08,7.93c-3.46-.24-10.24-4.6-18.47-3.28-13.11-2.68-29.55-.28-35.17.23-10.25.94-19.5-3.61-29.94-8.75s-41-2.3-41-2.3l74.22,55,3.08,25.4,16.65-10.77,22.76,16.86Z"/><path class="cls-5" d="M173.18,310.43s-131.34-34.16-150.4-55c-7.69-8.39-11-22.23.59-31.22s12.22-12.6,33.76-1,119,64.12,121.71,67.79C178.84,291,173.33,302.62,173.18,310.43Z"/><path class="cls-5" d="M104.33,309.14s121.8-22.64,152.34-49.3c8.92-7.79,11.84-21.81.58-31.22s-11.75-13.05-33.7-2.3S102.25,286,99.4,289.53C99.4,289.53,104.47,301.34,104.33,309.14Z"/><path class="cls-4" d="M179.12,290.3,57.42,221.66s95.43,65.41,119.41,74.12"/><path class="cls-4" d="M69.07,226.7c-1.35-.45-24.26-9.21-26.14-5.54s17.64,7.49,30.92,8.77"/><path class="cls-4" d="M80.31,230.79c-1.42-.15-25.69-3.64-26.71.35s18.86,3.41,32.08,1.74"/><path class="cls-4" d="M219.14,229.5c1.36-.41,24.58-8.3,26.32-4.57s-17.91,6.83-31.22,7.61"/><path class="cls-4" d="M207.75,233.16c1.42-.09,25.8-2.68,26.68,1.35s-19,2.71-32.13.55"/><rect class="cls-3" x="130.99" y="91.16" width="29.8" height="29.11" transform="translate(37.47 249.61) rotate(-88.94)"/><path class="cls-3" d="M124.53,65.26c-.32,17.11,10.09,31.16,23.26,31.41s24.09-13.42,24.41-30.52S162.1,35,148.94,34.75,124.85,48.17,124.53,65.26Z"/><path class="cls-6" d="M129.57,74.3a3,3,0,1,0,3-2.92A3,3,0,0,0,129.57,74.3Z"/><path class="cls-6" d="M157.11,75.61a3,3,0,1,0,3-2.92A3,3,0,0,0,157.11,75.61Z"/><path class="cls-2" d="M155.55,95.23a19,19,0,0,1-16.83-1.17s11.1,14.85,19,16.07C157.69,110.13,155.25,100.14,155.55,95.23Z"/><path class="cls-2" d="M131,78.61s-4.8-8.43,4.72-15.59S161.23,51.47,163,46.21s-20.91-10-30.59,1.7-12.34,20.9-4.87,30.14"/><path class="cls-7" d="M125.08,108.54s-20.71-1.69-28.8,13.78-76.79,86.55-23.67,104.2c0,0,12.4,2.84,18.76,1.92S178,230.29,178,230.29s11.16,16.62,35.32,3.54S227,194,210.76,160.63,189,113.06,166.32,109.28C166.32,109.28,150.58,128.54,125.08,108.54Z"/><path class="cls-8" d="M210.75,160.63c-15.49-31.87-21.32-46.24-41.53-50.76,14.37,10.36,17.79,27.71,26.09,61.07,7.1,28.57,11.81,52.84,3.56,67.73a39.35,39.35,0,0,0,14.43-4.85C237.45,220.74,227,194,210.75,160.63Z"/><path class="cls-8" d="M93.68,184.21c-1.43,0-25.89-2.53-26.66,6.35s19,3.47,32.15-2.93"/><path class="cls-8" d="M101.62,190c-1.38.37-25.4,5.41-24.3,11.73s19-2.87,30.29-10.89"/><path class="cls-9" d="M194.43,224.24a8.62,8.62,0,0,1-8.78,8.46l-84.23-1.57A8.62,8.62,0,0,1,93,222.35l1.16-62.61a8.61,8.61,0,0,1,8.78-8.45l84.22,1.56a8.63,8.63,0,0,1,8.46,8.78Z"/><path class="cls-10" d="M187.13,152.86l-.74,0a8.52,8.52,0,0,1,.82,3.77l-1.16,62.61a8.63,8.63,0,0,1-8.78,8.46l-83.48-1.56a8.58,8.58,0,0,0,7.63,5l84.23,1.57a8.61,8.61,0,0,0,8.78-8.45l1.16-62.62A8.61,8.61,0,0,0,187.13,152.86Z"/><path class="cls-10" d="M148.72,190.83a4.42,4.42,0,1,1-4.34-4.49A4.42,4.42,0,0,1,148.72,190.83Z"/><path class="cls-11" d="M206.29,138c-9.88-22.54-18.81-23.34-15.65-36.57s-8-18.12-4.27-34.83S181.34,39.21,176,34c-4-3.91-10.26-4.71-10.26-4.71a18.19,18.19,0,0,0-2.81-2.63c-18.93-16.91-38-2.42-45,1.78-10.61,6.36-15,18-15.49,18.81-6.38,10.61-5.5,20.22-2.1,32.61s-.27,11.57.87,34.09,34.19,45.34,27,34,3.48-27.24,9.47-45.68-12-21.9-11.77-36.78,25.72-23.39,25.72-23.39c3.68,1.14,14.14,5.14,11.88,22.3-1.06,8-.62,12.52,0,16.05h0s-.23,5.58-5.85,10.34-2.32,24.54,4.68,31.59l0,0a26.52,26.52,0,0,0,16.68,9.32c20.84,3,31.48,35,31.48,35S216.17,160.51,206.29,138Z"/><path class="cls-12" d="M148.3,43.44l-.62-.29S121.35,48.27,119.14,63s15.22,20.48,6.87,38c-6.05,12.71-14.33,23.75-16.28,33.52,9.65,13.09,23.45,21.23,18.57,13.47-7.16-11.38,3.49-27.24,9.47-45.69s-12-21.89-11.76-36.77C126.22,54.05,141.36,46.36,148.3,43.44Z"/></g></g></svg>