<svg xmlns="http://www.w3.org/2000/svg" viewBox="0 0 1896.3 1109.34"><defs><style>.cls-1,.cls-14,.cls-4{fill:none;}.cls-1,.cls-11,.cls-12,.cls-13,.cls-2,.cls-3,.cls-4,.cls-5,.cls-6,.cls-7,.cls-8,.cls-9{stroke:#0028ff;}.cls-1,.cls-11,.cls-12,.cls-13,.cls-14,.cls-4,.cls-5,.cls-7,.cls-9{stroke-linejoin:round;}.cls-1,.cls-11,.cls-12,.cls-13,.cls-14,.cls-2,.cls-3,.cls-4,.cls-5,.cls-6,.cls-7,.cls-8,.cls-9{stroke-width:2px;}.cls-12,.cls-2,.cls-5{fill:#fff;}.cls-2,.cls-3,.cls-6,.cls-8{stroke-miterlimit:10;}.cls-13,.cls-3{fill:#9dfcea;}.cls-13,.cls-14,.cls-4,.cls-5,.cls-7,.cls-9{stroke-linecap:round;}.cls-6,.cls-9{fill:#dbedff;}.cls-7{fill:#0028ff;}.cls-8{fill:#007dea;}.cls-10{fill:#ff007b;}.cls-11{fill:#f9f871;}.cls-14{stroke:#ff007b;}</style></defs><title>Asset 4</title><g id="Layer_2" data-name="Layer 2"><g id="Layer_1-2" data-name="Layer 1"><line class="cls-1" y1="1087.76" x2="1896.3" y2="1087.76"/><path class="cls-2" d="M384.56,595.39c71.14-13,122.12,9.52,161.88,44.25S598.81,728.8,719.67,753.4s162.18,82.29,170.65,155.11-48.8,179.25-182.89,179.25H441.7c-48.73,0-158.53-11.2-205.58-118.75S182.91,632.36,384.56,595.39Z"/><path class="cls-3" d="M330.13,651.08c12.5-20.2,19.7-27.4,48.55-34.13S514,645.8,539.89,661.48,604.14,730.94,649.51,759s156.85,47.94,174.61,172.67c13.15,92.31-38.5,135.91-91.68,154.78a239.76,239.76,0,0,1-25,1.31H579.51c-13.74-40.5-53.1-108.85-136.88-180.74C326.87,807.69,317.62,671.29,330.13,651.08Z"/><path class="cls-4" d="M384.56,595.39c71.14-13,122.12,9.52,161.88,44.25S598.81,728.8,719.67,753.4s162.18,82.29,170.65,155.11-48.8,179.25-182.89,179.25H441.7c-48.73,0-158.53-11.2-205.58-118.75S182.91,632.36,384.56,595.39Z"/><path class="cls-5" d="M893.74,949.22l53.12,69.34-6,24.77L915,1055.46a66.32,66.32,0,0,0-10.1-19.57c-7.08-9.18-45.8-57.17-45.8-57.17Z"/><polygon class="cls-3" points="927.49 1094.31 936.73 1108 1082.21 1022.68 1072.98 1008.98 1027.12 1035.89 927.49 1094.31"/><path class="cls-6" d="M967.18,1005.26c-12.69-1.4-17.07-6.21-21.14-3.41s-5.69,11.33,2.41,16.71c2.36-1.48,5.29-2.4,9.58-3,8.93-1.35,45-5.86,53.08-6.56s9.49,4.77,9.49,4.77a29.17,29.17,0,0,1,1.27-9.28s-2.1-4-9.23-2.8S979.82,1006.62,967.18,1005.26Z"/><path class="cls-2" d="M1011.11,1009c-8.05.7-44.15,5.21-53.08,6.56-4.29.62-7.22,1.54-9.58,3-2.58,1.58-4.46,3.86-6.52,7.36-4,6.73-10,13.82-17.64,18.07s-11.76,3.28-12.2,10,4.07,26.12,15.4,40.35l99.63-58.42c-5-8.93-6.43-16.54-6.52-22.14C1020.6,1013.75,1019.16,1008.28,1011.11,1009Z"/><path class="cls-2" d="M1021.87,1004.47a29.17,29.17,0,0,0-1.27,9.28c.09,5.6,1.49,13.21,6.52,22.14L1073,1009s-11.82-20-50.8-5.33C1022.18,1003.65,1022.05,1004,1021.87,1004.47Z"/><polygon class="cls-4" points="927.49 1094.31 1027.12 1035.89 1072.98 1008.98 1082.21 1022.68 936.73 1108 927.49 1094.31"/><path class="cls-4" d="M1073,1009s-11.82-20-50.8-5.33c0,0-.13.3-.31.82a29.17,29.17,0,0,0-1.27,9.28c.09,5.6,1.49,13.21,6.52,22.14"/><path class="cls-4" d="M1020.6,1013.75s-1.44-5.47-9.49-4.77-44.15,5.21-53.08,6.56c-4.29.62-7.22,1.54-9.58,3-2.58,1.58-4.46,3.86-6.52,7.36-4,6.73-10,13.82-17.64,18.07s-11.76,3.28-12.2,10,4.07,26.12,15.4,40.35"/><path class="cls-4" d="M1021.87,1004.47s-2.1-4-9.23-2.8-32.82,5-45.46,3.59-17.07-6.21-21.14-3.41-5.69,11.33,2.41,16.71"/><path class="cls-5" d="M1002.34,1017.31a3.38,3.38,0,0,0,3.07,3.66h0a3.37,3.37,0,0,0,3.65-3.07l1.51-17.25a3.37,3.37,0,0,0-3.06-3.65h0a3.38,3.38,0,0,0-3.66,3.06Z"/><path class="cls-5" d="M988.25,1019.88a3.38,3.38,0,0,0,3.06,3.67h0a3.39,3.39,0,0,0,3.66-3.08l1.78-18.72a3.39,3.39,0,0,0-3.07-3.67h0a3.39,3.39,0,0,0-3.65,3.08Z"/><path class="cls-5" d="M974.15,1022.45a3.38,3.38,0,0,0,3.07,3.66h0a3.37,3.37,0,0,0,3.65-3.07l2-20.2a3.38,3.38,0,0,0-3.06-3.66h0a3.38,3.38,0,0,0-3.66,3.07Z"/><path class="cls-5" d="M960.06,1025a3.37,3.37,0,0,0,3.06,3.65h0a3.37,3.37,0,0,0,3.66-3.07l2.32-21.67a3.38,3.38,0,0,0-3.07-3.66h0a3.37,3.37,0,0,0-3.65,3.06Z"/><path class="cls-2" d="M773.14,764.6,901.67,954.82l-50.12,44.44L738.06,857s-69.42,30.24-85.86,30.24H569.3c-7.84,0-39.62-5.29-51.43-38.09-6-16.57-15.22-58.15,37.23-84.53Z"/><path class="cls-6" d="M555.1,764.6h218l46.37,68.62-59.25,51.59L738.06,857s-69.42,30.24-85.86,30.24H569.3c-7.84,0-39.62-5.29-51.43-38.09C511.9,832.56,502.65,791,555.1,764.6Z"/><path class="cls-4" d="M773.14,764.6,901.67,954.82l-50.12,44.44L738.06,857s-69.42,30.24-85.86,30.24H569.3c-7.84,0-39.62-5.29-51.43-38.09-6-16.57-15.22-58.15,37.23-84.53Z"/><path class="cls-4" d="M738.06,857s-10.16-30.53-.36-54.9"/><line class="cls-4" x1="890.32" y1="938.01" x2="839.72" y2="984.43"/><path class="cls-7" d="M380.09,464.45c5.31,38.51,7.84,50.28-4.21,69.6s-24.65,48.74-2.52,69.18H476.71V461.51Z"/><path class="cls-5" d="M486.45,560c6.78,5.93,29.75,16.57,34.79,19.93S551.12,615,554.48,629s.18,41.64,2.8,59.94,27.81,90.19,27.81,90.19l-124.34,70s-7.29-24.27-8.78-44.06-6.35-36.6-21.67-57.14S368,647.76,364.4,626.48s-.95-30.53,12.51-42.67c8.46-7.64,34.91-20.72,34.91-20.72Z"/><path class="cls-5" d="M821.67,949.22l42.75,69.34-9.7,24.77-27.64,12.13a56.56,56.56,0,0,0-7.17-19.57c-5.71-9.18-37.26-57.17-37.26-57.17Z"/><polygon class="cls-3" points="839.55 1094.31 848.78 1108 994.27 1022.68 985.03 1008.98 939.18 1035.89 839.55 1094.31"/><path class="cls-6" d="M879.23,1005.26c-12.68-1.4-17.06-6.21-21.13-3.41s-5.69,11.33,2.41,16.71c2.36-1.48,5.29-2.4,9.58-3,8.92-1.35,45-5.86,53.07-6.56s9.49,4.77,9.49,4.77a29.47,29.47,0,0,1,1.27-9.28s-2.09-4-9.23-2.8S891.88,1006.62,879.23,1005.26Z"/><path class="cls-2" d="M923.16,1009c-8,.7-44.15,5.21-53.07,6.56-4.29.62-7.22,1.54-9.58,3-2.58,1.58-4.46,3.86-6.52,7.36-4,6.73-10,13.82-17.63,18.07s-11.78,3.28-12.21,10,4.06,26.12,15.4,40.35l99.63-58.42c-5-8.93-6.43-16.54-6.53-22.14C932.65,1013.75,931.22,1008.28,923.16,1009Z"/><path class="cls-2" d="M933.92,1004.47a29.47,29.47,0,0,0-1.27,9.28c.1,5.6,1.49,13.21,6.53,22.14L985,1009s-11.82-20-50.81-5.33C934.23,1003.65,934.1,1004,933.92,1004.47Z"/><polygon class="cls-4" points="839.55 1094.31 939.18 1035.89 985.03 1008.98 994.27 1022.68 848.78 1108 839.55 1094.31"/><path class="cls-4" d="M985,1009s-11.82-20-50.81-5.33c0,0-.13.3-.31.82a29.47,29.47,0,0,0-1.27,9.28c.1,5.6,1.49,13.21,6.53,22.14"/><path class="cls-4" d="M932.65,1013.75s-1.43-5.47-9.49-4.77-44.15,5.21-53.07,6.56c-4.29.62-7.22,1.54-9.58,3-2.58,1.58-4.46,3.86-6.52,7.36-4,6.73-10,13.82-17.63,18.07s-11.78,3.28-12.21,10,4.06,26.12,15.4,40.35"/><path class="cls-4" d="M933.92,1004.47s-2.09-4-9.23-2.8-32.81,5-45.46,3.59-17.06-6.21-21.13-3.41-5.69,11.33,2.41,16.71"/><path class="cls-5" d="M914.39,1017.31a3.39,3.39,0,0,0,3.07,3.66h0a3.38,3.38,0,0,0,3.66-3.07l1.51-17.25a3.37,3.37,0,0,0-3.07-3.65h0a3.37,3.37,0,0,0-3.65,3.06Z"/><path class="cls-5" d="M900.31,1019.88a3.38,3.38,0,0,0,3.06,3.67h0a3.39,3.39,0,0,0,3.65-3.08l1.78-18.72a3.38,3.38,0,0,0-3.06-3.67h0a3.38,3.38,0,0,0-3.65,3.08Z"/><path class="cls-5" d="M886.21,1022.45a3.37,3.37,0,0,0,3.06,3.66h0a3.38,3.38,0,0,0,3.66-3.07l2-20.2a3.37,3.37,0,0,0-3.06-3.66h0a3.37,3.37,0,0,0-3.65,3.07Z"/><path class="cls-5" d="M872.11,1025a3.37,3.37,0,0,0,3.07,3.65h0a3.37,3.37,0,0,0,3.66-3.07l2.31-21.67a3.37,3.37,0,0,0-3.07-3.66h0a3.38,3.38,0,0,0-3.65,3.06Z"/><path class="cls-5" d="M728.64,764.6,828.76,954.82,772,999.26,679.76,857s-73.94,30.24-90.37,30.24h-82.9c-7.85,0-38.84-5.29-45.74-38.09-3.5-16.57-6.54-58.15,49.85-84.53Z"/><path class="cls-4" d="M679.76,857s-5.6-30.53,7.84-54.9"/><line class="cls-4" x1="819.91" y1="938.01" x2="762.38" y2="984.43"/><path class="cls-2" d="M422.47,502.59S424.89,525.74,424,539s-12.14,24.09-12.14,24.09,17.93,29.31,59,21.66c17.83-3.32,19.6-19.42,17-23.15s-18.49-15.81-18.49-59Z"/><path class="cls-6" d="M424.17,531.18c-.07-12.94-1.7-28.59-1.7-28.59h46.86c0,43.2,15.87,55.27,18.49,59,1.24,1.78,1.46,6.37-.55,11C457.25,568,434,543.42,424.17,531.18Z"/><path class="cls-4" d="M422.47,502.59S424.89,525.74,424,539s-12.14,24.09-12.14,24.09,17.93,29.31,59,21.66c17.83-3.32,19.6-19.42,17-23.15s-18.49-15.81-18.49-59Z"/><path class="cls-7" d="M497.88,397.43c33.07,19.46,65.18,69.34,6.18,77.91h-18.3V397.43Z"/><path class="cls-5" d="M486.79,409.42c21.94,14.38,26.61,35,26.61,56.85s-.14,22.55,1,33.75-9.46,39.72-23.2,42c-15.69,2.59-50.74-5-66.15-29.25-17.36-5.6-31.42-19.57-32.82-55.73C390.53,413.34,444.36,381.61,486.79,409.42Z"/><path class="cls-7" d="M500.14,399c7.35,5.51-2.06,43.31-36.23,65.16-31.51,20.15-58.25,21.66-58.25,21.66s-20.79.89-24.27-13.82c-5-21.29-.56-55.82,35.47-75.43C448.29,379.44,486.7,388.89,500.14,399Z"/><path class="cls-2" d="M419.71,487s-6.86-12.33-17.78-11.62-6.87,17.92,0,26.6,18.34,11.35,23.1,10.78A72.41,72.41,0,0,0,419.71,487Z"/><path class="cls-4" d="M419.71,487s-6.86-12.33-17.78-11.62-6.87,17.92,0,26.6,18.34,11.35,23.1,10.78"/><path class="cls-8" d="M462.89,479.72c0,3.36,2.13,6.08,4.76,6.08s4.76-2.72,4.76-6.08-2.13-6.07-4.76-6.07S462.89,476.37,462.89,479.72Z"/><path class="cls-8" d="M502.48,479.72c0,2.95,1.73,5.33,3.87,5.33s3.87-2.38,3.87-5.33-1.73-5.33-3.87-5.33S502.48,476.78,502.48,479.72Z"/><path class="cls-4" d="M495.19,504.36s3.22-1.82,1.54-7.14"/><path class="cls-4" d="M496.2,519.21a26,26,0,0,1-19.49-2.66"/><path class="cls-4" d="M475.44,464.45s-5-2.66-16.93,0"/><path class="cls-4" d="M502.48,463.27a15.74,15.74,0,0,1,7.13-1.76"/><path class="cls-5" d="M514.45,534.52H496.2A14,14,0,0,0,486,538.25c-2.8,2.71-9.62,7.75-11.2,9.06s-4.3,2.61-3.92,3.92,4.69,4.43,10.38,2.17,8.38-4.41,10.25-5.06,7-.66,7-.66v25c0,1.87,12,15.31,14.19,16.53s8.69.47,10.18,0S534.68,586,534.68,586s20,67.81,24.09,82.19,24.46,25.07,37,23.74,14.19-22.63,12.7-32.33-57-96.24-59.94-99.66S517.2,534.52,514.45,534.52Z"/><polygon class="cls-9" points="528.8 753.4 627.39 753.4 618.7 764.6 520.12 764.6 528.8 753.4"/><polygon class="cls-5" points="618.7 764.6 792.35 764.6 838.56 619.52 664.92 619.52 618.7 764.6"/><path class="cls-10" d="M733.4,708.72l6.6-3.63c15.7-8.62,17.42-14.92,18.07-17.29,1.55-5.71-1.81-10.34-7.52-10.34a14,14,0,0,0-9.87,4.63,7.5,7.5,0,0,0-7.35-4.63c-5.71,0-11.61,4.63-13.16,10.34-.65,2.37-2.37,8.67,8.61,17.29Z"/><path class="cls-2" d="M425,680.35l6.86,47.51,107.83,19.89s20.45-24.93,22.13-26.47,19-4.48,21.29-4.48,20.58,9.1,23.52,11.2,7.85,18.07,8.68,19.75,1.41,5.6-2.1,5.6h-21.7c-2.1,0-22.13,15.26-26,18.34s-8.82,7.15-28.29,3.08c-16.52.71-104.84.25-118.28-.13s-23.72-3-27.27-15.68-20.72-78.61-20.72-78.61Z"/><path class="cls-6" d="M428.23,702.47c-6.9,3.23-21.54,8.79-48,13.45-4.84-18.46-9.3-35.57-9.3-35.57H425Z"/><path class="cls-4" d="M425,680.35l6.86,47.51,107.83,19.89s20.45-24.93,22.13-26.47,19-4.48,21.29-4.48,20.58,9.1,23.52,11.2,7.85,18.07,8.68,19.75,1.41,5.6-2.1,5.6h-21.7c-2.1,0-22.13,15.26-26,18.34s-8.82,7.15-28.29,3.08c-16.52.71-104.84.25-118.28-.13s-23.72-3-27.27-15.68-20.72-78.61-20.72-78.61Z"/><path class="cls-2" d="M425,637.12l4.72,53.5s-42.76,3-70.58,0c0,0-5.73-53.51,5.25-89.49C372.61,601.74,421.9,590.91,425,637.12Z"/><path class="cls-4" d="M425,637.12l4.72,53.5s-42.76,3-70.58,0c0,0-5.73-53.51,5.25-89.49"/><path class="cls-2" d="M349.27,613.29,360,622.17s-46.53,18.22-29.72,67.51c18.37,53.88,99.71,72.83,178.13,100.83s136.91,79.91,158,152.36c19.63,67.46-10.92,134.93-68.14,143.89-14-1.91-258.45-42.69-258.45-42.69L276.08,728.41C273.09,643.17,349.27,613.29,349.27,613.29Z"/><path class="cls-4" d="M585.09,1087.76c65.54,0,102.34-72.44,81.25-144.89s-79.57-124.35-158-152.36-159.76-47-178.13-100.83C313.42,640.39,360,622.17,360,622.17"/><path class="cls-11" d="M189.05,359.47c0,16.06,12.66,29.08,28.28,29.08s28.27-13,28.27-29.08-12.66-29.08-28.27-29.08S189.05,343.41,189.05,359.47Z"/><line class="cls-4" x1="217.33" y1="398.65" x2="217.33" y2="409.47"/><line class="cls-4" x1="198.28" y1="393.4" x2="193.02" y2="402.77"/><line class="cls-4" x1="184.34" y1="379.06" x2="175.23" y2="384.47"/><line class="cls-4" x1="179.24" y1="359.47" x2="168.72" y2="359.47"/><line class="cls-4" x1="184.34" y1="339.87" x2="175.23" y2="334.46"/><line class="cls-4" x1="198.28" y1="325.53" x2="193.02" y2="316.16"/><line class="cls-4" x1="217.33" y1="320.29" x2="217.33" y2="309.46"/><line class="cls-4" x1="236.37" y1="325.53" x2="241.63" y2="316.16"/><line class="cls-4" x1="250.32" y1="339.88" x2="259.42" y2="334.46"/><line class="cls-4" x1="255.42" y1="359.47" x2="265.94" y2="359.47"/><line class="cls-4" x1="250.31" y1="379.06" x2="259.42" y2="384.47"/><line class="cls-4" x1="236.37" y1="393.4" x2="241.63" y2="402.77"/><line class="cls-1" x1="217.02" x2="217.02" y2="292"/><path class="cls-12" d="M304.54,366.17c16.48,0,18.93-8,5.44-17.71l-68.12-49.17c-13.5-9.73-35.57-9.73-49.06,0l-68.13,49.17c-13.49,9.74-11,17.71,5.44,17.71Z"/><path class="cls-13" d="M231.33,998.11c18.51-12.74,7.32-33.77,15.89-47.7s3.06-28.22-5.71-37.4-10.94-16.71-4.74-29.72-.79-28.9-6.61-36.17S210.31,829.83,204.64,799s-47.3-44.92-47.3-44.92S130.56,788.94,143,817.72s6.31,44.89,5.5,54.17,2.22,26.38,14.59,33.76,14.77,14.84,12.57,27.35,1.14,27.46,16,34.27S208.86,997.79,231.33,998.11Z"/><line class="cls-4" x1="231.33" y1="998.11" x2="157.34" y2="754.09"/><line class="cls-4" x1="218.45" y1="955.64" x2="233.51" y2="926.39"/><line class="cls-4" x1="215.74" y1="947.29" x2="185.15" y2="935.21"/><line class="cls-4" x1="175.73" y1="815.48" x2="150.62" y2="805.58"/><line class="cls-4" x1="197.04" y1="885.35" x2="156.56" y2="869.38"/><line class="cls-4" x1="199.06" y1="891.69" x2="218.03" y2="854.82"/><line class="cls-4" x1="179" y1="825.54" x2="190.63" y2="802.98"/><path class="cls-5" d="M234.74,986.24c-17.16-11.59-7-31-15.05-43.81s-3.07-26,4.94-34.5,9.93-15.5,4.11-27.42.48-26.63,5.78-33.39,18.13-16.1,23.09-44.53,43.19-41.8,43.19-41.8,25,31.87,13.8,58.49-5.42,41.42-4.6,50-1.81,24.32-13.15,31.22-13.47,13.8-11.33,25.31-.82,25.31-14.46,31.71S255.45,985.75,234.74,986.24Z"/><line class="cls-4" x1="234.74" y1="986.24" x2="300.8" y2="760.79"/><line class="cls-4" x1="246.24" y1="947" x2="232.11" y2="920.18"/><line class="cls-4" x1="248.66" y1="939.29" x2="276.75" y2="927.9"/><line class="cls-4" x1="284.39" y1="817.51" x2="307.43" y2="808.17"/><line class="cls-4" x1="265.37" y1="882.06" x2="302.51" y2="867"/><line class="cls-4" x1="263.55" y1="887.92" x2="245.76" y2="854.12"/><line class="cls-4" x1="281.46" y1="826.8" x2="270.55" y2="806.12"/><path class="cls-13" d="M254,990c-6.22-10,3.53-17.7,2.32-26.16s4.4-14.16,10.52-16.73,8.72-5.73,8.45-13.25,6.4-13.67,10.71-16,13.1-4.15,22.23-17.73,32-11.67,32-11.67,5.57,22.27-6.36,33.47S321.5,942.13,320,946.75s-6.54,12.17-14,13.13-10.17,4-11.71,10.49-6.27,12.91-14.81,13.08S264.81,994.48,254,990Z"/><line class="cls-4" x1="253.98" y1="989.96" x2="340.23" y2="888.47"/><line class="cls-4" x1="268.99" y1="972.29" x2="267.87" y2="955.14"/><line class="cls-4" x1="272.03" y1="968.86" x2="289.19" y2="969.44"/><line class="cls-4" x1="318.63" y1="914.05" x2="332.72" y2="914.53"/><line class="cls-4" x1="293.88" y1="943.08" x2="316.59" y2="943.86"/><line class="cls-4" x1="291.59" y1="945.7" x2="290.18" y2="924.09"/><line class="cls-4" x1="314.97" y1="918.18" x2="314.1" y2="904.95"/><path class="cls-5" d="M213.52,990c6.21-10-3.53-17.7-2.32-26.16s-4.41-14.16-10.52-16.73-8.72-5.73-8.46-13.25-6.4-13.67-10.7-16-13.11-4.15-22.24-17.73-32-11.67-32-11.67-5.58,22.27,6.35,33.47,12.37,20.19,13.92,24.81,6.55,12.17,14,13.13,10.17,4,11.72,10.49,6.26,12.91,14.8,13.08S202.68,994.48,213.52,990Z"/><line class="cls-4" x1="213.52" y1="989.96" x2="127.27" y2="888.47"/><line class="cls-4" x1="198.51" y1="972.29" x2="199.63" y2="955.14"/><line class="cls-4" x1="195.47" y1="968.86" x2="178.3" y2="969.44"/><line class="cls-4" x1="148.86" y1="914.05" x2="134.77" y2="914.53"/><line class="cls-4" x1="173.61" y1="943.08" x2="150.9" y2="943.86"/><line class="cls-4" x1="175.9" y1="945.7" x2="177.31" y2="924.09"/><line class="cls-4" x1="152.52" y1="918.18" x2="153.39" y2="904.95"/><polygon class="cls-5" points="182.91 1062.71 284.58 1062.71 300.99 973.54 166.51 973.54 182.91 1062.71"/><rect class="cls-5" x="289.61" y="1035.13" width="12.77" height="67.53"/><rect class="cls-5" x="165.11" y="1035.13" width="12.77" height="67.53"/><rect class="cls-5" x="177.88" y="1062.71" width="111.73" height="11.77"/><rect class="cls-5" x="227.36" y="1035.13" width="12.77" height="67.53"/><line class="cls-4" x1="852.94" y1="546.08" x2="844.37" y2="554.66"/><line class="cls-4" x1="844.37" y1="546.08" x2="852.94" y2="554.66"/><line class="cls-14" x1="139.06" y1="641.9" x2="130.48" y2="650.48"/><line class="cls-14" x1="130.48" y1="641.9" x2="139.06" y2="650.48"/><circle class="cls-4" cx="643.94" cy="510.52" r="6.15"/><circle class="cls-4" cx="253.98" cy="591.65" r="6.15"/><polygon class="cls-4" points="573.76 268.9 559.22 271.2 568.48 282.65 573.76 268.9"/><polygon class="cls-4" points="85.7 456.99 100.23 459.29 90.97 470.73 85.7 456.99"/><path class="cls-4" d="M255,499c-4.83,0-4.83,3.61-9.65,3.61s-4.83-3.61-9.65-3.61-4.83,3.61-9.67,3.61-4.82-3.61-9.65-3.61-4.84,3.61-9.68,3.61S201.83,499,197,499"/><path class="cls-14" d="M764.74,378.1c-4.83,0-4.83,3.61-9.65,3.61s-4.83-3.61-9.66-3.61-4.83,3.61-9.65,3.61-4.83-3.61-9.67-3.61-4.83,3.61-9.67,3.61-4.84-3.61-9.68-3.61"/><path class="cls-14" d="M384.49,334.18l2.27-1.46c5.4-3.48,5.41-6,5.42-7a4.16,4.16,0,0,0-7.64-2.3,4.18,4.18,0,0,0-7.66,2.3c0,1,0,3.51,5.35,7Z"/></g></g></svg>