<svg xmlns="http://www.w3.org/2000/svg" viewBox="0 0 854.92 584.16"><defs><style>.cls-1{fill:#a4fff6;}</style></defs><title>Asset 10</title><g id="Layer_2" data-name="Layer 2"><g id="Layer_1-2" data-name="Layer 1"><path class="cls-1" d="M89.19,584.16C29.89,582.71-29.63,504.93,33.62,452c11-9.18,37.34-34.44,26.09-43.32-78.62-62-46.46-134.35-8.11-148.75,51.4-19.3,84.41-31.37,67.61-68.73C76.59,96.43,210.09,58.58,266.44,91.38c72.37,42.12,93.3-7.63,100.58-30.33C392.17-17.3,516-11.73,565.74,30.11c29.77,25,29.5,45.5,33.44,74.75,4.87,36.18,41.88,43.55,80.47,41,37.58-2.44,65.85,11.8,75.42,37.39,16.66,44.56-26.87,86-1,119.35,8.39,10.81,22.61,15.74,34.79,22.65,34.18,19.39,54.19,58.88,48.72,96.15-4.75,32.33-31,62.47-24.64,94.57,9.33,47.36-45.72,68.53-82.68,68.15S89.19,584.16,89.19,584.16Z"/><path class="cls-1" d="M258.42.26c21-2.48,32.34,16,35.27,34.33,1.17,7.33-.13,15.42-5.15,20.88-7.28,7.92-19.56,8-30.29,7.21-7.43-.56-15-1.34-21.73-4.62S224.15,48.44,223.7,41C222.76,25.23,242.75,2.11,258.42.26Z"/><path class="cls-1" d="M651.39,122.77c4.17,4.34,10.2,6.33,16.07,7.61,9.23,2,19,2.65,28,0,5.58-1.66,11.07-4.86,13.7-10.07,1.85-3.67,2.08-7.91,2.28-12,1-21.1-7.75-50.74-35.24-44.35C655.71,68.67,634.54,105.25,651.39,122.77Z"/><path class="cls-1" d="M798.45,271.61c-5.75-9.56-17.83-14.78-22.38-24.91-8.1-18,5.39-38.67,23.32-42.77,47.82-11,70.5,65.17,44.83,95.9-7.2,8.62-21.65,9.83-30.18,2.53C804.81,294.45,804.4,281.49,798.45,271.61Z"/><path class="cls-1" d="M19.19,194.93c2.24-5.77.83-11.52,1-17.46.1-5.39,1.37-8.67,7.12-9.66,9.43-1.63,16.59,6.31,21.58,13.1,3.35,4.54,6.54,9.33,8.2,14.72a38.79,38.79,0,0,1,1.44,12.78,19.17,19.17,0,0,1-1.36,7.21c-1.39,3.13-4.06,5.46-6.69,7.66-6,5-12.19,9.86-19.4,12.78s-15.61,3.68-22.68.44C5,234.94,1.9,232.35.64,228.85c-1.77-4.91.39-10.4,3.39-14.68C8.62,207.6,16.24,202.53,19.19,194.93Z"/></g></g></svg>