<svg xmlns="http://www.w3.org/2000/svg" xmlns:xlink="http://www.w3.org/1999/xlink" viewBox="0 0 1539.86 1632.15"><defs><style>.cls-1{fill:url(#linear-gradient);}.cls-2{fill:url(#Degradado_sin_nombre_9);}.cls-3{fill:url(#linear-gradient-2);}.cls-4,.cls-7{fill:#fff;}.cls-4{opacity:0.29;}.cls-5{fill:url(#Degradado_sin_nombre_4);}.cls-6{opacity:0.3;}.cls-8{fill:url(#Degradado_sin_nombre_9-2);}.cls-9{fill:#134261;}.cls-10{opacity:0.46;}.cls-11{fill:none;}.cls-12{opacity:0.75;}.cls-13{fill:url(#Degradado_sin_nombre_11);}.cls-14{fill:#2d1e56;}.cls-15{fill:url(#Degradado_sin_nombre_4-2);}.cls-16{fill:url(#Degradado_sin_nombre_3);}.cls-17,.cls-18,.cls-19{opacity:0.47;}.cls-17{fill:url(#Degradado_sin_nombre_21);}.cls-18{fill:url(#Degradado_sin_nombre_21-2);}.cls-19{fill:url(#Degradado_sin_nombre_17);}.cls-20{fill:url(#Degradado_sin_nombre_16);}.cls-21{fill:url(#Degradado_sin_nombre_15);}.cls-22{fill:url(#Degradado_sin_nombre_14);}.cls-23{fill:url(#Degradado_sin_nombre_13);}.cls-24{fill:url(#Degradado_sin_nombre_13-2);}.cls-25{fill:url(#Degradado_sin_nombre_12);}.cls-26{fill:url(#Degradado_sin_nombre_33);}.cls-27{fill:#f95f8f;}.cls-28{fill:#e24d83;}.cls-29{fill:#bad8d8;}.cls-30{fill:#9ab7b6;}.cls-31{fill:#f2f7f7;}.cls-32{fill:#e2e8e8;}.cls-33{fill:#685baa;}.cls-34{fill:#627f7e;}.cls-35{fill:#d4d2ff;}.cls-36{opacity:0.64;}.cls-37{fill:url(#Degradado_sin_nombre_69);}.cls-38{fill:url(#Degradado_sin_nombre_5);}.cls-39,.cls-40{opacity:0.56;}.cls-39{fill:url(#Degradado_sin_nombre_5-2);}.cls-40{fill:url(#Degradado_sin_nombre_5-3);}</style><linearGradient id="linear-gradient" x1="1456.04" y1="379.49" x2="-94.7" y2="1274.81" gradientUnits="userSpaceOnUse"><stop offset="0" stop-color="#21d4fd"/><stop offset="0.64" stop-color="#835ffe"/><stop offset="1" stop-color="#b721ff"/></linearGradient><linearGradient id="Degradado_sin_nombre_9" x1="286.72" y1="1292.72" x2="1044.21" y2="1199.4" gradientUnits="userSpaceOnUse"><stop offset="0" stop-color="#ccc"/><stop offset="1" stop-color="#fff"/></linearGradient><linearGradient id="linear-gradient-2" x1="570.89" y1="1104.14" x2="581.67" y2="1317" gradientUnits="userSpaceOnUse"><stop offset="0" stop-color="#49b7e0"/><stop offset="0" stop-color="#21d4fd"/><stop offset="1" stop-color="#a0ecf2"/></linearGradient><linearGradient id="Degradado_sin_nombre_4" x1="593.32" y1="1283.78" x2="586.27" y2="1407.06" gradientUnits="userSpaceOnUse"><stop offset="0" stop-color="#fff" stop-opacity="0"/><stop offset="1" stop-color="#fff"/></linearGradient><linearGradient id="Degradado_sin_nombre_9-2" x1="589.82" y1="1366.61" x2="579.37" y2="1518.88" xlink:href="#Degradado_sin_nombre_9"/><linearGradient id="Degradado_sin_nombre_11" x1="465.87" y1="1079.03" x2="463.08" y2="924.16" gradientUnits="userSpaceOnUse"><stop offset="0" stop-color="#fff" stop-opacity="0"/><stop offset="1" stop-color="#fff"/></linearGradient><linearGradient id="Degradado_sin_nombre_4-2" x1="479.75" y1="1338.37" x2="486.12" y2="1242.92" xlink:href="#Degradado_sin_nombre_4"/><linearGradient id="Degradado_sin_nombre_3" x1="1000.79" y1="2189.79" x2="984.33" y2="2161.41" gradientTransform="translate(1077.04 -1211.33) rotate(36.86)" gradientUnits="userSpaceOnUse"><stop offset="0.14" stop-color="#42287c"/><stop offset="1" stop-color="#714091"/></linearGradient><linearGradient id="Degradado_sin_nombre_21" x1="350.7" y1="848.8" x2="350.7" y2="451.94" gradientTransform="translate(337.5 481.07) rotate(30.13)" gradientUnits="userSpaceOnUse"><stop offset="0" stop-color="#f927ff" stop-opacity="0"/><stop offset="0.21" stop-color="#f927ff" stop-opacity="0.01"/><stop offset="0.35" stop-color="#f927ff" stop-opacity="0.04"/><stop offset="0.46" stop-color="#f927ff" stop-opacity="0.1"/><stop offset="0.56" stop-color="#f927ff" stop-opacity="0.18"/><stop offset="0.66" stop-color="#f927ff" stop-opacity="0.29"/><stop offset="0.75" stop-color="#f927ff" stop-opacity="0.42"/><stop offset="0.83" stop-color="#f927ff" stop-opacity="0.57"/><stop offset="0.91" stop-color="#f927ff" stop-opacity="0.75"/><stop offset="0.98" stop-color="#f927ff" stop-opacity="0.95"/><stop offset="1" stop-color="#f927ff"/></linearGradient><linearGradient id="Degradado_sin_nombre_21-2" x1="3962.01" y1="170.72" x2="3962.01" y2="-213.39" gradientTransform="translate(2193.35 4891.49) rotate(-107.27)" xlink:href="#Degradado_sin_nombre_21"/><linearGradient id="Degradado_sin_nombre_17" x1="3724.43" y1="-244.4" x2="3724.43" y2="-351.64" gradientTransform="matrix(0.43, -0.9, 0.9, 0.43, -348.4, 4362.05)" gradientUnits="userSpaceOnUse"><stop offset="0" stop-color="#f927ff" stop-opacity="0"/><stop offset="0.18" stop-color="#f62aff" stop-opacity="0.01"/><stop offset="0.31" stop-color="#ed32ff" stop-opacity="0.05"/><stop offset="0.43" stop-color="#dd3fff" stop-opacity="0.11"/><stop offset="0.54" stop-color="#c752ff" stop-opacity="0.2"/><stop offset="0.64" stop-color="#aa6bff" stop-opacity="0.32"/><stop offset="0.74" stop-color="#878aff" stop-opacity="0.46"/><stop offset="0.83" stop-color="#5daeff" stop-opacity="0.63"/><stop offset="0.92" stop-color="#2ed7ff" stop-opacity="0.82"/><stop offset="1" stop-color="aqua"/></linearGradient><linearGradient id="Degradado_sin_nombre_16" x1="611.89" y1="1548.99" x2="611.89" y2="1170.36" gradientUnits="userSpaceOnUse"><stop offset="0" stop-color="#9f28bc" stop-opacity="0"/><stop offset="0.1" stop-color="#ab31bd" stop-opacity="0.12"/><stop offset="0.44" stop-color="#ce4bc1" stop-opacity="0.49"/><stop offset="0.71" stop-color="#e95ec4" stop-opacity="0.77"/><stop offset="0.9" stop-color="#f96ac6" stop-opacity="0.94"/><stop offset="1" stop-color="#ff6fc7"/></linearGradient><linearGradient id="Degradado_sin_nombre_15" x1="611.89" y1="1548.99" x2="611.89" y2="1170.36" gradientUnits="userSpaceOnUse"><stop offset="0" stop-color="#9f28bc" stop-opacity="0"/><stop offset="0.1" stop-color="#ab36bd" stop-opacity="0.12"/><stop offset="0.44" stop-color="#ce63c1" stop-opacity="0.49"/><stop offset="0.71" stop-color="#e983c4" stop-opacity="0.77"/><stop offset="0.9" stop-color="#f997c5" stop-opacity="0.94"/><stop offset="1" stop-color="#ff9fc6"/></linearGradient><linearGradient id="Degradado_sin_nombre_14" x1="611.89" y1="1548.99" x2="611.89" y2="1170.36" gradientUnits="userSpaceOnUse"><stop offset="0" stop-color="#9f28bc" stop-opacity="0"/><stop offset="0.1" stop-color="#ab3aa5" stop-opacity="0.12"/><stop offset="0.44" stop-color="#ce715f" stop-opacity="0.49"/><stop offset="0.71" stop-color="#e99a2c" stop-opacity="0.77"/><stop offset="0.9" stop-color="#f9b30c" stop-opacity="0.94"/><stop offset="1" stop-color="#ffbd00"/></linearGradient><linearGradient id="Degradado_sin_nombre_13" x1="611.89" y1="1548.99" x2="611.89" y2="1170.36" gradientUnits="userSpaceOnUse"><stop offset="0" stop-color="#9f28bc" stop-opacity="0"/><stop offset="0.1" stop-color="#ab42a5" stop-opacity="0.12"/><stop offset="0.44" stop-color="#ce925f" stop-opacity="0.49"/><stop offset="0.71" stop-color="#e9cd2c" stop-opacity="0.77"/><stop offset="0.9" stop-color="#f9f10c" stop-opacity="0.94"/><stop offset="1" stop-color="#ff0"/></linearGradient><linearGradient id="Degradado_sin_nombre_13-2" x1="611.89" y1="1548.99" x2="611.89" y2="1258.63" xlink:href="#Degradado_sin_nombre_13"/><linearGradient id="Degradado_sin_nombre_12" x1="611.89" y1="1548.99" x2="611.89" y2="1258.63" gradientUnits="userSpaceOnUse"><stop offset="0" stop-color="#9f28bc" stop-opacity="0"/><stop offset="0.1" stop-color="#ab42b6" stop-opacity="0.12"/><stop offset="0.44" stop-color="#ce92a2" stop-opacity="0.49"/><stop offset="0.71" stop-color="#e9cd94" stop-opacity="0.77"/><stop offset="0.9" stop-color="#f9f18b" stop-opacity="0.94"/><stop offset="1" stop-color="#ff8"/></linearGradient><linearGradient id="Degradado_sin_nombre_33" x1="611.89" y1="1548.99" x2="611.89" y2="1258.63" gradientUnits="userSpaceOnUse"><stop offset="0" stop-color="#fff" stop-opacity="0"/><stop offset="0.15" stop-color="#fff" stop-opacity="0.01"/><stop offset="0.28" stop-color="#fff" stop-opacity="0.06"/><stop offset="0.4" stop-color="#fff" stop-opacity="0.13"/><stop offset="0.51" stop-color="#fff" stop-opacity="0.22"/><stop offset="0.63" stop-color="#fff" stop-opacity="0.35"/><stop offset="0.74" stop-color="#fff" stop-opacity="0.51"/><stop offset="0.85" stop-color="#fff" stop-opacity="0.69"/><stop offset="0.96" stop-color="#fff" stop-opacity="0.9"/><stop offset="1" stop-color="#fff"/></linearGradient><linearGradient id="Degradado_sin_nombre_69" x1="-336.38" y1="439.43" x2="-321.76" y2="666.98" gradientTransform="matrix(-0.71, -0.71, -0.71, 0.71, 667.95, 323.64)" gradientUnits="userSpaceOnUse"><stop offset="0" stop-color="#a12ac2" stop-opacity="0"/><stop offset="0.12" stop-color="#b631c1" stop-opacity="0.23"/><stop offset="0.25" stop-color="#c938c1" stop-opacity="0.43"/><stop offset="0.37" stop-color="#d93dc0" stop-opacity="0.61"/><stop offset="0.5" stop-color="#e642c0" stop-opacity="0.75"/><stop offset="0.62" stop-color="#f045bf" stop-opacity="0.86"/><stop offset="0.75" stop-color="#f748bf" stop-opacity="0.94"/><stop offset="0.87" stop-color="#fc4abf" stop-opacity="0.98"/><stop offset="1" stop-color="#fd4abf"/></linearGradient><linearGradient id="Degradado_sin_nombre_5" x1="-449.21" y1="837.49" x2="-440.01" y2="980.67" gradientTransform="matrix(-0.71, -0.71, -0.71, 0.71, 667.95, 323.64)" gradientUnits="userSpaceOnUse"><stop offset="0" stop-color="#a12ac2" stop-opacity="0"/><stop offset="0.04" stop-color="#a72cc2" stop-opacity="0.06"/><stop offset="0.25" stop-color="#c035c1" stop-opacity="0.34"/><stop offset="0.45" stop-color="#d63cc0" stop-opacity="0.58"/><stop offset="0.63" stop-color="#e742c0" stop-opacity="0.76"/><stop offset="0.78" stop-color="#f347bf" stop-opacity="0.89"/><stop offset="0.91" stop-color="#fa49bf" stop-opacity="0.97"/><stop offset="1" stop-color="#fd4abf"/></linearGradient><linearGradient id="Degradado_sin_nombre_5-2" x1="-735.8" y1="259.89" x2="-724.61" y2="434.12" xlink:href="#Degradado_sin_nombre_5"/><linearGradient id="Degradado_sin_nombre_5-3" x1="-975.59" y1="521.65" x2="-967.77" y2="643.42" xlink:href="#Degradado_sin_nombre_5"/></defs><title>Asset 3</title><g id="Layer_2" data-name="Layer 2"><g id="Layer_1-2" data-name="Layer 1"><path class="cls-1" d="M1046.13,1446.07H998.78a524.26,524.26,0,0,0,52.19-74.63l488.89-846.78L631.12,0,273.52,619.39H17.72A17.72,17.72,0,0,0,0,637.11H0a17.72,17.72,0,0,0,17.72,17.72H253.06l-6,10.42H107.38a7.3,7.3,0,1,0,0,14.6H238.61L142.23,846.78C40.35,1023.24,53.39,1234.51,158.11,1394h-69a12,12,0,1,0,0,24h85.71c2.07,2.79,4.17,5.58,6.3,8.34H9.9a9.9,9.9,0,1,0,0,19.8H197.24A520.2,520.2,0,0,0,333,1558.81l5.92,3.42c212.86,122.89,476.37,78.58,638.46-92.18h68.73a12,12,0,0,0,0-24Z"/><path class="cls-2" d="M313.9,1110v318.75H857.54V1110a30.4,30.4,0,0,0-30.41-30.41H344.31A30.4,30.4,0,0,0,313.9,1110Z"/><rect class="cls-3" x="338.59" y="1110.06" width="481.97" height="330.99"/><polygon class="cls-4" points="340.87 1428.71 647.78 1079.55 719.52 1079.55 416.39 1428.71 340.87 1428.71"/><polygon class="cls-4" points="447.71 1428.71 747.82 1079.55 773.08 1079.55 473.84 1428.71 447.71 1428.71"/><path class="cls-5" d="M278.44,1425.91c-1.31-39.77,21.57-85.18,56.86-102s80.08-10,109,16.68c10.78,9.92,20.81,23,35.21,24.65,20.18,2.36,36.46-19,56.73-20.16,27-1.6,44.68,31.85,71.41,36.36,19.8,3.35,39-10.11,59-9.59,14.69.38,28.58,8.24,43.26,7.78,27.69-.88,46.15-29.58,71.65-40.65,25.28-11,56.06-2.69,76.35,16.23s31,46.79,34.17,74.68Z"/><g class="cls-6"><path class="cls-7" d="M892.08,1424.48c1.29-54-21.09-115.75-55.58-138.57s-78.29-13.51-106.56,22.66c-10.54,13.48-20.34,31.2-34.42,33.49-19.73,3.21-35.64-25.77-55.46-27.39-26.44-2.16-43.67,43.28-69.8,49.41-19.36,4.54-38.1-13.74-57.71-13-14.35.52-27.94,11.21-42.29,10.58-27.06-1.19-45.11-40.19-70-55.24-24.71-14.92-54.8-3.65-74.63,22.06s-30.32,63.57-33.4,101.47Z"/></g><path class="cls-8" d="M278.44,1425.91H893c0,16.72-19.08,30.28-42.62,30.28H321.05c-19.69,0-36.26-9.49-41.15-22.39a22.21,22.21,0,0,1-1.46-7.89Z"/><path class="cls-9" d="M506.57,1425.91h0a7.47,7.47,0,0,0,7.35,7.47l143.36,2.27a7.46,7.46,0,0,0,7.55-8.22l-.16-1.52Z"/><g class="cls-10"><path class="cls-11" d="M575.65,1159.05l36.42,1"/></g><g class="cls-12"><path class="cls-13" d="M419.93,970.19c30.78.48,61.51,4.42,92.25,2.29,15.92-1.11,33.15-3.72,44.53-17.37,10.86-13,13.49-35.15,6.13-51.43s-24.1-25.32-38.91-21c-15.79,4.59-30.18,22.4-45.66,16.48-10.93-4.17-18.71-19.62-30.13-18.54-11.89,1.12-17.31,19-27.6,26.36-8.75,6.29-19.7,4.18-29.82,3s-21.88-.19-28.05,9.67c-7.08,11.31-2.22,29,7.26,37.25C369.93,956.94,389.17,969.72,419.93,970.19Z"/></g><polygon class="cls-14" points="656.87 885.22 669.84 878.22 668.74 892.92 675.73 905.89 661.03 904.78 648.06 911.77 649.17 897.08 642.18 884.11 656.87 885.22"/><g class="cls-6"><path class="cls-15" d="M451.92,1304.51c22.62.29,45.2,2.66,67.79,1.38,11.7-.67,24.37-2.24,32.73-10.45a25.84,25.84,0,0,0-24.09-43.57c-11.6,2.76-22.17,13.48-33.56,9.92-8-2.51-13.75-11.8-22.14-11.15-8.74.67-12.72,11.4-20.28,15.85-6.43,3.78-14.48,2.51-21.91,1.83s-16.08-.11-20.62,5.82c-5.21,6.8-1.63,17.41,5.33,22.4C415.17,1296.54,429.32,1304.23,451.92,1304.51Z"/></g><polygon class="cls-16" points="565.78 1113.71 572.94 1109.84 572.33 1117.96 576.19 1125.13 568.08 1124.51 560.91 1128.38 561.52 1120.26 557.66 1113.1 565.78 1113.71"/><circle class="cls-17" cx="314.41" cy="1219.62" r="198.43" transform="translate(-770.31 579.54) rotate(-45)"/><circle class="cls-18" cx="996.6" cy="1114.31" r="192.06" transform="translate(-496.04 1031.07) rotate(-45)"/><circle class="cls-19" cx="996.67" cy="876.07" r="53.62" transform="translate(-186.35 1477.16) rotate(-68.25)"/><rect class="cls-20" x="569.43" y="1170.36" width="84.91" height="378.63"/><rect class="cls-21" x="578.27" y="1170.36" width="67.24" height="378.63"/><rect class="cls-22" x="588.12" y="1170.36" width="47.55" height="378.63"/><rect class="cls-23" x="593.8" y="1170.36" width="36.18" height="378.63"/><rect class="cls-24" x="597.21" y="1258.63" width="29.35" height="290.36"/><rect class="cls-25" x="601.09" y="1258.63" width="21.6" height="290.36"/><rect class="cls-26" x="604.69" y="1258.63" width="14.4" height="290.36"/><path class="cls-27" d="M593.8,1191.89c-13.29,2.22-82,22.16-84.18,98.21-27.32-87.87,14.52-146.2,53-158.75Z"/><path class="cls-27" d="M630,1191.89c13.29,2.22,82,22.16,84.18,98.21,27.32-87.87-14.52-146.2-53-158.75Z"/><path class="cls-28" d="M547.54,1213.32c19.11-14.78,39.61-20.32,46.26-21.43l-31.14-60.54c-9.41,3.06-19,8.88-27.77,17.18A557.14,557.14,0,0,0,547.54,1213.32Z"/><path class="cls-28" d="M688.89,1148.53c-8.75-8.3-18.36-14.12-27.77-17.18L630,1191.89c6.65,1.11,27.15,6.65,46.26,21.43A557.14,557.14,0,0,0,688.89,1148.53Z"/><polygon class="cls-29" points="661.12 1270.53 562.66 1270.53 566.48 1231.21 657.3 1231.21 661.12 1270.53"/><polygon class="cls-30" points="657.3 1231.21 641.97 1231.21 645.79 1270.53 661.12 1270.53 657.3 1231.21"/><polygon class="cls-27" points="661.12 1235.27 562.66 1235.27 566.48 1220.69 657.3 1220.69 661.12 1235.27"/><polygon class="cls-28" points="644.25 1235.27 661.12 1235.27 657.3 1220.69 640.94 1220.69 644.25 1235.27"/><path class="cls-7" d="M560.53,996.59c-9.91,23.46-17.31,53.43-17.31,90.82,0,51.5,10.16,98.22,21.3,134h94.74c11.14-35.8,21.3-82.52,21.3-134,0-37.39-7.4-67.36-17.31-90.82Z"/><path class="cls-31" d="M573.87,996.59H560.53c-9.91,23.46-17.31,53.43-17.31,90.82,0,51.5,10.16,98.22,21.3,134h13.34c-11.14-35.8-21.3-82.52-21.3-134C556.56,1050,564,1020.05,573.87,996.59Z"/><path class="cls-32" d="M663.25,996.59H643.8c9.92,23.46,17.32,53.43,17.32,90.82,0,51.5-10.16,98.22-21.3,134h19.44c11.14-35.8,21.3-82.52,21.3-134C680.56,1050,673.16,1020.05,663.25,996.59Z"/><path class="cls-27" d="M560.53,996.59H663.25c-20.35-48.1-51.36-68.67-51.36-68.67S580.88,948.49,560.53,996.59Z"/><path class="cls-28" d="M614.65,930a457.91,457.91,0,0,1,29.21,66.63h19.39C646.55,957.11,622.68,936.19,614.65,930Z"/><circle class="cls-32" cx="606.75" cy="1082.74" r="40.24" transform="translate(-368.16 314.61) rotate(-22.5)"/><circle class="cls-29" cx="611.89" cy="1074.31" r="40.24"/><circle class="cls-33" cx="611.89" cy="1074.31" r="27.93"/><path class="cls-34" d="M614.17,1040.69a2.28,2.28,0,1,1-2.28-2.29A2.28,2.28,0,0,1,614.17,1040.69Z"/><path class="cls-34" d="M589.73,1048.92a2.28,2.28,0,1,1-3.23,0A2.29,2.29,0,0,1,589.73,1048.92Z"/><circle class="cls-34" cx="578.27" cy="1074.31" r="2.28"/><path class="cls-34" d="M586.5,1096.46a2.28,2.28,0,1,1,0,3.23A2.29,2.29,0,0,1,586.5,1096.46Z"/><path class="cls-34" d="M609.61,1107.93a2.28,2.28,0,1,1,2.28,2.28A2.28,2.28,0,0,1,609.61,1107.93Z"/><path class="cls-34" d="M634.05,1099.69a2.28,2.28,0,1,1,3.23,0A2.29,2.29,0,0,1,634.05,1099.69Z"/><circle class="cls-34" cx="645.51" cy="1074.31" r="2.28"/><path class="cls-34" d="M637.28,1052.15a2.28,2.28,0,1,1,0-3.23A2.29,2.29,0,0,1,637.28,1052.15Z"/><path class="cls-27" d="M608.54,1134.27h6.7a1.24,1.24,0,0,1,1.24,1.24v156.8a0,0,0,0,1,0,0H607.3a0,0,0,0,1,0,0v-156.8A1.24,1.24,0,0,1,608.54,1134.27Z"/><path class="cls-35" d="M625.23,1059.31a2.08,2.08,0,1,1-2.08-2.08A2.08,2.08,0,0,1,625.23,1059.31Z"/><g class="cls-36"><path class="cls-37" d="M458.19,987.14a4.16,4.16,0,0,0,5.88,5.88c6-6,139.75-132.93,139.75-132.93S464.21,981.13,458.19,987.14Z"/><path class="cls-38" d="M307.41,1302.51a5,5,0,1,0,7.12,7.12c7.28-7.28,82.78-85.59,82.78-85.59S314.69,1295.23,307.41,1302.51Z"/><path class="cls-39" d="M900.08,1115.51a3.65,3.65,0,1,0,5.15,5.16c5.28-5.28,104.77-103.57,104.77-103.57S905.35,1110.24,900.08,1115.51Z"/><path class="cls-40" d="M918,1447.52a1.47,1.47,0,0,0,0,2.07,1.45,1.45,0,0,0,2.07,0c2.12-2.11,71.43-76.17,71.43-76.17S920.09,1445.41,918,1447.52Z"/></g><path class="cls-7" d="M486.29,1109.84l2.17,4a8.2,8.2,0,0,0,3.25,3.25l4,2.16a.23.23,0,0,1,0,.39l-4,2.16a8.2,8.2,0,0,0-3.25,3.25l-2.17,4a.22.22,0,0,1-.38,0l-2.17-4a8.13,8.13,0,0,0-3.25-3.25l-3.95-2.16a.22.22,0,0,1,0-.39l3.95-2.16a8.13,8.13,0,0,0,3.25-3.25l2.17-4A.22.22,0,0,1,486.29,1109.84Z"/><path class="cls-7" d="M983.24,1219.67l2.17,4a8.2,8.2,0,0,0,3.25,3.25l4,2.16a.23.23,0,0,1,0,.39l-4,2.16a8.2,8.2,0,0,0-3.25,3.25l-2.17,4a.22.22,0,0,1-.38,0l-2.17-4a8.2,8.2,0,0,0-3.25-3.25l-4-2.16a.23.23,0,0,1,0-.39l4-2.16a8.2,8.2,0,0,0,3.25-3.25l2.17-4A.21.21,0,0,1,983.24,1219.67Z"/><path class="cls-7" d="M485.14,1291.15l1.57,2.87a5.87,5.87,0,0,0,2.36,2.35l2.87,1.57a.16.16,0,0,1,0,.28l-2.87,1.57a5.89,5.89,0,0,0-2.36,2.36l-1.57,2.87a.16.16,0,0,1-.28,0l-1.57-2.87a5.89,5.89,0,0,0-2.36-2.36l-2.87-1.57a.16.16,0,0,1,0-.28l2.87-1.57a5.87,5.87,0,0,0,2.36-2.35l1.57-2.87A.16.16,0,0,1,485.14,1291.15Z"/><circle class="cls-7" cx="207.19" cy="1316.14" r="3.21"/><circle class="cls-7" cx="854.63" cy="1099.7" r="3.21"/><path class="cls-7" d="M771.37,1400.58a1.33,1.33,0,1,1-1.33-1.32A1.33,1.33,0,0,1,771.37,1400.58Z"/><path class="cls-7" d="M663.73,941.19a2.39,2.39,0,1,1-3.36.37A2.39,2.39,0,0,1,663.73,941.19Z"/><path class="cls-7" d="M368.76,1047a2.39,2.39,0,1,1-3.35.37A2.38,2.38,0,0,1,368.76,1047Z"/><path class="cls-7" d="M469.79,851.12a2.38,2.38,0,1,1-3.35.37A2.37,2.37,0,0,1,469.79,851.12Z"/><path class="cls-7" d="M889.81,862.44a1.33,1.33,0,1,1-1.33-1.33A1.34,1.34,0,0,1,889.81,862.44Z"/></g></g></svg>