<svg xmlns="http://www.w3.org/2000/svg" viewBox="0 0 255.06 71.98"><defs><style>.cls-1{fill:#9570ee;}</style></defs><title>Asset 5</title><g id="Layer_2" data-name="Layer 2"><g id="DESIGNED_BY_FREEPIK" data-name="DESIGNED BY FREEPIK"><path class="cls-1" d="M255.06,29a29,29,0,0,0-29-29H29a29,29,0,0,0,0,58h14.5l14,14,14-14H226.07A29,29,0,0,0,255.06,29ZM40,13.91h89.16a3.24,3.24,0,0,1,0,6.48H40a3.24,3.24,0,0,1,0-6.48ZM169.68,38.22H40a3.24,3.24,0,0,1,0-6.48H169.68a3.24,3.24,0,0,1,0,6.48Z"/></g></g></svg>