<svg xmlns="http://www.w3.org/2000/svg" xmlns:xlink="http://www.w3.org/1999/xlink" viewBox="0 0 257.64 187.94"><defs><style>.cls-1,.cls-12,.cls-26,.cls-8{fill:none;}.cls-2{fill:#eaebfb;}.cls-3{clip-path:url(#clip-path);}.cls-4{fill:#dfe0f3;}.cls-5{fill:#c7cbe8;}.cls-6{fill:#93b7fa;}.cls-7{fill:#fff;}.cls-8{stroke:#e8e9f9;stroke-linecap:round;stroke-linejoin:round;stroke-width:0.9px;}.cls-9{fill:#e8e9f9;}.cls-10{fill:#c5c9e6;}.cls-11{fill:#3d415b;}.cls-12,.cls-26{stroke:#3d415b;stroke-miterlimit:10;}.cls-12{stroke-width:2.5px;}.cls-13{fill:#e3bc9a;}.cls-14{fill:#d8ac89;}.cls-15{fill:#7c6ef2;}.cls-16{fill:#303348;}.cls-17{fill:#282c3c;}.cls-18{fill:#583bf5;}.cls-19{fill:#ddb28d;}.cls-20{fill:#a9c9fa;}.cls-21{fill:#82a7e7;}.cls-22{fill:#8eb6ec;}.cls-23{fill:#ecf2f5;}.cls-24{fill:#29323d;}.cls-25{fill:#4747cc;}.cls-26{stroke-width:2px;}</style><clipPath id="clip-path"><path class="cls-1" d="M175.18,74.94c-34.49-20.84-50.77-84.87-104-46.61S40,145.21,91,164.22s116.66,8.27,135.13-27C257.73,76.82,198.32,88.92,175.18,74.94Z"/></clipPath></defs><title>Asset 1</title><g id="Layer_2" data-name="Layer 2"><g id="OBJECTS"><path class="cls-2" d="M175.18,74.94c-34.49-20.84-50.77-84.87-104-46.61S40,145.21,91,164.22s116.66,8.27,135.13-27C257.73,76.82,198.32,88.92,175.18,74.94Z"/><g class="cls-3"><path class="cls-4" d="M35.28,149s29.41-29.49,78.53-15.49,78,2,71.95-72.16c0,0,69,9.63,60.19,58.69C235.21,179.6,96.54,202.32,35.28,149Z"/></g><path class="cls-5" d="M99.69,27.84V56.6a4.49,4.49,0,0,1-4.49,4.49H33.87a4.49,4.49,0,0,1-4.49-4.49V27.84a4.48,4.48,0,0,1,4.49-4.48H95.2A4.48,4.48,0,0,1,99.69,27.84Z"/><path class="cls-6" d="M99.69,27.84v2.49H29.38V27.84a4.48,4.48,0,0,1,4.49-4.48H95.2A4.48,4.48,0,0,1,99.69,27.84Z"/><circle class="cls-7" cx="33.34" cy="27.18" r="0.94"/><path class="cls-7" d="M38.05,27.18a.94.94,0,1,1-.94-.95A.94.94,0,0,1,38.05,27.18Z"/><path class="cls-7" d="M41.82,27.18a.94.94,0,1,1-.94-.95A.94.94,0,0,1,41.82,27.18Z"/><rect class="cls-7" x="38.1" y="34.5" width="15.79" height="13.09" rx="0.83"/><path class="cls-7" d="M90,53.72H38.1a1,1,0,0,1-1-1h0a1,1,0,0,1,1-1H90a1,1,0,0,1,1,1h0A1,1,0,0,1,90,53.72Z"/><path class="cls-7" d="M90,46.23H58.5a1,1,0,0,1-1-1h0a1,1,0,0,1,1-1H90a1,1,0,0,1,1,1h0A1,1,0,0,1,90,46.23Z"/><path class="cls-7" d="M78,39.19H58.5a1,1,0,0,1-1-1h0a1,1,0,0,1,1-1H78a1,1,0,0,1,1,1h0A1,1,0,0,1,78,39.19Z"/><path class="cls-8" d="M.45,83A25.22,25.22,0,0,1,2.3,81.05C3.56,80,5,78,9.65,79.45a10.53,10.53,0,0,1,1.06.41,3.41,3.41,0,0,0,3-.85c2.06-1.64,2.87-2.88,5.69-2.91,3.29,0,3.8,4.05,6.36,5.1,1.62.66,5.91,1.33,6.8,1.62Z"/><path class="cls-9" d="M174.82,24.14a50.82,50.82,0,0,1,3.64-3.78c2.48-2.14,5.33-5.92,14.45-3.13A19.33,19.33,0,0,1,195,18c.8.34,3.29.35,5.84-1.67,4.06-3.22,5.64-5.65,11.19-5.73,6.46-.08,7.48,8,12.5,10,3.2,1.31,11.62,2.62,13.37,3.2Z"/><path class="cls-7" d="M125,48.2l-.46-1.33-.47,1.33a4.62,4.62,0,0,1-2.59,2.64h0a4.64,4.64,0,0,1,2.59,2.63l.47,1.34.46-1.34a4.7,4.7,0,0,1,2.59-2.63h0A4.68,4.68,0,0,1,125,48.2Z"/><path class="cls-7" d="M82.88,124.5l-.46-1.34L82,124.5a4.67,4.67,0,0,1-2.59,2.63h0A4.65,4.65,0,0,1,82,129.77l.47,1.33.46-1.33a4.65,4.65,0,0,1,2.59-2.64h0A4.67,4.67,0,0,1,82.88,124.5Z"/><path class="cls-7" d="M209.11,116.46l-.31-.88-.31.88a3.07,3.07,0,0,1-1.71,1.74h0a3,3,0,0,1,1.71,1.74l.31.88.31-.88a3,3,0,0,1,1.7-1.74h0A3.05,3.05,0,0,1,209.11,116.46Z"/><path class="cls-7" d="M62.53,72.17l-.31-.88-.3.88a3.1,3.1,0,0,1-1.71,1.74h0a3.07,3.07,0,0,1,1.71,1.74l.3.88.31-.88a3.07,3.07,0,0,1,1.71-1.74h0A3.1,3.1,0,0,1,62.53,72.17Z"/><path class="cls-6" d="M162.28,0H133.09a2.89,2.89,0,0,0-2.89,2.88V18.65a2.88,2.88,0,0,0,2.89,2.87h1.57v7.22l7.21-7.22h20.41a2.87,2.87,0,0,0,2.88-2.87V2.88A2.88,2.88,0,0,0,162.28,0Z"/><path class="cls-7" d="M137.18,15.45h6.89a1,1,0,0,1,1,1h0a1,1,0,0,1-1,1h-6.89a1,1,0,0,1-1-1h0A1,1,0,0,1,137.18,15.45Z"/><path class="cls-7" d="M137.18,10.63h12.69a1,1,0,0,1,1,1h0a1,1,0,0,1-1,1H137.18a1,1,0,0,1-1-1h0A1,1,0,0,1,137.18,10.63Z"/><path class="cls-7" d="M137.18,6H159a1,1,0,0,1,1,1h0a1,1,0,0,1-1,1H137.18a1,1,0,0,1-1-1h0A1,1,0,0,1,137.18,6Z"/><path class="cls-10" d="M144.18,135.31H178a13.31,13.31,0,0,0,13.22-11.85l4.87-50.73H162.29l-.69,29.41Z"/><path class="cls-11" d="M144.18,134.76c8.68-.35,17.37-.5,26-.64l6.51-.05c.53,0,1.12,0,1.59,0a10.46,10.46,0,0,0,1.47-.15,10.93,10.93,0,0,0,2.81-.82,12.15,12.15,0,0,0,7.12-8.75c.18-.9.26-2,.37-3.11l.32-3.24.63-6.48c.41-4.32.89-8.64,1.34-12.95.91-8.64,1.86-17.27,2.91-25.89a.77.77,0,0,1,1.54.15c-.61,8.67-1.32,17.32-2.08,26-.37,4.33-.73,8.66-1.15,13l-.61,6.48-.3,3.25c-.11,1.08-.17,2.12-.39,3.35a14.47,14.47,0,0,1-8.7,10.62,13.64,13.64,0,0,1-3.43.94,11.77,11.77,0,0,1-1.78.15c-.61,0-1.1,0-1.66,0l-6.51,0c-8.68-.14-17.37-.29-26-.64a.53.53,0,0,1-.52-.57A.54.54,0,0,1,144.18,134.76Z"/><line class="cls-12" x1="163.51" y1="136.26" x2="163.51" y2="172.09"/><rect class="cls-11" x="60.94" y="102.7" width="108.95" height="1.69" transform="translate(230.83 207.09) rotate(180)"/><polygon class="cls-13" points="157.04 178.85 158.2 183 152.57 184.71 150.81 179.59 157.04 178.85"/><polygon class="cls-13" points="123.05 175.85 123.05 179.18 128.04 179.18 128.59 175.85 123.05 175.85"/><path class="cls-14" d="M161.33,79.57l-7.52,18.58-.17.41a2.83,2.83,0,0,1-2.65,1.77l-21.43-.15a1.57,1.57,0,0,1-.22-3.13L150.55,94l-2.81,2.18,5.07-19.4A4.5,4.5,0,1,1,161.52,79,4.6,4.6,0,0,1,161.33,79.57Z"/><path class="cls-14" d="M131.89,96.68l-7.32-.15a3.48,3.48,0,0,0-3.28,3.65H132Z"/><path class="cls-15" d="M149.48,81.83l11.72,2.86,1.93-10.45a5.07,5.07,0,0,0-4.32-5.89h0a5.16,5.16,0,0,0-5.58,3.28Z"/><path class="cls-16" d="M161.6,102.14l-36.11,18.33a9.46,9.46,0,0,0-5.16,9l2.72,46.4h5.54l7.48-49.65,28.11-19.74Z"/><path class="cls-17" d="M155.23,38.77s10-3.41,15.31,6.09a8.77,8.77,0,0,0,1.05,1.57c1.07,1.26,3.3,3.59,5.76,4.35,9.77,3,16,21.46-3.49,23.11-24.33,2-31.24-2.75-27.76-12.44,2.48-6.92.27-11.83.27-11.83Z"/><path class="cls-18" d="M163.24,63.56l-5.19,2.31a8.45,8.45,0,0,0-5,7.83c.08,6.82,1.63,23.75,7.39,30.23H178c2.71-12,1.15-30.43,1.15-30.43a8.68,8.68,0,0,0-7.64-9Z"/><path class="cls-19" d="M163.72,69.15h0A3.36,3.36,0,0,1,160,66.23l-1.43-11.15,6.68-.78,1.42,11.08A3.37,3.37,0,0,1,163.72,69.15Z"/><path class="cls-13" d="M148.65,45.56h16.52a0,0,0,0,1,0,0v9.8A8.13,8.13,0,0,1,157,63.5h-.27a8.13,8.13,0,0,1-8.13-8.13V45.56A0,0,0,0,1,148.65,45.56Z" transform="translate(-5.74 20.77) rotate(-7.44)"/><path class="cls-17" d="M165.75,50.56l-1.4,2.9S162.49,55.07,162,51c-.45-3.44-2.94-2.84-2.94-2.84s-8.53,6.46-13.55,2c-4-3.5,2.44-9.9,9.76-11.44l9.6,4.2Z"/><path class="cls-13" d="M163.38,53.57a2.71,2.71,0,1,0,2.37-3A2.71,2.71,0,0,0,163.38,53.57Z"/><path class="cls-7" d="M165.59,54.52a.49.49,0,0,0,1-.12A.49.49,0,0,0,166,54,.5.5,0,0,0,165.59,54.52Z"/><path class="cls-7" d="M151.74,58.7l4.6-1s.22,2-2.3,2.36A1.87,1.87,0,0,1,151.74,58.7Z"/><path class="cls-11" d="M178,103.93H160.4l-28.09,17a7.7,7.7,0,0,0-3.06,9.69l21.56,49,6.23-.73-11.59-47.29c9.73-.41,27.79-1.88,32.51-7.14C185.94,115.53,178,103.93,178,103.93Z"/><path class="cls-6" d="M118.08,73.18l10,26.92H95.54L86.27,74.74a1.16,1.16,0,0,1,1.09-1.56Z"/><path class="cls-20" d="M118.08,73.18h1.56a2,2,0,0,1,1.87,1.31L131,100.1H128.1Z"/><path class="cls-21" d="M95.63,100.1H128.1a0,0,0,0,1,0,0v2.59a0,0,0,0,1,0,0H98a2.35,2.35,0,0,1-2.35-2.35v-.24A0,0,0,0,1,95.63,100.1Z"/><path class="cls-22" d="M128.1,102.7h20.09a1.3,1.3,0,0,0,1.29-1.3h0a1.3,1.3,0,0,0-1.29-1.3H128.1Z"/><path class="cls-23" d="M109.92,86.56c.62,1.86-.12,3.78-1.66,4.29s-3.27-.59-3.89-2.45.13-3.78,1.66-4.29A3.28,3.28,0,0,1,109.92,86.56Z"/><path class="cls-13" d="M175.07,79.06,167.53,98l-.17.42a2.87,2.87,0,0,1-2.67,1.8l-21.44-.15a1.57,1.57,0,0,1-1.57-1.59A1.59,1.59,0,0,1,143,96.92l21.21-3.14L161.4,96l5-19.75a4.54,4.54,0,0,1,8.8,2.25A3.33,3.33,0,0,1,175.07,79.06Z"/><path class="cls-13" d="M145.58,96.53l-7.32-.15a3.52,3.52,0,0,0-3.28,3.71h10.69Z"/><path class="cls-15" d="M163.17,81.4l11.72,2.92,1.93-10.65a5.15,5.15,0,0,0-4.31-6h0A5.15,5.15,0,0,0,166.92,71Z"/><path class="cls-24" d="M148.91,180.73l-2.73,2.7-6.15,1.5a1.91,1.91,0,0,0-1.36,1.23l-.31.89a.67.67,0,0,0,.65.89l19.78-.48a1.12,1.12,0,0,0,1.09-1.21l-1.56-5.6-3,.71a3.63,3.63,0,0,1-3-.31l-1.07-.62A2,2,0,0,0,148.91,180.73Z"/><path class="cls-24" d="M120.52,176.84l-2.73,2.7-6.15,1.5a1.93,1.93,0,0,0-1.36,1.23l-.31.89a.67.67,0,0,0,.64.89l17.91-.37a1.13,1.13,0,0,0,1.09-1.21l-.46-5.73-2.21.74a3.66,3.66,0,0,1-3-.32l-1.06-.61A1.94,1.94,0,0,0,120.52,176.84Z"/><rect class="cls-25" x="201.21" y="40.49" width="56.43" height="20.43" rx="3.09" transform="translate(458.86 101.4) rotate(180)"/><rect class="cls-7" x="239.16" y="44.84" width="12.35" height="11.72" rx="0.97" transform="translate(490.66 101.4) rotate(180)"/><path class="cls-7" d="M208.2,47.29h26.85a.84.84,0,0,0,.84-.84h0a.85.85,0,0,0-.84-.84H208.2a.84.84,0,0,0-.84.84h0A.83.83,0,0,0,208.2,47.29Z"/><rect class="cls-7" x="224.83" y="49.86" width="11.05" height="1.68" rx="0.84" transform="translate(460.72 101.4) rotate(-180)"/><rect class="cls-7" x="207.36" y="49.86" width="12.88" height="1.68" rx="0.84" transform="translate(427.6 101.4) rotate(-180)"/><path class="cls-7" d="M214.92,55.79h20.13a.85.85,0,0,0,.84-.84h0a.84.84,0,0,0-.84-.84H214.92a.83.83,0,0,0-.84.84h0A.84.84,0,0,0,214.92,55.79Z"/><path class="cls-6" d="M79.18,94.54s8.29,0,6.57-8.5C85.75,86,77.06,86.9,79.18,94.54Z"/><path class="cls-6" d="M78.15,94.08s-8.39,0-6.65-8.6C71.5,85.48,80.3,86.35,78.15,94.08Z"/><path class="cls-21" d="M78.53,94.11S72.42,88,79.63,82.53C79.63,82.53,85.41,89.69,78.53,94.11Z"/><polygon class="cls-18" points="85.23 93.39 71.83 93.39 73.96 102.69 82.93 102.69 85.23 93.39"/><line class="cls-26" x1="111.86" y1="104.39" x2="111.86" y2="170.02"/></g></g></svg>