<svg xmlns="http://www.w3.org/2000/svg" xmlns:xlink="http://www.w3.org/1999/xlink" viewBox="0 0 1920 1059.18"><defs><style>.cls-1{fill:url(#linear-gradient);}</style><linearGradient id="linear-gradient" x1="27.91" y1="749.98" x2="1927.64" y2="471.72" gradientUnits="userSpaceOnUse"><stop offset="0" stop-color="#ed85f2"/><stop offset="0.07" stop-color="#e787f2"/><stop offset="0.17" stop-color="#d68ef4"/><stop offset="0.28" stop-color="#ba99f5"/><stop offset="0.4" stop-color="#93a9f8"/><stop offset="0.52" stop-color="#61bcfb"/><stop offset="0.64" stop-color="#2bd2ff"/><stop offset="0.71" stop-color="#2bd3fb"/><stop offset="0.78" stop-color="#2bd8ef"/><stop offset="0.84" stop-color="#2bdfdc"/><stop offset="0.9" stop-color="#2beac1"/><stop offset="0.97" stop-color="#2bf79e"/><stop offset="1" stop-color="#2bff88"/></linearGradient></defs><title>Asset 2</title><g id="Layer_2" data-name="Layer 2"><g id="Layer_1-2" data-name="Layer 1"><path class="cls-1" d="M1920,0,1262,35.8a416.11,416.11,0,0,0-208.79,69.67l0,0A555,555,0,0,1,703,197.71L497.29,182.32A554.94,554.94,0,0,0,210,238.22L0,342V901l69.41,35.49A555.06,555.06,0,0,0,390,993.17l372.18-45.88a555.07,555.07,0,0,1,212.73,15.06l287,77.59a555,555,0,0,0,203.19,16.16L1920,1008Z"/></g></g></svg>