<?xml version="1.0" encoding="utf-8"?>
<!-- Generator: Adobe Illustrator 23.0.3, SVG Export Plug-In . SVG Version: 6.00 Build 0)  -->
<svg version="1.1" id="Layer_1" xmlns="http://www.w3.org/2000/svg" xmlns:xlink="http://www.w3.org/1999/xlink" x="0px" y="0px"
	 viewBox="0 0 99.2 99.3" style="enable-background:new 0 0 99.2 99.3;" xml:space="preserve">
<style type="text/css">
	.st0{fill:#FFFFFF;}
	.st1{font-family:'RobotoMono-Bold';}
	.st2{font-size:12.14px;}
	.st3{font-size:12.1169px;}
	.st4{font-size:12.2006px;}
	.st5{font-size:12.1945px;}
	.st6{font-size:12.1424px;}
	.st7{font-size:12.1891px;}
	.st8{font-size:12.1066px;}
	.st9{font-size:12.1673px;}
	.st10{fill:#35F5BB;}
	.st11{font-family:'RobotoMono-Medium';}
	.st12{font-size:13.88px;}
	.st13{font-size:13.8306px;}
	.st14{font-size:13.8557px;}
	.st15{font-size:13.9091px;}
	.st16{fill:none;stroke:#FFFFFF;stroke-width:4;stroke-miterlimit:10;}
	.st17{fill:none;stroke:#35F5BB;stroke-width:4;stroke-miterlimit:10;}
</style>
<title>Asset 20</title>
<g>
	<g id="Layer_1-2">
		<text transform="matrix(0.9956 9.323949e-02 -9.323949e-02 0.9956 49.45 12.48)" class="st0 st1 st2">Y</text>
		<text transform="matrix(0.9609 0.277 -0.277 0.9609 56.35 13.0901)" class="st0 st1 st2">u</text>
		<text transform="matrix(0.8921 0.4518 -0.4518 0.8921 63.0299 14.9801)" class="st0 st1 st2">l</text>
		<text transform="matrix(0.7915 0.6112 -0.6112 0.7915 69.2296 18.0897)" class="st0 st1 st3">i</text>
		<text transform="matrix(0.6665 0.7455 -0.7455 0.6665 74.75 22.2901)" class="st0 st1 st2">y</text>
		<text transform="matrix(0.5174 0.8557 -0.8557 0.5174 79.3901 27.4309)" class="st0 st1 st4">a</text>
		<text transform="matrix(0.1692 0.9856 -0.9856 0.1692 85.4505 39.8298)" class="st0 st1 st5">Y</text>
		<text transform="matrix(-1.999600e-02 0.9998 -0.9998 -1.999600e-02 86.64 46.6706)" class="st0 st1 st6">u</text>
		<text transform="matrix(-0.2021 0.9794 -0.9794 -0.2021 86.5607 53.6001)" class="st0 st1 st2">s</text>
		<text transform="matrix(-0.3817 0.9243 -0.9243 -0.3817 85.1891 60.4101)" class="st0 st1 st2">h</text>
		<text transform="matrix(-0.5478 0.8366 -0.8366 -0.5478 82.5706 66.8296)" class="st0 st1 st7">k</text>
		<text transform="matrix(-0.6919 0.722 -0.722 -0.6919 78.79 72.6598)" class="st0 st1 st8">o</text>
		<text transform="matrix(-0.8141 0.5807 -0.5807 -0.8141 74.0109 77.6904)" class="st0 st1 st2">v</text>
		<text transform="matrix(-0.908 0.4191 -0.4191 -0.908 68.4011 81.7297)" class="st0 st1 st9">a</text>
		<text transform="matrix(-0.999 4.501431e-02 -4.501431e-02 -0.999 55.4405 86.4297)" class="st10 st11 st12">F</text>
		<text transform="matrix(-0.9862 -0.1657 0.1657 -0.9862 47.5102 86.8409)" class="st10 st11 st12">r</text>
		<text transform="matrix(-0.928 -0.3725 0.3725 -0.928 39.6696 85.5605)" class="st10 st11 st12">o</text>
		<text transform="matrix(-0.8278 -0.5611 0.5611 -0.8278 32.2997 82.6401)" class="st10 st11 st12">n</text>
		<text transform="matrix(-0.6906 -0.7232 0.7232 -0.6906 25.6998 78.2198)" class="st10 st11 st12">t</text>
		<text transform="matrix(-0.5219 -0.853 0.853 -0.5219 20.1895 72.5081)" class="st10 st11 st13">-</text>
		<text transform="matrix(-0.3294 -0.9442 0.9442 -0.3294 16.01 65.7791)" class="st10 st11 st12">E</text>
		<text transform="matrix(-0.1207 -0.9927 0.9927 -0.1207 13.36 58.3)" class="st10 st11 st12">n</text>
		<text transform="matrix(9.011109e-02 -0.9959 0.9959 9.011109e-02 12.3601 50.4299)" class="st10 st11 st12">d</text>
		<text transform="matrix(0.4959 -0.8684 0.8684 0.4959 15.3701 34.9501)" class="st10 st11 st12">D</text>
		<text transform="matrix(0.6712 -0.7413 0.7413 0.6712 19.2695 28.0395)" class="st10 st11 st14">e</text>
		<text transform="matrix(0.8083 -0.5888 0.5888 0.8083 24.5402 22.0999)" class="st10 st11 st15">v</text>
		<circle class="st16" cx="49.3" cy="49.4" r="25.1"/>
		<circle class="st17" cx="49.6" cy="49.1" r="16.5"/>
		<circle class="st0" cx="33.1" cy="49.4" r="3.8"/>
	</g>
</g>
</svg>
