<?xml version="1.0" encoding="utf-8"?>
<!-- Generator: Adobe Illustrator 23.0.3, SVG Export Plug-In . SVG Version: 6.00 Build 0)  -->
<svg version="1.1" id="Layer_1" xmlns="http://www.w3.org/2000/svg" xmlns:xlink="http://www.w3.org/1999/xlink" x="0px" y="0px"
	 viewBox="0 0 512 512" style="enable-background:new 0 0 512 512;" xml:space="preserve">
<style type="text/css">
	.st0{fill:#F9F871;}
	.st1{fill:#0028FF;}
	.st2{fill:#FF000D;}
	.st3{fill:#FF007B;}
</style>
<path class="st0" d="M48,210h416v144H48V210z"/>
<path class="st1" d="M296,392c-0.2,0-0.3,0-0.5,0c-1.5-0.2-2.7-1.2-3.3-2.5L215,188.5l-67.7,97.8c-0.7,1.1-2,1.7-3.3,1.7H64
	c-2.2,0-4-1.8-4-4s1.8-4,4-4h77.9l70.8-102.3c0.8-1.2,2.3-1.9,3.8-1.7c1.5,0.2,2.7,1.2,3.3,2.5L297,379.5l67.7-97.8
	c0.7-1.1,2-1.7,3.3-1.7h80c2.2,0,4,1.8,4,4s-1.8,4-4,4h-77.9l-70.8,102.3C298.5,391.4,297.3,392,296,392z"/>
<path class="st2" d="M351.5,64.4l-4.2,4.2l-4.2-4.2c-16.6-16.6-43.5-16.6-60.1,0c-16.6,16.6-16.6,43.5,0,60l64.3,64.2l64.2-64.2
	c16.6-16.6,16.6-43.5,0-60C395,47.9,368.1,47.9,351.5,64.4z"/>
<g>
	<path class="st1" d="M347.3,192.7c-1,0-2-0.4-2.8-1.2l-64.3-64.2c-18.1-18.1-18.1-47.6,0-65.7c18.1-18.1,47.6-18.1,65.7,0l1.4,1.4
		l1.4-1.4c18.1-18.1,47.6-18.1,65.7,0c18.1,18.1,18.1,47.6,0,65.7l-64.2,64.2C349.4,192.3,348.3,192.7,347.3,192.7z M313.1,56
		c-9.9,0-19.7,3.8-27.2,11.3c-15,15-15,39.4,0,54.4l61.4,61.4l61.4-61.4c15-15,15-39.4,0-54.4c-15-15-39.4-15-54.4,0l-4.2,4.2
		c-1.6,1.6-4.1,1.6-5.7,0l-4.2-4.2C332.8,59.8,322.9,56,313.1,56z"/>
	<path class="st1" d="M444,448H68c-13.2,0-24-10.8-24-24V144c0-13.2,10.8-24,24-24h194.7c2.2,0,4,1.8,4,4s-1.8,4-4,4H68
		c-8.8,0-16,7.2-16,16v280c0,8.8,7.2,16,16,16h376c8.8,0,16-7.2,16-16V144c0-8.8-7.2-16-16-16h-12.1c-2.2,0-4-1.8-4-4s1.8-4,4-4H444
		c13.2,0,24,10.8,24,24v280C468,437.2,457.2,448,444,448z"/>
	<path class="st1" d="M504,508h-16c-2.2,0-4-1.8-4-4s1.8-4,4-4h16c2.2,0,4,1.8,4,4S506.2,508,504,508z"/>
	<path class="st1" d="M472,508H344c-2.2,0-4-1.8-4-4s1.8-4,4-4h128c2.2,0,4,1.8,4,4S474.2,508,472,508z"/>
	<path class="st1" d="M20,68H4c-2.2,0-4-1.8-4-4s1.8-4,4-4h16c2.2,0,4,1.8,4,4S22.2,68,20,68z"/>
	<path class="st1" d="M164,68H36c-2.2,0-4-1.8-4-4s1.8-4,4-4h128c2.2,0,4,1.8,4,4S166.2,68,164,68z"/>
	<path class="st3" d="M468,28h-32c-2.2,0-4-1.8-4-4s1.8-4,4-4h32c2.2,0,4,1.8,4,4S470.2,28,468,28z"/>
	<path class="st3" d="M452,44c-2.2,0-4-1.8-4-4V8c0-2.2,1.8-4,4-4s4,1.8,4,4v32C456,42.2,454.2,44,452,44z"/>
	<path class="st3" d="M508,68h-32c-2.2,0-4-1.8-4-4s1.8-4,4-4h32c2.2,0,4,1.8,4,4S510.2,68,508,68z"/>
	<path class="st3" d="M492,84c-2.2,0-4-1.8-4-4V48c0-2.2,1.8-4,4-4s4,1.8,4,4v32C496,82.2,494.2,84,492,84z"/>
</g>
</svg>
