<svg xmlns="http://www.w3.org/2000/svg" viewBox="0 0 843 549.76"><defs><style>.cls-1{isolation:isolate;}.cls-2{fill:none;}.cls-3{fill:#489aff;}.cls-4,.cls-9{fill:#e3eaff;}.cls-5{fill:#6db8ff;}.cls-6{fill:#544db8;}.cls-7{fill:#c8d6f2;}.cls-8{fill:#424261;}.cls-11,.cls-8{opacity:0.2;mix-blend-mode:multiply;}.cls-9{opacity:0.21;}.cls-10{fill:#f9fbfc;}.cls-11{fill:#ffff7e;}.cls-12{fill:#ffeb3b;}.cls-13{fill:#9570ee;}.cls-14{fill:#bb87ee;}.cls-15{fill:#7f57ee;}.cls-16{fill:#ced6ff;}.cls-17{fill:#ff4dd1;}.cls-18{fill:#cdd4ff;}.cls-19{fill:#90c240;}.cls-20{fill:#eb4f24;}.cls-21{fill:#fff;}.cls-22{fill:#fd4940;}.cls-23{fill:#0cf;}.cls-24{fill:#ff56a9;}.cls-25{fill:#ffc359;}.cls-26{fill:#f7d3a9;}.cls-27{fill:#f79a74;}.cls-28{fill:#f5f9a0;}.cls-29{fill:#00e676;}.cls-30{fill:#ff4f72;}.cls-31{fill:#8c5302;}</style></defs><title>Asset 3</title><g class="cls-1"><g id="Layer_2" data-name="Layer 2"><g id="Layer_1-2" data-name="Layer 1"><path class="cls-2" d="M642.48,465.07a64.68,64.68,0,0,0,11.31-5.48,65.42,65.42,0,0,0,5.68-3.9,236.84,236.84,0,0,1-8-33.07A159.46,159.46,0,0,0,642.48,465.07Z"/><path class="cls-2" d="M668.14,418.07a189.75,189.75,0,0,0,3.84,25,65.55,65.55,0,0,0,4.29-72.32H672C670.93,387,669,408.91,668.14,418.07Z"/><path class="cls-3" d="M764.51,410.07,746.31,405a126.35,126.35,0,0,0-5.15-37.21l16.1-9.84a17.48,17.48,0,0,0,5.79-24l-15.95-26.1a17.48,17.48,0,0,0-24-5.8L713,308.17v39.14a2.77,2.77,0,0,1-2.77,2.76H693.7V368a2.77,2.77,0,0,1-2.77,2.77H676.27A65.55,65.55,0,0,1,672,443.08c9.89,45.26,33.29,84.56,33.29,84.56l-2.45.87,1.86,2.65,2.52,3.46s-16.45,8.41-16.67,8.1,7.93-9.56,7.93-9.56l-2.56-3.84,1.93-1c-19.87-24-31.6-51.37-38.36-72.65a65.42,65.42,0,0,1-5.68,3.9,64.68,64.68,0,0,1-11.31,5.48,239.84,239.84,0,0,0,1.23,47.8h7.11a22.9,22.9,0,0,1,2.88,11c0,.63,0,1.26-.08,1.88l1.86-.52,9.85,16.1a17.47,17.47,0,0,0,24,5.8l26.11-16a17.48,17.48,0,0,0,5.79-24L711.41,491a125.59,125.59,0,0,0,17.3-22.9l18.18,5.07a17.48,17.48,0,0,0,21.54-12.14l8.22-29.46A17.48,17.48,0,0,0,764.51,410.07Z"/><path class="cls-4" d="M26,107.85a5.49,5.49,0,0,1,5.49-5.49H195.84V96.58h-171a6.92,6.92,0,0,0-6.92,6.93V512.87H26Z"/><path class="cls-4" d="M627.69,423c.3-1.22.55-2.15.71-2.74l-.71,0Z"/><path class="cls-4" d="M629.25,512.87c-.56-2-1.09-3.94-1.56-5.89v5.89Z"/><path class="cls-5" d="M627.5,420.16a85.19,85.19,0,0,1-4.28-37H601.67V488.75a3.39,3.39,0,0,1-3.38,3.39H549.84a31.38,31.38,0,0,1,12.29,20.73h60.73a201.12,201.12,0,0,1-3.2-43.73c1.06,0,2.12,0,3.19-.08A184,184,0,0,1,627.69,423v-2.78Z"/><path class="cls-5" d="M512.22,492.14H473.85l4.9,17.88a17.8,17.8,0,0,1,.52,2.85h20.66A31.42,31.42,0,0,1,512.22,492.14Z"/><path class="cls-5" d="M401.14,505a18.24,18.24,0,0,1,1.23-12.88H55.42A3.38,3.38,0,0,1,52,488.75V125.86a3.38,3.38,0,0,1,3.38-3.38H195.84V102.36H31.51A5.49,5.49,0,0,0,26,107.85v405H403.29Z"/><path class="cls-5" d="M619.66,469.14a201.12,201.12,0,0,0,3.2,43.73h4.83V507a173.41,173.41,0,0,1-4.84-37.92C621.78,469.11,620.72,469.14,619.66,469.14Z"/><path class="cls-6" d="M414,482.43l35.46-9.73a18.45,18.45,0,0,1,22.59,12.87l1.8,6.57h38.37a31.43,31.43,0,0,1,37.62,0h48.45a3.39,3.39,0,0,0,3.38-3.39V383.17H206.87a11,11,0,0,1-11-11V122.48H55.42A3.38,3.38,0,0,0,52,125.86V488.75a3.38,3.38,0,0,0,3.38,3.39h347A18.31,18.31,0,0,1,414,482.43ZM144.46,439.37a1.72,1.72,0,0,1-1.73,1.72H83.44a1.73,1.73,0,0,1-1.73-1.72V377.31a1.73,1.73,0,0,1,1.73-1.72h59.29a1.72,1.72,0,0,1,1.73,1.72Zm0-93.09a1.72,1.72,0,0,1-1.73,1.72H83.44a1.73,1.73,0,0,1-1.73-1.72V284.22a1.74,1.74,0,0,1,1.73-1.73h59.29a1.73,1.73,0,0,1,1.73,1.73Zm3.62-95.16a1.72,1.72,0,0,1-1.72,1.72H87.06a1.73,1.73,0,0,1-1.73-1.72V189.06a1.74,1.74,0,0,1,1.73-1.73h59.3a1.73,1.73,0,0,1,1.72,1.73ZM337.51,451.44l-57.69-.95a6.54,6.54,0,0,1-9.45,2.19L225.72,475l-1.85-3.7,44-22a6.36,6.36,0,0,1-.32-2,6.55,6.55,0,0,1,13-.93l56.6.92,68.63-25.85h52.41l50-16.67a6.55,6.55,0,0,1,12.86-1.2l38.44,4.37,25.3-13.16,1.91,3.67-26.42,13.74-.63-.07-38.86-4.42a6.55,6.55,0,0,1-11.58,1.08l-50.69,16.8H406.19L337.9,451.45Z"/><path class="cls-4" d="M647.39,539.61l0,.1.12-.12h-.13Z"/><path class="cls-4" d="M633.82,546.78c.33,0,.65-.1,1-.16l0,0C634.49,546.67,634.16,546.73,633.82,546.78Z"/><path class="cls-4" d="M632,547c-.49,0-1,0-1.48,0C631,547,631.52,547,632,547Z"/><path class="cls-4" d="M23.17,547c-.5,0-1,0-1.48,0C22.18,547,22.67,547,23.17,547Z"/><path class="cls-4" d="M633.65,546.8c-.42.06-.85.1-1.27.14C632.81,546.91,633.23,546.86,633.65,546.8Z"/><path class="cls-4" d="M632.14,534.82h5.23c-.64-1.38-1.25-2.77-1.84-4.15A6.92,6.92,0,0,1,632.14,534.82Z"/><path class="cls-4" d="M21.33,546.94c-.43,0-.86-.08-1.28-.14C20.47,546.86,20.9,546.91,21.33,546.94Z"/><path class="cls-4" d="M647.37,534.82h3.45a23.06,23.06,0,0,1-2.58,3.82l0,.11a23.08,23.08,0,0,0,5.35-13q-3.82,1.07-7.68,1.88C646.47,530.49,647,532.92,647.37,534.82Z"/><path class="cls-4" d="M2.88,534.82H21.56a6.92,6.92,0,0,1-3.67-6.11V512.87h-15a22.9,22.9,0,0,0-2.88,11,23.16,23.16,0,0,0,19.88,22.93A23.18,23.18,0,0,1,2.88,534.82Z"/><path class="cls-4" d="M650.82,512.87h-7.11c.7,5.68,1.49,10.66,2.23,14.74q3.85-.81,7.68-1.88c0-.62.08-1.25.08-1.88A22.9,22.9,0,0,0,650.82,512.87Z"/><path class="cls-4" d="M635.53,530.67c-.18-.42-.35-.83-.52-1.25-2.72.33-5.44.58-8.16.73-.2-.71-.38-1.41-.57-2.12a5.48,5.48,0,0,1-4.08,1.83H559.83a31.36,31.36,0,0,1-2.72,5h75A6.92,6.92,0,0,0,635.53,530.67Z"/><path class="cls-4" d="M471.64,529.86a18.2,18.2,0,0,1-5.75,2.75l-8.07,2.21H505a31.36,31.36,0,0,1-2.72-5Z"/><path class="cls-4" d="M21.56,534.82H410.31a18.24,18.24,0,0,1-2.34-5H31.51A5.49,5.49,0,0,1,26,524.37v-11.5H17.89v15.84A6.92,6.92,0,0,0,21.56,534.82Z"/><path class="cls-4" d="M627.69,512.87v11.5a5.47,5.47,0,0,1-1.41,3.66c.19.71.37,1.41.57,2.12,2.72-.15,5.44-.4,8.16-.73a152.29,152.29,0,0,1-5.76-16.55Z"/><path class="cls-4" d="M562.13,512.87a32.42,32.42,0,0,1,.32,4.43,31.31,31.31,0,0,1-2.62,12.56H622.2a5.48,5.48,0,0,0,4.08-1.83q-2-7.5-3.42-15.16Z"/><path class="cls-4" d="M499.62,517.3a32.42,32.42,0,0,1,.31-4.43H479.27a18.44,18.44,0,0,1-7.63,17h30.59A31.3,31.3,0,0,1,499.62,517.3Z"/><path class="cls-4" d="M403.29,512.87H26v11.5a5.49,5.49,0,0,0,5.49,5.49H408l-.13-.39Z"/><path class="cls-4" d="M627.69,512.87h-4.83q1.41,7.65,3.42,15.16a5.47,5.47,0,0,0,1.41-3.66Z"/><path class="cls-7" d="M632.38,546.94l-.37,0Z"/><path class="cls-7" d="M21.69,547l-.36,0Z"/><path class="cls-7" d="M633.82,546.78l-.17,0Z"/><path class="cls-7" d="M20.05,546.8l-.17,0Z"/><path class="cls-7" d="M650.82,534.82h-3.45c.38,1.73.68,3,.87,3.82A23.06,23.06,0,0,0,650.82,534.82Z"/><path class="cls-7" d="M641.78,542.89l-.75-3.3h-1.37q-1.2-2.39-2.29-4.77h-5.23a6.84,6.84,0,0,1-3.25.82H556.54A31.48,31.48,0,0,1,541.22,547h89.31c.5,0,1,0,1.48,0l.37,0c.42,0,.85-.08,1.27-.14l.17,0c.34,0,.67-.11,1-.18C637.93,544.9,641.78,542.89,641.78,542.89Z"/><path class="cls-7" d="M505.53,535.64h-50.3l-3,11.38h68.59A31.5,31.5,0,0,1,505.53,535.64Z"/><path class="cls-7" d="M430.43,542.34a18.45,18.45,0,0,1-19.54-6.7H24.81a6.87,6.87,0,0,1-3.25-.82H2.88a23.18,23.18,0,0,0,17,12l.17,0c.42.06.85.11,1.28.14l.36,0c.49,0,1,0,1.48,0H448.75l-7.68-7.6Z"/><path class="cls-7" d="M647.39,539.61v0h0Z"/><path class="cls-7" d="M457.82,534.82l-2.56.71,0,.11h50.3c-.2-.27-.39-.54-.58-.82Z"/><path class="cls-7" d="M21.56,534.82a6.87,6.87,0,0,0,3.25.82H410.89c-.2-.27-.39-.54-.58-.82Z"/><path class="cls-7" d="M556.54,535.64h72.35a6.84,6.84,0,0,0,3.25-.82h-75Z"/><rect class="cls-4" x="195.84" y="96.58" width="15.17" height="5.78"/><rect class="cls-8" x="195.84" y="96.58" width="15.17" height="5.78"/><rect class="cls-5" x="195.84" y="102.36" width="15.17" height="20.12"/><rect class="cls-8" x="195.84" y="102.36" width="15.17" height="20.12"/><path class="cls-5" d="M625.39,370.76H601.67v12.41h21.55A86.53,86.53,0,0,1,625.39,370.76Z"/><path class="cls-8" d="M625.39,370.76H601.67v12.41h21.55A86.53,86.53,0,0,1,625.39,370.76Z"/><path class="cls-6" d="M206.87,383.17h394.8V370.76H213.77A2.76,2.76,0,0,1,211,368V122.48H195.84V372.14A11,11,0,0,0,206.87,383.17Z"/><path class="cls-8" d="M206.87,383.17h394.8V370.76H213.77A2.76,2.76,0,0,1,211,368V122.48H195.84V372.14A11,11,0,0,0,206.87,383.17Z"/><path class="cls-9" d="M672.36,364.78c-.1,1.87-.23,3.87-.37,6h4.28c-.24-.43-.48-.86-.73-1.28C674.54,367.85,673.47,366.28,672.36,364.78Z"/><path class="cls-9" d="M230.31,64.59H213.77A2.76,2.76,0,0,0,211,67.36V96.58h19.3Z"/><path class="cls-3" d="M672.69,353.21c0,.62,0,1.23,0,1.89,0,2.33-.13,5.69-.35,9.68,1.11,1.5,2.18,3.07,3.18,4.7.25.42.49.85.73,1.28h14.66A2.77,2.77,0,0,0,693.7,368V350.07H671A15.74,15.74,0,0,1,672.69,353.21Z"/><path class="cls-9" d="M672.69,353.21c0,.62,0,1.23,0,1.89,0,2.33-.13,5.69-.35,9.68,1.11,1.5,2.18,3.07,3.18,4.7.25.42.49.85.73,1.28h14.66A2.77,2.77,0,0,0,693.7,368V350.07H671A15.74,15.74,0,0,1,672.69,353.21Z"/><rect class="cls-4" x="211.01" y="96.58" width="19.31" height="5.78"/><rect class="cls-8" x="211.01" y="96.58" width="19.31" height="5.78"/><rect class="cls-9" x="211.01" y="96.58" width="19.31" height="5.78"/><rect class="cls-5" x="211.01" y="102.36" width="19.31" height="20.12"/><rect class="cls-8" x="211.01" y="102.36" width="19.31" height="20.12"/><rect class="cls-9" x="211.01" y="102.36" width="19.31" height="20.12"/><path class="cls-5" d="M626.12,368c-5.47-4.59-11.55-11.72-16.35-17.93h-8.1v20.69h23.72C625.63,369.78,625.88,368.86,626.12,368Z"/><path class="cls-8" d="M626.12,368c-5.47-4.59-11.55-11.72-16.35-17.93h-8.1v20.69h23.72C625.63,369.78,625.88,368.86,626.12,368Z"/><path class="cls-9" d="M626.12,368c-5.47-4.59-11.55-11.72-16.35-17.93h-8.1v20.69h23.72C625.63,369.78,625.88,368.86,626.12,368Z"/><path class="cls-6" d="M213.77,370.76h387.9V350.07H233.08a2.77,2.77,0,0,1-2.77-2.76V122.48H211V368A2.76,2.76,0,0,0,213.77,370.76Z"/><path class="cls-8" d="M213.77,370.76h387.9V350.07H233.08a2.77,2.77,0,0,1-2.77-2.76V122.48H211V368A2.76,2.76,0,0,0,213.77,370.76Z"/><path class="cls-9" d="M213.77,370.76h387.9V350.07H233.08a2.77,2.77,0,0,1-2.77-2.76V122.48H211V368A2.76,2.76,0,0,0,213.77,370.76Z"/><path class="cls-10" d="M596.13,43.91h-363a2.76,2.76,0,0,0-2.77,2.76V64.59H596.13Z"/><path class="cls-10" d="M693.7,234.57h9.48a20.15,20.15,0,0,1,9.83,2.56V203.19H693.7Z"/><path class="cls-10" d="M693.7,274.91v38.75c2.51-2.35,5-4.65,7.59-6.89,1.94,1.64,3.84,3.32,5.68,5.08l6-3.68V272.35a20.15,20.15,0,0,1-9.83,2.56Z"/><path class="cls-10" d="M701.29,306.77c-2.54,2.24-5.08,4.54-7.59,6.89v36.41h16.54a2.77,2.77,0,0,0,2.77-2.76V308.17l-6,3.68C705.13,310.09,703.23,308.41,701.29,306.77Z"/><rect class="cls-10" x="635.82" y="203.19" width="57.88" height="31.38"/><path class="cls-10" d="M636.29,275.5a1.83,1.83,0,0,1-.15.7l1.25-.24s1.67,17.13,3.25,31.07c2.9-1.61,6.61-2.12,10.86-1.43C660,307,659,323.64,654,331a18.67,18.67,0,0,1-4.31,4.39l.61.86.07-.05.14.33c2,2.73,4.19,5.51,6.33,8.13a16.89,16.89,0,0,1,8.08.72,246.66,246.66,0,0,1,22-25.24q3.34-3.35,6.75-6.52V274.91H636.3Z"/><path class="cls-10" d="M260,96.58V77.27a1.3,1.3,0,0,1,1.3-1.3H403.48a1.3,1.3,0,0,1,1.29,1.3V96.58H420A16.54,16.54,0,0,1,433.73,70.8H546.48a16.54,16.54,0,0,1,13.73,25.78h35.92v-32H230.31v32Z"/><path class="cls-10" d="M687,320.18a246.66,246.66,0,0,0-22,25.24,12.43,12.43,0,0,1,6.1,4.65H693.7V313.66Q690.29,316.84,687,320.18Z"/><rect class="cls-10" x="627.69" y="203.19" width="8.13" height="31.38"/><path class="cls-10" d="M426.79,102.36A16.64,16.64,0,0,1,420,96.58H404.77v5.78Z"/><path class="cls-10" d="M627.69,340.67c2.39,2.1,4.78,4.12,7,5.92-2.54-5-4.41-9.14-5.11-11-2.29-6,.3-58.18.3-58.18l.35-.07L628,274.91h-.29Z"/><rect class="cls-10" x="230.31" y="96.58" width="29.65" height="5.78"/><path class="cls-10" d="M553.42,102.36h42.71V96.58H560.21A16.58,16.58,0,0,1,553.42,102.36Z"/><rect class="cls-10" x="230.31" y="102.36" width="29.65" height="20.12"/><path class="cls-10" d="M601.67,274.91v13.54c3.19,11.17,8.22,28.52,10.4,34.67,1.53,4.36,8.55,11.33,15.62,17.55V274.91Z"/><path class="cls-10" d="M596.13,122.48V102.36H553.42a16.44,16.44,0,0,1-6.94,1.54H433.73a16.47,16.47,0,0,1-6.94-1.54h-22v20.12Z"/><rect class="cls-10" x="601.67" y="203.19" width="26.02" height="31.38"/><path class="cls-10" d="M601.67,338.69v11.38h8.1C605.89,345.05,602.86,340.64,601.67,338.69Z"/><path class="cls-10" d="M233.08,350.07H601.67V338.69l-.08-.13c-3.31-5.51-9.92-57.34-9.92-57.34l.34-.13-3.74-2.87a1.82,1.82,0,0,1-.74-1.43,10.91,10.91,0,0,1,.18-1.88H522.17a20.17,20.17,0,1,1,0-40.34h79.5V203.19h-3.73a1.81,1.81,0,0,1-1.81-1.81v-78.9H404.77v196.3a1.3,1.3,0,0,1-1.29,1.3H261.26a1.3,1.3,0,0,1-1.3-1.3V122.48H230.31V347.31A2.77,2.77,0,0,0,233.08,350.07Zm227-210.24a2.05,2.05,0,0,1,2.05-2.05H569a2,2,0,0,1,2,2.05v68.79a2,2,0,0,1-2,2H462.1a2.05,2.05,0,0,1-2.05-2Z"/><path class="cls-10" d="M597.11,274.91l.57,3.29a1.92,1.92,0,0,1,0,.72l1.18-.45s1.17,4.15,2.84,10V274.91Z"/><path class="cls-6" d="M146.36,187.33H87.06a1.74,1.74,0,0,0-1.73,1.73v62.06a1.73,1.73,0,0,0,1.73,1.72h59.3a1.72,1.72,0,0,0,1.72-1.72V189.06A1.73,1.73,0,0,0,146.36,187.33Zm-11.65,44a6.3,6.3,0,0,1-6.28,6.27H102.69a6.3,6.3,0,0,1-6.28-6.27V213.11a6.3,6.3,0,0,1,6.28-6.27h2.22l3.19-4.5a1.35,1.35,0,0,1,1.1-.56h12.72a1.35,1.35,0,0,1,1.1.56l3.19,4.5h2.22a6.3,6.3,0,0,1,6.28,6.27Z"/><path class="cls-11" d="M146.36,187.33H87.06a1.74,1.74,0,0,0-1.73,1.73v62.06a1.73,1.73,0,0,0,1.73,1.72h59.3a1.72,1.72,0,0,0,1.72-1.72V189.06A1.73,1.73,0,0,0,146.36,187.33Zm-11.65,44a6.3,6.3,0,0,1-6.28,6.27H102.69a6.3,6.3,0,0,1-6.28-6.27V213.11a6.3,6.3,0,0,1,6.28-6.27h2.22l3.19-4.5a1.35,1.35,0,0,1,1.1-.56h12.72a1.35,1.35,0,0,1,1.1.56l3.19,4.5h2.22a6.3,6.3,0,0,1,6.28,6.27Z"/><path class="cls-12" d="M142.73,282.49H83.44a1.74,1.74,0,0,0-1.73,1.73v62.06A1.73,1.73,0,0,0,83.44,348h59.29a1.72,1.72,0,0,0,1.73-1.72V284.22A1.73,1.73,0,0,0,142.73,282.49ZM132,317.16c0,.19-.07.37-.1.56-.06.38-.12.76-.21,1.14s-.12.5-.19.75-.19.76-.31,1.13l-.25.66c-.14.38-.27.77-.43,1.14l-.15.31a20.64,20.64,0,0,1-1.26,2.37c-.12.19-.23.39-.36.58s-.4.56-.61.84-.34.47-.52.7l-.64.74c-.21.23-.41.46-.63.69l-.68.65c-.24.22-.47.44-.72.65s-.47.39-.71.58l-.8.59c-.24.18-.49.34-.75.5s-.58.37-.87.54-.51.29-.78.42l-1,.46-.79.35-1,.38-.8.26c-.37.11-.75.2-1.14.29s-.5.13-.76.18c-.44.09-.88.15-1.32.2l-.65.1c-.67.06-1.35.1-2,.1s-1.36,0-2-.1l-.66-.1c-.44-.05-.88-.11-1.31-.2-.26-.05-.51-.12-.77-.18s-.76-.18-1.14-.29l-.79-.26-1-.38-.8-.35-1-.46-.78-.42-.87-.53-.75-.51c-.27-.19-.53-.39-.79-.59s-.49-.38-.72-.58-.48-.43-.71-.65-.47-.43-.69-.66-.41-.45-.62-.68-.44-.49-.64-.74-.35-.46-.53-.7-.41-.55-.61-.84l-.35-.58a20.71,20.71,0,0,1-1.27-2.37c0-.1-.1-.2-.15-.31-.16-.37-.29-.76-.43-1.14-.08-.22-.17-.44-.24-.66-.12-.37-.22-.75-.31-1.13s-.14-.5-.2-.75-.14-.76-.2-1.14c0-.19-.08-.37-.11-.56V317a21.21,21.21,0,0,1-.19-2.66,20.64,20.64,0,0,1,41.27,0A19.48,19.48,0,0,1,132,317,.48.48,0,0,1,132,317.16Z"/><path class="cls-5" d="M142.73,375.59H83.44a1.73,1.73,0,0,0-1.73,1.72v62.06a1.73,1.73,0,0,0,1.73,1.72h59.29a1.72,1.72,0,0,0,1.73-1.72V377.31A1.72,1.72,0,0,0,142.73,375.59Zm-30.85,53.9C94.86,416.92,97,401.12,97,401.12a14.92,14.92,0,0,1,29.84,0S128.9,416.92,111.88,429.49Z"/><path class="cls-13" d="M111.88,386.21A14.92,14.92,0,0,0,97,401.12s-2.1,15.8,14.92,28.37c17-12.57,14.92-28.37,14.92-28.37A14.92,14.92,0,0,0,111.88,386.21ZM122.65,402A10.81,10.81,0,1,1,111,390.36,10.84,10.84,0,0,1,122.65,402Z"/><path class="cls-10" d="M111,390.36A10.8,10.8,0,1,0,122.65,402,10.84,10.84,0,0,0,111,390.36Z"/><path class="cls-13" d="M98.57,324.74c-.12-.15-.23-.32-.35-.47.09.12.18.26.28.38Z"/><path class="cls-13" d="M127.33,309c-.1-.3-.21-.59-.32-.88C127.12,308.43,127.23,308.72,127.33,309Z"/><path class="cls-13" d="M96.43,321.23l0-.09h0Z"/><path class="cls-13" d="M126.76,307.56c-.12-.26-.25-.53-.38-.78C126.51,307,126.64,307.3,126.76,307.56Z"/><path class="cls-13" d="M97.72,323.57c-.1-.15-.19-.3-.28-.46.09.15.17.3.26.44Z"/><path class="cls-13" d="M104.55,329.45l.16.08-.76-.37.24.13Z"/><path class="cls-13" d="M100.79,327h0c-.2-.17-.39-.34-.57-.52l.15.15Z"/><path class="cls-13" d="M105.94,330l.24.08c-.28-.1-.56-.19-.83-.3l.11,0Z"/><path class="cls-13" d="M107.74,330.56c-.27-.06-.55-.13-.82-.21l.39.11Z"/><path class="cls-13" d="M103,328.64l.32.17c-.24-.13-.47-.28-.7-.42l.06,0Z"/><path class="cls-13" d="M101.86,327.88l.15.1c-.22-.15-.43-.32-.64-.48l.07.06Z"/><path class="cls-13" d="M126.08,306.23c-.15-.27-.31-.53-.48-.79C125.77,305.7,125.93,306,126.08,306.23Z"/><path class="cls-13" d="M96.17,308.14c-.12.29-.22.58-.32.88C96,308.72,96.05,308.43,96.17,308.14Z"/><path class="cls-13" d="M103.39,299.91c-.32.18-.64.37-1,.58C102.75,300.28,103.07,300.09,103.39,299.91Z"/><path class="cls-13" d="M109.42,330.87c-.31,0-.61-.08-.91-.14l.2,0Z"/><path class="cls-13" d="M107.93,298.16c-.32.07-.65.15-1,.25C107.28,298.31,107.61,298.23,107.93,298.16Z"/><path class="cls-13" d="M106.45,298.56c-.35.11-.7.24-1,.38C105.75,298.8,106.1,298.67,106.45,298.56Z"/><path class="cls-13" d="M102,300.8c-.26.18-.51.37-.76.56C101.49,301.17,101.74,301,102,300.8Z"/><path class="cls-13" d="M105,299.08c-.45.2-.9.41-1.33.64C104.14,299.49,104.59,299.28,105,299.08Z"/><path class="cls-13" d="M96.8,306.77c-.14.26-.26.53-.38.8C96.54,307.3,96.66,307,96.8,306.77Z"/><path class="cls-13" d="M125.31,305c-.27-.39-.56-.77-.86-1.14C124.75,304.2,125,304.58,125.31,305Z"/><path class="cls-13" d="M97.57,305.43c-.16.26-.33.53-.48.8C97.24,306,97.41,305.69,97.57,305.43Z"/><path class="cls-13" d="M98.72,303.83c-.3.37-.58.75-.85,1.14C98.14,304.58,98.42,304.2,98.72,303.83Z"/><path class="cls-13" d="M100.8,301.73c-.24.2-.47.41-.7.63C100.33,302.14,100.56,301.93,100.8,301.73Z"/><path class="cls-13" d="M98.93,303.59c.25-.29.51-.58.78-.85C99.44,303,99.18,303.3,98.93,303.59Z"/><path class="cls-13" d="M120.73,300.49c-.31-.21-.62-.39-.94-.58C120.11,300.1,120.42,300.28,120.73,300.49Z"/><path class="cls-13" d="M117.76,298.94c-.34-.14-.68-.27-1-.38C117.08,298.67,117.42,298.8,117.76,298.94Z"/><path class="cls-13" d="M119.46,299.72c-.43-.23-.87-.44-1.32-.64C118.59,299.28,119,299.49,119.46,299.72Z"/><path class="cls-13" d="M123.07,302.36c-.23-.22-.45-.43-.69-.63C122.62,301.93,122.84,302.14,123.07,302.36Z"/><path class="cls-13" d="M109.53,297.88l-1,.16Z"/><path class="cls-13" d="M121.93,301.36c-.24-.19-.49-.38-.75-.56C121.44,301,121.69,301.17,121.93,301.36Z"/><path class="cls-13" d="M116.21,298.41c-.32-.1-.64-.18-1-.25C115.57,298.23,115.89,298.31,116.21,298.41Z"/><path class="cls-13" d="M111.59,297.74c-.53,0-1,0-1.57.08C110.54,297.77,111.06,297.74,111.59,297.74Z"/><path class="cls-13" d="M113.16,297.82c-.52-.05-1-.08-1.57-.08C112.12,297.74,112.64,297.77,113.16,297.82Z"/><path class="cls-13" d="M114.69,298l-1-.16Z"/><path class="cls-13" d="M117.72,329.85l.1,0c-.27.11-.55.2-.83.3l.24-.08C117.39,330,117.56,329.92,117.72,329.85Z"/><path class="cls-13" d="M107.59,334.62c-.26-.05-.51-.12-.77-.18C107.08,334.5,107.33,334.57,107.59,334.62Z"/><path class="cls-13" d="M109.56,334.92l-.66-.1Z"/><path class="cls-13" d="M114.27,334.82l-.65.1Z"/><path class="cls-13" d="M116.35,334.44c-.25.06-.5.13-.76.18C115.85,334.57,116.1,334.5,116.35,334.44Z"/><path class="cls-13" d="M118.29,333.89l-.8.26Z"/><path class="cls-13" d="M98.92,330.65c-.24-.19-.49-.38-.72-.58C98.43,330.27,98.68,330.46,98.92,330.65Z"/><path class="cls-13" d="M120.11,333.16l-.79.35Z"/><path class="cls-13" d="M100.46,331.75l-.75-.51Z"/><path class="cls-13" d="M105.68,334.15l-.79-.26Z"/><path class="cls-13" d="M103.86,333.51l-.8-.35Z"/><path class="cls-13" d="M102.11,332.7l-.78-.42Z"/><path class="cls-13" d="M131.53,319.61c-.1.38-.19.76-.31,1.13C131.34,320.37,131.43,320,131.53,319.61Z"/><path class="cls-13" d="M130.39,322.85a20.64,20.64,0,0,1-1.26,2.37A20.64,20.64,0,0,0,130.39,322.85Z"/><path class="cls-13" d="M131,321.4c-.14.38-.27.77-.43,1.14C130.7,322.17,130.83,321.78,131,321.4Z"/><path class="cls-13" d="M128.77,325.8c-.19.29-.4.56-.61.84C128.37,326.36,128.58,326.09,128.77,325.8Z"/><path class="cls-13" d="M131.93,317.72c-.06.38-.12.76-.21,1.14C131.81,318.48,131.87,318.1,131.93,317.72Z"/><path class="cls-13" d="M121.84,332.28c-.26.14-.51.29-.78.42C121.33,332.57,121.58,332.42,121.84,332.28Z"/><path class="cls-13" d="M97.49,329.42c-.23-.21-.47-.43-.69-.66C97,329,97.26,329.21,97.49,329.42Z"/><path class="cls-13" d="M125,330.07c-.23.2-.47.39-.71.58C124.5,330.46,124.74,330.27,125,330.07Z"/><path class="cls-13" d="M123.46,331.24c-.24.18-.49.34-.75.5C123,331.58,123.22,331.42,123.46,331.24Z"/><path class="cls-13" d="M127.64,327.34l-.64.74Z"/><path class="cls-13" d="M126.37,328.77l-.68.65Z"/><path class="cls-13" d="M92,320.74c-.12-.37-.22-.75-.31-1.13C91.74,320,91.84,320.37,92,320.74Z"/><path class="cls-13" d="M125.73,323.12c-.09.15-.17.31-.27.45l0,0C125.57,323.41,125.65,323.26,125.73,323.12Z"/><path class="cls-13" d="M121.73,327.56l.07-.06-.63.48a.71.71,0,0,1,.14-.1C121.46,327.78,121.59,327.67,121.73,327.56Z"/><path class="cls-13" d="M125,324.27c-.11.16-.23.32-.35.47l.08-.09Z"/><path class="cls-13" d="M120.49,328.43l.07,0-.7.42.31-.17Z"/><path class="cls-13" d="M124,325.43l-.38.42.16-.16Z"/><path class="cls-13" d="M122.81,326.66l.15-.15-.57.52h0Z"/><path class="cls-13" d="M113.13,331c-.51,0-1,.08-1.54.08.49,0,1,0,1.45-.07Z"/><path class="cls-13" d="M114.66,330.73c-.29.06-.6.1-.9.14l.71-.1Z"/><path class="cls-13" d="M116.25,330.35c-.27.08-.54.15-.82.21l.43-.1Z"/><path class="cls-13" d="M123.47,302.74c.26.27.52.56.77.85C124,303.3,123.73,303,123.47,302.74Z"/><path class="cls-13" d="M119,329.29l.25-.13-.77.37.17-.08Z"/><path class="cls-13" d="M111.59,331c-.52,0-1,0-1.55-.08h.09C110.61,331,111.1,331,111.59,331Z"/><path class="cls-13" d="M91.45,318.86c-.08-.38-.14-.76-.2-1.14C91.31,318.1,91.37,318.48,91.45,318.86Z"/><path class="cls-13" d="M92.63,322.54c-.16-.37-.29-.76-.43-1.14C92.34,321.78,92.47,322.17,92.63,322.54Z"/><path class="cls-13" d="M96.18,328.08c-.22-.25-.44-.49-.64-.74C95.74,327.59,96,327.83,96.18,328.08Z"/><path class="cls-13" d="M94.05,325.22a20.71,20.71,0,0,1-1.27-2.37A20.71,20.71,0,0,0,94.05,325.22Z"/><path class="cls-13" d="M95,326.64c-.2-.28-.41-.55-.61-.84C94.6,326.09,94.81,326.36,95,326.64Z"/><path class="cls-13" d="M96,320.05c-.07-.18-.14-.36-.2-.54C95.82,319.69,95.89,319.87,96,320.05Z"/><path class="cls-13" d="M126.78,321.15a.17.17,0,0,1,0,.05s0,0,0-.05Z"/><path class="cls-13" d="M127.83,318c0,.21-.11.41-.16.61C127.72,318.4,127.78,318.2,127.83,318Z"/><path class="cls-13" d="M95.51,318.6a6.06,6.06,0,0,1-.16-.61A6.06,6.06,0,0,0,95.51,318.6Z"/><path class="cls-13" d="M127.42,319.51c-.06.18-.13.36-.2.54C127.29,319.87,127.36,319.69,127.42,319.51Z"/><path class="cls-13" d="M99.55,325.85l-.39-.42c.08.08.15.17.23.26Z"/><path class="cls-13" d="M111.59,293.75A20.64,20.64,0,0,0,91,314.38a21.21,21.21,0,0,0,.19,2.66,2,2,0,0,1,4-.42c0,.16.06.3.08.46a17.16,17.16,0,0,1-.23-2.7,16.74,16.74,0,0,1,.71-4.83l0,.09a.66.66,0,1,1-1.27-.37,18,18,0,0,1,34.46,0,.67.67,0,0,1-.64.85.68.68,0,0,1-.64-.48l0-.08a16.3,16.3,0,0,1,.72,4.82,16,16,0,0,1-.24,2.7l.09-.46A2,2,0,0,1,132,317a19.48,19.48,0,0,0,.19-2.66A20.63,20.63,0,0,0,111.59,293.75Z"/><path class="cls-14" d="M96.17,308.14c.08-.19.16-.38.25-.57s.24-.54.38-.8.19-.36.29-.54.32-.54.48-.8.19-.31.3-.46c.27-.39.55-.77.85-1.14.07-.08.15-.16.21-.24.25-.29.51-.58.78-.85l.39-.38c.23-.22.46-.43.7-.63s.29-.25.44-.37.5-.38.76-.56.29-.21.44-.31c.31-.21.63-.4,1-.58l.32-.19c.43-.23.88-.44,1.33-.64l.37-.14c.34-.14.69-.27,1-.38.17-.06.34-.1.52-.15s.64-.18,1-.25l.55-.12,1-.16.49-.06c.52-.05,1-.08,1.57-.08s1,0,1.57.08l.49.06,1,.16.55.12c.33.07.65.15,1,.25s.35.09.52.15c.35.11.69.24,1,.38l.38.14c.45.2.89.41,1.32.64l.33.19c.32.19.63.37.94.58l.45.31c.26.18.51.37.75.56l.45.37c.24.2.46.41.69.63l.4.38c.26.27.52.56.77.85l.21.24c.3.37.59.75.86,1.14.1.15.2.31.29.47s.33.52.48.79.2.36.3.55.26.52.38.78.17.39.25.58.22.58.32.88.13.35.18.54l0,.08a.68.68,0,0,0,.64.48.67.67,0,0,0,.64-.85,18,18,0,0,0-34.46,0,.66.66,0,1,0,1.27.37l0-.09c.06-.18.12-.35.19-.53S96.05,308.43,96.17,308.14Z"/><path class="cls-15" d="M131.72,318.86c-.05.25-.12.5-.19.75C131.6,319.36,131.67,319.11,131.72,318.86Z"/><path class="cls-15" d="M104.89,333.89l-1-.38Z"/><path class="cls-15" d="M92.2,321.4c-.08-.22-.17-.44-.24-.66C92,321,92.12,321.18,92.2,321.4Z"/><path class="cls-15" d="M94.4,325.8l-.35-.58Z"/><path class="cls-15" d="M119.32,333.51l-1,.38Z"/><path class="cls-15" d="M106.82,334.44c-.38-.09-.76-.18-1.14-.29C106.06,334.26,106.44,334.35,106.82,334.44Z"/><path class="cls-15" d="M95.54,327.34c-.19-.23-.35-.47-.53-.7C95.19,326.88,95.35,327.11,95.54,327.34Z"/><path class="cls-15" d="M92.78,322.85c0-.1-.1-.2-.15-.31C92.68,322.65,92.74,322.75,92.78,322.85Z"/><path class="cls-15" d="M132,317.16a.48.48,0,0,0,0-.12c0,.22-.06.45-.1.68C132,317.53,132,317.35,132,317.16Z"/><path class="cls-15" d="M125.69,329.42c-.24.22-.47.44-.72.65C125.22,329.86,125.45,329.64,125.69,329.42Z"/><path class="cls-15" d="M127,328.08c-.21.23-.41.46-.63.69C126.59,328.54,126.79,328.31,127,328.08Z"/><path class="cls-15" d="M99.71,331.24c-.27-.19-.53-.39-.79-.59C99.18,330.85,99.44,331.05,99.71,331.24Z"/><path class="cls-15" d="M121.06,332.7l-1,.46Z"/><path class="cls-15" d="M103.06,333.16l-1-.46Z"/><path class="cls-15" d="M122.71,331.74c-.28.19-.58.37-.87.54C122.13,332.11,122.43,331.93,122.71,331.74Z"/><path class="cls-15" d="M101.33,332.28l-.87-.53Z"/><path class="cls-15" d="M124.26,330.65l-.8.59Z"/><path class="cls-15" d="M91.14,317.16c0,.19.07.37.11.56,0-.23-.08-.45-.11-.68Z"/><path class="cls-15" d="M129.13,325.22c-.12.19-.23.39-.36.58C128.9,325.61,129,325.41,129.13,325.22Z"/><path class="cls-15" d="M98.2,330.07c-.25-.21-.48-.43-.71-.65C97.72,329.64,98,329.86,98.2,330.07Z"/><path class="cls-15" d="M115.59,334.62c-.43.09-.88.15-1.32.2C114.71,334.77,115.15,334.71,115.59,334.62Z"/><path class="cls-15" d="M111.59,335c-.69,0-1.36,0-2-.1C110.23,335,110.9,335,111.59,335Z"/><path class="cls-15" d="M113.62,334.92c-.67.06-1.35.1-2,.1C112.27,335,113,335,113.62,334.92Z"/><path class="cls-15" d="M130.54,322.54l-.15.31Z"/><path class="cls-15" d="M108.9,334.82c-.44-.05-.88-.11-1.31-.2C108,334.71,108.46,334.77,108.9,334.82Z"/><path class="cls-15" d="M131.22,320.74l-.25.66Z"/><path class="cls-15" d="M128.16,326.64c-.17.23-.34.47-.52.7C127.82,327.11,128,326.87,128.16,326.64Z"/><path class="cls-15" d="M117.49,334.15c-.37.11-.75.2-1.14.29C116.74,334.35,117.12,334.26,117.49,334.15Z"/><path class="cls-15" d="M96.8,328.76c-.21-.22-.41-.45-.62-.68C96.39,328.31,96.59,328.54,96.8,328.76Z"/><path class="cls-15" d="M91.65,319.61c-.07-.25-.14-.5-.2-.75C91.51,319.11,91.58,319.36,91.65,319.61Z"/><path class="cls-15" d="M97.7,323.55c-.09-.14-.17-.29-.26-.44s-.28-.44-.41-.67C97.24,322.82,97.46,323.19,97.7,323.55Z"/><path class="cls-15" d="M122,327.37l-.18.13-.07.06Z"/><path class="cls-15" d="M118,329.75l-.16.06-.1,0Z"/><path class="cls-15" d="M96.74,321.87c-.11-.21-.21-.42-.31-.64l0-.08C96.5,321.39,96.62,321.63,96.74,321.87Z"/><path class="cls-15" d="M120.17,328.64l-.31.17-.08.05C119.91,328.78,120.05,328.72,120.17,328.64Z"/><path class="cls-15" d="M121.31,327.88a.71.71,0,0,0-.14.1l-.13.09Z"/><path class="cls-15" d="M120.59,328.37l0,0-.07,0Z"/><polygon class="cls-15" points="122.39 327.03 122.39 327.03 122.38 327.04 122.39 327.03"/><path class="cls-15" d="M124.19,325.24l-.18.19-.22.26Z"/><path class="cls-15" d="M99.39,325.69c-.08-.09-.15-.18-.23-.26l-.17-.19Z"/><path class="cls-15" d="M118.63,329.45l-.17.08-.11.05Z"/><path class="cls-15" d="M119.3,329.12l-.07,0-.25.13Z"/><path class="cls-15" d="M123.2,326.29l-.24.22-.15.15Z"/><path class="cls-15" d="M98.5,324.65c-.1-.12-.19-.26-.28-.38l-.15-.2C98.21,324.26,98.35,324.46,98.5,324.65Z"/><path class="cls-15" d="M104.19,329.29l-.24-.13-.08,0Z"/><path class="cls-15" d="M111.59,331c-.49,0-1,0-1.46-.07C110.61,331,111.1,331,111.59,331Z"/><path class="cls-15" d="M126.78,321.15s0,0,0,.05c-.1.23-.21.45-.32.67C126.56,321.63,126.68,321.39,126.78,321.15Z"/><path class="cls-15" d="M126.15,322.44c-.13.23-.28.45-.42.68s-.16.29-.25.43C125.71,323.19,125.94,322.82,126.15,322.44Z"/><path class="cls-15" d="M103.39,328.86l-.07-.05-.32-.17Z"/><path class="cls-15" d="M117.23,330l-.24.08-.37.14Z"/><path class="cls-15" d="M104.82,329.58l-.11-.05-.16-.08Z"/><path class="cls-15" d="M108,330.63l-.27-.07-.43-.1Z"/><path class="cls-15" d="M106.56,330.25l-.38-.14-.24-.08Z"/><path class="cls-15" d="M109.58,330.89l-.16,0-.71-.1Q109.13,330.85,109.58,330.89Z"/><path class="cls-15" d="M105.46,329.85l-.11,0a.76.76,0,0,0-.16-.06Z"/><path class="cls-15" d="M111.59,331c.49,0,1,0,1.45-.07C112.56,331,112.08,331,111.59,331Z"/><path class="cls-15" d="M102.68,328.43l-.06,0,0,0Z"/><path class="cls-15" d="M115.86,330.46l-.43.1-.27.07Z"/><path class="cls-15" d="M101.44,327.56l-.07-.06-.18-.13Z"/><path class="cls-15" d="M100.37,326.66l-.15-.15-.25-.22Z"/><polygon class="cls-15" points="100.79 327.04 100.79 327.03 100.79 327.03 100.79 327.04"/><path class="cls-15" d="M130.05,314.92a2,2,0,0,0-2,1.7l-.09.46c0,.3-.1.61-.16.91s-.11.41-.16.61-.16.61-.25.91-.13.36-.2.54-.11.3-.17.45l.13-.3a.67.67,0,1,1,1.26.45,18,18,0,0,1-33.7,0,.67.67,0,0,1,.63-.9.65.65,0,0,1,.62.45l.13.3c-.06-.15-.11-.3-.16-.45s-.14-.36-.2-.54-.17-.6-.25-.91a6.06,6.06,0,0,1-.16-.61c-.07-.3-.12-.61-.17-.91s-.06-.3-.08-.46a2,2,0,0,0-4,.42c0,.23.07.45.11.68s.12.76.2,1.14.13.5.2.75.19.76.31,1.13c.07.22.16.44.24.66.14.38.27.77.43,1.14.05.11.11.21.15.31a20.71,20.71,0,0,0,1.27,2.37l.35.58c.2.29.41.56.61.84s.34.47.53.7.42.49.64.74.41.46.62.68.46.45.69.66.46.44.71.65.48.39.72.58.52.4.79.59l.75.51.87.53.78.42,1,.46.8.35,1,.38.79.26c.38.11.76.2,1.14.29s.51.13.77.18c.43.09.87.15,1.31.2l.66.1c.67.06,1.34.1,2,.1s1.36,0,2-.1l.65-.1c.44-.05.89-.11,1.32-.2.26-.05.51-.12.76-.18s.77-.18,1.14-.29l.8-.26,1-.38.79-.35,1-.46c.27-.13.52-.28.78-.42s.59-.35.87-.54.51-.32.75-.5l.8-.59c.24-.19.48-.38.71-.58s.48-.43.72-.65l.68-.65c.22-.23.42-.46.63-.69l.64-.74c.18-.23.35-.47.52-.7s.42-.55.61-.84.24-.39.36-.58a20.64,20.64,0,0,0,1.26-2.37l.15-.31c.16-.37.29-.76.43-1.14l.25-.66c.12-.37.21-.75.31-1.13s.14-.5.19-.75.15-.76.21-1.14.07-.46.1-.68A2,2,0,0,0,130.05,314.92Z"/><path class="cls-15" d="M102.14,328.07,102,328l-.15-.1Z"/><path class="cls-15" d="M125.1,324.07l-.15.2-.27.38Z"/><path class="cls-15" d="M114.47,330.77l-.71.1-.16,0Q114,330.85,114.47,330.77Z"/><path class="cls-10" d="M95.51,318.6c.08.31.15.61.25.91s.13.36.2.54.14.4.22.6l.21.49,0,.09c.11.25.23.49.36.74l.21.42c.14.25.29.48.44.72s.18.31.28.46l.12.18.38.52c.12.15.23.32.35.47l.26.31.33.38.39.42.23.24.44.42c.18.18.37.35.57.52s.38.32.58.47.42.33.64.48l.61.41c.23.14.46.29.7.42s.41.24.63.35l.76.37.64.28c.27.11.55.2.83.3l.6.2.14,0c.27.08.55.15.82.21l.44.1.33.07c.3.06.6.1.91.14l.25,0,.37.05c.51,0,1,.08,1.55.08s1,0,1.54-.08l.38-.05.25,0c.3,0,.61-.08.9-.14l.34-.07.43-.1c.28-.06.55-.13.82-.21l.14,0,.6-.2c.28-.1.56-.19.83-.3l.64-.28.77-.37.63-.35.7-.42.61-.41.63-.48.59-.47.57-.52.44-.42.23-.24.38-.42.34-.39.25-.3c.12-.15.24-.31.35-.47l.38-.52.13-.18c.1-.14.18-.3.27-.45s.3-.48.44-.73.14-.28.22-.42.25-.51.37-.77a.17.17,0,0,0,0-.05c.08-.17.14-.33.21-.5s.16-.4.23-.6.14-.36.2-.54.17-.61.25-.91.11-.4.16-.61.11-.61.16-.91a16,16,0,0,0,.24-2.7,16.3,16.3,0,0,0-.72-4.82c-.05-.19-.12-.36-.18-.54s-.21-.59-.32-.88l-.25-.58c-.12-.26-.25-.53-.38-.78s-.19-.37-.3-.55-.31-.53-.48-.79-.19-.32-.29-.47c-.27-.39-.56-.77-.86-1.14l-.21-.24c-.25-.29-.51-.58-.77-.85l-.4-.38c-.23-.22-.45-.43-.69-.63l-.45-.37c-.24-.19-.49-.38-.75-.56l-.45-.31c-.31-.21-.62-.39-.94-.58l-.33-.19c-.43-.23-.87-.44-1.32-.64l-.38-.14c-.34-.14-.68-.27-1-.38-.17-.06-.35-.1-.52-.15s-.64-.18-1-.25l-.55-.12-1-.16-.49-.06c-.52-.05-1-.08-1.57-.08s-1,0-1.57.08l-.49.06-1,.16-.55.12c-.32.07-.65.15-1,.25s-.35.09-.52.15c-.35.11-.7.24-1,.38l-.37.14c-.45.2-.9.41-1.33.64l-.32.19c-.32.18-.64.37-1,.58-.15.1-.3.2-.44.31s-.51.37-.76.56-.3.24-.44.37-.47.41-.7.63l-.39.38c-.27.27-.53.56-.78.85-.06.08-.14.16-.21.24-.3.37-.58.75-.85,1.14-.11.15-.2.31-.3.46s-.33.53-.48.8-.2.36-.29.54-.26.53-.38.8-.17.38-.25.57-.22.58-.32.88-.13.35-.19.53a16.74,16.74,0,0,0-.71,4.83,17.16,17.16,0,0,0,.23,2.7c0,.3.1.61.17.91A6.06,6.06,0,0,0,95.51,318.6Zm16.21,11h-.6V328h.6ZM125.2,314h1.6v.6h-1.6Zm-3.12-10.78.43.42-1.13,1.13-.43-.42Zm-.7,20.61,1.13,1.13-.43.43L121,324.21Zm-10.26-24.91h.6v1.6h-.6Zm-.38,4.46a.8.8,0,1,1,1.6,0v11.39l7,5.9a.78.78,0,0,1,.09,1.12.79.79,0,0,1-1.12.1l-7.23-6.11a.72.72,0,0,1-.21-.31.8.8,0,0,1-.11-.37Zm-10-.16,1.13,1.13-.42.42-1.13-1.13Zm.71,20.61.42.43-1.13,1.13-.42-.43ZM97.64,314v.6H96V314Z"/><path class="cls-10" d="M122.38,301.73l-.45-.37Z"/><path class="cls-10" d="M103.71,299.72l-.32.19Z"/><path class="cls-10" d="M105.41,298.94l-.37.14Z"/><path class="cls-10" d="M102.44,300.49c-.15.1-.3.2-.44.31C102.14,300.69,102.29,300.59,102.44,300.49Z"/><path class="cls-10" d="M115.24,298.16l-.55-.12Z"/><path class="cls-10" d="M107,298.41c-.18,0-.35.09-.52.15C106.62,298.5,106.79,298.46,107,298.41Z"/><path class="cls-10" d="M113.65,297.88l-.49-.06Z"/><path class="cls-10" d="M101.24,301.36c-.15.12-.3.24-.44.37C100.94,301.6,101.09,301.48,101.24,301.36Z"/><path class="cls-10" d="M110,297.82l-.49.06Z"/><path class="cls-10" d="M99.71,302.74l.39-.38Z"/><path class="cls-10" d="M123.07,302.36l.4.38Z"/><path class="cls-10" d="M95.66,309.55c.06-.18.12-.35.19-.53C95.78,309.2,95.72,309.37,95.66,309.55Z"/><path class="cls-10" d="M98.93,303.59c-.06.08-.14.16-.21.24C98.79,303.75,98.87,303.67,98.93,303.59Z"/><path class="cls-10" d="M97.87,305c-.11.15-.2.31-.3.46C97.67,305.28,97.76,305.12,97.87,305Z"/><path class="cls-10" d="M97.09,306.23c-.1.18-.2.36-.29.54C96.89,306.59,97,306.41,97.09,306.23Z"/><path class="cls-10" d="M96.42,307.57c-.09.19-.17.38-.25.57C96.25,308,96.33,307.76,96.42,307.57Z"/><path class="cls-10" d="M108.48,298l-.55.12Z"/><path class="cls-10" d="M119.79,299.91l-.33-.19Z"/><path class="cls-10" d="M121.18,300.8l-.45-.31Z"/><path class="cls-10" d="M124.45,303.83l-.21-.24Z"/><path class="cls-10" d="M125.6,305.44c-.09-.16-.19-.32-.29-.47C125.41,305.12,125.51,305.28,125.6,305.44Z"/><path class="cls-10" d="M127.51,309.56c-.05-.19-.12-.36-.18-.54C127.39,309.2,127.46,309.37,127.51,309.56Z"/><path class="cls-10" d="M126.38,306.78c-.1-.19-.19-.37-.3-.55C126.19,306.41,126.28,306.59,126.38,306.78Z"/><path class="cls-10" d="M127,308.14c-.08-.19-.17-.38-.25-.58Z"/><path class="cls-10" d="M116.73,298.56c-.17-.06-.35-.1-.52-.15C116.38,298.46,116.56,298.5,116.73,298.56Z"/><path class="cls-10" d="M118.14,299.08l-.38-.14Z"/><path class="cls-10" d="M109.67,330.9l-.25,0,.16,0Z"/><path class="cls-10" d="M124.35,325l-.34.39.18-.19Z"/><path class="cls-10" d="M95.76,319.51c-.1-.3-.17-.6-.25-.91C95.59,318.91,95.66,319.21,95.76,319.51Z"/><path class="cls-10" d="M108.18,330.66l-.44-.1.27.07Z"/><path class="cls-10" d="M122.38,327h0l-.59.47.18-.13Z"/><path class="cls-10" d="M127.67,318.6c-.08.3-.16.61-.25.91C127.51,319.21,127.59,318.9,127.67,318.6Z"/><path class="cls-10" d="M119.78,328.86l.08-.05-.63.35.07,0Z"/><path class="cls-10" d="M123.4,326.09l-.44.42.24-.22Z"/><path class="cls-10" d="M117,330.11l-.6.2.23-.06Z"/><path class="cls-10" d="M125.33,323.75l-.38.52.15-.2C125.18,324,125.26,323.86,125.33,323.75Z"/><path class="cls-10" d="M121,328.07l.13-.09-.61.41,0,0Z"/><path class="cls-10" d="M113.76,330.87l-.25,0h.09Z"/><path class="cls-10" d="M115.43,330.56l-.43.1.16,0Z"/><path class="cls-10" d="M96,320.05c.05.15.1.3.16.45l.06.15C96.1,320.45,96,320.25,96,320.05Z"/><path class="cls-10" d="M126.17,322.39c-.14.25-.29.49-.44.73.14-.23.29-.45.42-.68C126.15,322.42,126.16,322.41,126.17,322.39Z"/><path class="cls-10" d="M118.35,329.58l.11-.05-.64.28.16-.06Z"/><path class="cls-10" d="M126.76,321.2c-.12.26-.24.51-.37.77l0-.1C126.55,321.65,126.66,321.43,126.76,321.2Z"/><path class="cls-10" d="M128,317.08c0,.3-.1.61-.16.91C127.89,317.69,127.94,317.38,128,317.08Z"/><path class="cls-10" d="M99.16,325.43l-.33-.38.16.19Z"/><path class="cls-10" d="M101.19,327.37l.18.13c-.2-.15-.39-.31-.58-.47h0Z"/><path class="cls-10" d="M100.22,326.51l-.44-.42.19.2Z"/><path class="cls-10" d="M102.59,328.37l0,0L102,328l.13.09Z"/><path class="cls-10" d="M95.18,317.08c0,.3.1.61.17.91C95.28,317.69,95.23,317.38,95.18,317.08Z"/><path class="cls-10" d="M127.05,320.5c.06-.15.12-.3.17-.45-.07.2-.15.4-.23.6Z"/><path class="cls-10" d="M103.87,329.12l.08,0c-.22-.11-.42-.23-.63-.35l.07.05Z"/><path class="cls-10" d="M98.22,324.27l-.38-.52c.08.11.16.21.23.32Z"/><path class="cls-10" d="M96.79,322c-.13-.25-.25-.49-.36-.74.1.22.2.43.31.64Z"/><path class="cls-10" d="M97.44,323.11c-.15-.24-.3-.47-.44-.72l0,.05C97.16,322.67,97.3,322.89,97.44,323.11Z"/><path class="cls-10" d="M105.19,329.75a.76.76,0,0,1,.16.06l-.64-.28.11.05Z"/><path class="cls-10" d="M106.78,330.31l-.6-.2.38.14Z"/><path class="cls-13" d="M120.49,328.43l-.32.21Z"/><path class="cls-13" d="M98.64,324.83l-.07-.09-.07-.09Z"/><path class="cls-13" d="M97.73,323.59v0l0,0Z"/><path class="cls-13" d="M117.72,329.85c-.16.07-.33.12-.49.18C117.39,330,117.56,329.92,117.72,329.85Z"/><path class="cls-13" d="M107.31,330.46l-.39-.11-.09,0Z"/><path class="cls-13" d="M108.71,330.77l-.2,0-.15,0Z"/><path class="cls-13" d="M116.35,330.33l-.1,0-.39.11Z"/><path class="cls-13" d="M99.66,326l-.11-.13-.16-.16Z"/><path class="cls-13" d="M119,329.29l-.35.16Z"/><path class="cls-13" d="M125.48,323.55l0,0v0Z"/><path class="cls-13" d="M124.68,324.65l-.08.09-.07.09Z"/><path class="cls-13" d="M126.87,321c0,.06-.06.12-.09.19h0A1.63,1.63,0,0,0,126.87,321Z"/><path class="cls-13" d="M122.81,326.66l-.42.37Z"/><path class="cls-13" d="M123.79,325.69l-.16.16-.12.13Z"/><path class="cls-13" d="M96.39,321.15h0L96.3,321Z"/><path class="cls-13" d="M121.73,327.56c-.14.11-.27.22-.42.32C121.46,327.78,121.59,327.67,121.73,327.56Z"/><path class="cls-13" d="M110.13,331H110Z"/><path class="cls-13" d="M101.86,327.88l-.42-.32Z"/><path class="cls-13" d="M114.81,330.71l-.15,0-.19,0Z"/><path class="cls-13" d="M104.55,329.45l-.36-.16Z"/><path class="cls-13" d="M100.79,327l-.42-.37Z"/><path class="cls-13" d="M105.94,330l-.48-.18Z"/><path class="cls-13" d="M113.22,330.94H113Z"/><path class="cls-13" d="M103,328.64l-.32-.21Z"/><path class="cls-13" d="M126.78,321.15c-.1.24-.22.48-.34.72l-.29.57c-.21.38-.44.75-.67,1.11l0,0-.35.48-.42.58-.15.18-.34.41-.4.45-.28.29-.31.31-.39.37-.42.37h0l-.4.33-.25.19c-.14.11-.27.22-.42.32l-.27.19-.45.3-.1.06-.32.21c-.12.08-.26.14-.39.22l-.48.26-.32.17-.35.16-.28.13-.37.17-.26.1c-.16.07-.33.12-.49.18l-.61.22-.27.08-.49.13-.7.17-.35.08-.34.06q-.43.08-.87.12l-.38.05-.18,0c-.48,0-1,.07-1.45.07s-1,0-1.46-.07l-.18,0-.37-.05q-.45,0-.87-.12l-.35-.06-.35-.08-.7-.17-.48-.13-.27-.08-.62-.22-.48-.18-.27-.1-.37-.17-.27-.13-.36-.16-.32-.17-.48-.26-.39-.22-.32-.21-.09-.06-.45-.3-.28-.19-.42-.32-.25-.19-.4-.33h0l-.42-.37-.4-.37c-.1-.1-.2-.21-.31-.31l-.27-.29-.4-.45c-.12-.14-.24-.27-.35-.41l-.14-.18c-.15-.19-.29-.39-.43-.58l-.34-.48,0,0c-.24-.36-.46-.73-.67-1.11l-.29-.57c-.12-.24-.24-.48-.35-.72L96.3,321l-.18-.46-.13-.3a.65.65,0,0,0-.62-.45.67.67,0,0,0-.63.9,18,18,0,0,0,33.7,0,.67.67,0,1,0-1.26-.45l-.13.3c-.06.15-.11.31-.18.46A1.63,1.63,0,0,1,126.78,321.15Z"/><path class="cls-13" d="M106.92,330.35l-.14,0,0,0Z"/><path class="cls-13" d="M113.51,330.9l-.38.05h.09Z"/><path class="cls-13" d="M96.39,321.14l-.21-.49c0,.1.08.21.12.31Z"/><path class="cls-13" d="M123.63,325.85l-.23.24.11-.11Z"/><path class="cls-13" d="M124.6,324.74l-.25.3.18-.21Z"/><path class="cls-13" d="M97.84,323.75l-.12-.18v0C97.76,323.64,97.81,323.69,97.84,323.75Z"/><path class="cls-13" d="M115,330.66l-.34.07.15,0Z"/><path class="cls-13" d="M127,320.65c-.07.17-.13.33-.21.5,0-.07.07-.13.09-.19S127,320.75,127,320.65Z"/><path class="cls-13" d="M110,331l-.37-.05.28,0Z"/><path class="cls-13" d="M126.17,322.39c.08-.14.14-.28.22-.42C126.31,322.11,126.25,322.25,126.17,322.39Z"/><path class="cls-13" d="M96.79,322l.21.42Z"/><path class="cls-13" d="M99.78,326.09l-.23-.24.11.13Z"/><path class="cls-13" d="M98.83,325.05l-.26-.31.07.09C98.7,324.9,98.77,325,98.83,325.05Z"/><path class="cls-13" d="M116.39,330.31l-.14,0,.1,0Z"/><path class="cls-13" d="M125.46,323.57l-.13.18.12-.16Z"/><path class="cls-13" d="M108.51,330.73l-.33-.07.18,0Z"/><path class="cls-13" d="M106.83,330.33l0,0-.22-.06Z"/><path class="cls-13" d="M123.51,326l-.11.11-.2.2Z"/><path class="cls-13" d="M96.18,320.65l-.06-.15.18.46C96.26,320.86,96.23,320.75,96.18,320.65Z"/><path class="cls-13" d="M125.45,323.59l-.12.16c-.07.11-.15.21-.23.32Z"/><path class="cls-13" d="M126.87,321c.07-.15.12-.31.18-.46l-.06.15C127,320.75,126.92,320.86,126.87,321Z"/><path class="cls-13" d="M126.44,321.87l0,.1c-.08.14-.14.28-.22.42s0,0,0,.05Z"/><path class="cls-13" d="M124.53,324.83l-.18.21-.16.2Z"/><path class="cls-13" d="M103.87,329.12l-.48-.26Z"/><path class="cls-13" d="M108.36,330.71l-.18,0-.17,0Z"/><path class="cls-13" d="M118.35,329.58l-.37.17Z"/><path class="cls-13" d="M99,325.24l-.16-.19c-.06-.08-.13-.15-.19-.22C98.75,325,98.87,325.1,99,325.24Z"/><path class="cls-13" d="M115.16,330.63l-.16,0-.19,0Z"/><path class="cls-13" d="M119.78,328.86l-.48.26Z"/><path class="cls-13" d="M101.19,327.37l-.4-.33Z"/><path class="cls-13" d="M116.62,330.25l-.23.06,0,0Z"/><path class="cls-13" d="M110,330.94l-.28,0h-.09Z"/><path class="cls-13" d="M100,326.29l-.19-.2-.12-.11C99.77,326.08,99.87,326.19,100,326.29Z"/><path class="cls-13" d="M102.59,328.37l-.45-.3Z"/><path class="cls-13" d="M97,322.44l0-.05-.21-.42-.05-.1Z"/><path class="cls-13" d="M105.19,329.75l-.37-.17Z"/><path class="cls-13" d="M122.38,327l-.4.33Z"/><path class="cls-13" d="M113.6,330.89h-.09l-.29,0Z"/><path class="cls-13" d="M98.07,324.07c-.07-.11-.15-.21-.23-.32s-.08-.11-.11-.16Z"/><path class="cls-13" d="M121,328.07l-.45.3Z"/><path class="cls-13" d="M111,314.61a.79.79,0,0,1,1.12-.1l.25.21V303.33a.8.8,0,1,0-1.6,0v11.72a.8.8,0,0,0,.11.37A.77.77,0,0,1,111,314.61Z"/><path class="cls-13" d="M111.54,315.85a.79.79,0,0,1-.69-.43.72.72,0,0,0,.21.31l7.23,6.11a.79.79,0,0,0,1.12-.1.78.78,0,0,0-.09-1.12l-7-5.9v.33A.8.8,0,0,1,111.54,315.85Z"/><path class="cls-13" d="M111,314.61a.77.77,0,0,0-.12.81.79.79,0,0,0,.69.43.8.8,0,0,0,.8-.8v-.33l-.25-.21A.79.79,0,0,0,111,314.61Z"/><rect class="cls-16" x="111.12" y="298.87" width="0.6" height="1.6"/><rect class="cls-16" x="111.12" y="328.03" width="0.6" height="1.6"/><rect class="cls-16" x="96.04" y="313.95" width="1.6" height="0.6"/><rect class="cls-16" x="125.2" y="313.95" width="1.6" height="0.6"/><rect class="cls-16" x="100.81" y="303.14" width="0.6" height="1.6" transform="translate(-185.31 160.53) rotate(-45)"/><rect class="cls-16" x="121.43" y="323.76" width="0.6" height="1.6" transform="translate(-193.84 181.13) rotate(-45)"/><rect class="cls-16" x="100.31" y="324.26" width="1.6" height="0.6" transform="translate(-199.89 166.58) rotate(-45)"/><rect class="cls-16" x="120.93" y="303.64" width="1.6" height="0.6" transform="translate(-179.31 175.21) rotate(-45.02)"/><path class="cls-4" d="M285.83,95.62h91.7a1,1,0,0,1,1,1h26.22V77.27a1.3,1.3,0,0,0-1.29-1.3H261.26a1.3,1.3,0,0,0-1.3,1.3V96.58H284.8A1,1,0,0,1,285.83,95.62Z"/><path class="cls-4" d="M284.79,102.36v-5.7s0,0,0-.08H260v5.78Z"/><path class="cls-4" d="M378.57,96.66v5.7h26.2V96.58H378.55A.24.24,0,0,1,378.57,96.66Z"/><path class="cls-4" d="M404.77,102.36h-26.2v12.91a1,1,0,0,1-1,1h-91.7a1,1,0,0,1-1-1V102.36H260v20.12H404.77Z"/><path class="cls-4" d="M261.26,320.08H403.48a1.3,1.3,0,0,0,1.29-1.3V122.48H260v196.3A1.3,1.3,0,0,0,261.26,320.08Zm54.91-88.79H297.54a7.93,7.93,0,0,1,0-15.85h18.63a7.93,7.93,0,0,1,0,15.85Zm-11.73-37.92v-3.62h57.92v3.62ZM370,231.29H351.33a7.93,7.93,0,1,1,0-15.85H370a7.93,7.93,0,1,1,0,15.85ZM282.72,137H383.4v15.86H282.72Zm0,26.89H383.4v15.86H282.72Z"/><path class="cls-5" d="M377.53,95.62h-91.7a1,1,0,0,0-1,1h93.75A1,1,0,0,0,377.53,95.62Z"/><path class="cls-5" d="M378.57,96.66a.24.24,0,0,0,0-.08H284.8s0,0,0,.08v5.7h93.78Z"/><path class="cls-5" d="M285.83,116.31h91.7a1,1,0,0,0,1-1V102.36H284.79v12.91A1,1,0,0,0,285.83,116.31Z"/><path class="cls-17" d="M316.17,215.44H297.54a7.93,7.93,0,0,0,0,15.85h18.63a7.93,7.93,0,0,0,0-15.85Z"/><path class="cls-13" d="M370,215.44H351.33a7.93,7.93,0,1,0,0,15.85H370a7.93,7.93,0,1,0,0-15.85Z"/><rect class="cls-10" x="282.72" y="137" width="100.68" height="15.86"/><rect class="cls-10" x="282.72" y="163.89" width="100.68" height="15.86"/><rect class="cls-18" x="304.44" y="189.75" width="57.92" height="3.62"/><path class="cls-13" d="M723.35,254.74A20.15,20.15,0,0,0,713,237.13v35.22A20.15,20.15,0,0,0,723.35,254.74Z"/><path class="cls-13" d="M693.7,234.57v40.34h9.48a20.15,20.15,0,0,0,9.83-2.56V237.13a20.15,20.15,0,0,0-9.83-2.56Z"/><path class="cls-13" d="M635.82,269.59l.43,1.65a1.61,1.61,0,0,1,.07.49l0,3.18h57.4V234.57H635.82Z"/><path class="cls-13" d="M627.69,268.86c.18-.43.37-.85.55-1.23a1.87,1.87,0,0,1,3-.57l2.19,2,2.16-.55.28,1v-35h-8.13Z"/><polygon class="cls-13" points="627.98 274.91 627.69 274.59 627.69 274.91 627.98 274.91"/><path class="cls-13" d="M627.69,274.91v-.32l-.67-.72a1.84,1.84,0,0,1-.47-1.55,17,17,0,0,1,1.14-3.46V234.57h-26v40.34Z"/><path class="cls-13" d="M591.17,270.79l2.52,1.61,2-.92,1.18,2.53a1.92,1.92,0,0,1,.15.48l.07.42h4.56V234.57h-79.5a20.17,20.17,0,1,0,0,40.34h65.54a29.56,29.56,0,0,1,.66-3A1.86,1.86,0,0,1,591.17,270.79Z"/><path class="cls-4" d="M563,87.35A16.55,16.55,0,0,0,546.48,70.8H433.73A16.54,16.54,0,0,0,420,96.58H560.21A16.44,16.44,0,0,0,563,87.35ZM455.46,92.52a5.17,5.17,0,1,1,5.17-5.17A5.18,5.18,0,0,1,455.46,92.52Zm35.51,0a5.17,5.17,0,1,1,5.17-5.17A5.17,5.17,0,0,1,491,92.52Zm32.75,0a5.17,5.17,0,1,1,5.17-5.17A5.18,5.18,0,0,1,523.72,92.52Z"/><path class="cls-4" d="M426.79,102.36H553.42a16.58,16.58,0,0,0,6.79-5.78H420A16.64,16.64,0,0,0,426.79,102.36Z"/><path class="cls-4" d="M546.48,103.9a16.44,16.44,0,0,0,6.94-1.54H426.79a16.47,16.47,0,0,0,6.94,1.54Z"/><path class="cls-12" d="M455.46,82.18a5.17,5.17,0,1,0,5.17,5.17A5.17,5.17,0,0,0,455.46,82.18Z"/><path class="cls-19" d="M491,82.18a5.17,5.17,0,1,0,5.17,5.17A5.16,5.16,0,0,0,491,82.18Z"/><path class="cls-20" d="M523.72,82.18a5.17,5.17,0,1,0,5.17,5.17A5.17,5.17,0,0,0,523.72,82.18Z"/><path class="cls-21" d="M115.56,212.84a9.25,9.25,0,1,0,9.25,9.25A9.25,9.25,0,0,0,115.56,212.84Zm0,15.37a6.12,6.12,0,1,1,6.12-6.12A6.12,6.12,0,0,1,115.56,228.21Z"/><path class="cls-13" d="M128.43,206.84h-2.22l-3.19-4.5a1.35,1.35,0,0,0-1.1-.56H109.2a1.35,1.35,0,0,0-1.1.56l-3.19,4.5h-2.22a6.3,6.3,0,0,0-6.28,6.27v18.27a6.3,6.3,0,0,0,6.28,6.27h25.74a6.3,6.3,0,0,0,6.28-6.27V213.11A6.3,6.3,0,0,0,128.43,206.84Zm-13.06,27.81a12.6,12.6,0,1,1,12.6-12.6A12.6,12.6,0,0,1,115.37,234.65Z"/><path class="cls-13" d="M115.37,209.45a12.6,12.6,0,1,0,12.6,12.6A12.6,12.6,0,0,0,115.37,209.45Zm.19,21.89a9.25,9.25,0,1,1,9.25-9.25A9.25,9.25,0,0,1,115.56,231.34Z"/><circle class="cls-5" cx="115.56" cy="222.09" r="6.12"/><path class="cls-4" d="M462.1,210.67H569a2,2,0,0,0,2-2V139.83a2,2,0,0,0-2-2.05H462.1a2.05,2.05,0,0,0-2.05,2.05v68.79A2.05,2.05,0,0,0,462.1,210.67Zm8-65.1a2.92,2.92,0,0,1,4-1.14l41.46,23,41.47-23a2.92,2.92,0,0,1,2.83,5.1l-42.77,23.76a2.84,2.84,0,0,1-1.42.37h-.22a2.8,2.8,0,0,1-1.41-.37l-42.77-23.76A2.91,2.91,0,0,1,470.1,145.57Z"/><path class="cls-22" d="M471.24,149.53,514,173.29a2.8,2.8,0,0,0,1.41.37h.22a2.84,2.84,0,0,0,1.42-.37l42.77-23.76a2.92,2.92,0,0,0-2.83-5.1l-41.47,23-41.46-23a2.92,2.92,0,1,0-2.83,5.1Z"/><path class="cls-6" d="M693.64,29a29.63,29.63,0,0,1,.24-3.67H597.94a1.81,1.81,0,0,0-1.81,1.81V43.91H697.79A28.89,28.89,0,0,1,693.64,29Z"/><path class="cls-6" d="M713,56.29v146.9h18.87a1.81,1.81,0,0,0,1.81-1.81V55.72a29,29,0,0,1-20.68.57Z"/><path class="cls-6" d="M690.93,64.59a2.77,2.77,0,0,1,2.77,2.77v7.29h2.91c.49,0,.88.79.88,1.77s-.39,1.77-.88,1.77H693.7v75.5h1a.29.29,0,0,1,.3.3v2.94a.29.29,0,0,1-.3.3h-1v17.18h2.84c.49,0,.88.79.88,1.77S697,178,696.54,178H693.7v25.24H713V56.29a29.08,29.08,0,0,1-15.22-12.38H596.13V64.59Zm-59.75-19h52.43c.48,0,.88.79.88,1.77s-.4,1.78-.88,1.78H631.18c-.49,0-.89-.8-.89-1.78S630.69,45.59,631.18,45.59Zm45.11,9.1c0,1-.39,1.77-.88,1.77h-24.1c-.49,0-.89-.79-.89-1.77s.4-1.77.89-1.77h24.1C675.9,52.92,676.29,53.71,676.29,54.69Zm-45.11-1.77H647.9c.49,0,.88.79.88,1.77s-.39,1.77-.88,1.77H631.18c-.49,0-.89-.79-.89-1.77S630.69,52.92,631.18,52.92Zm0,7.32h65.43c.49,0,.88.79.88,1.77s-.39,1.78-.88,1.78H631.18c-.49,0-.89-.8-.89-1.78S630.69,60.24,631.18,60.24ZM617.7,45.59h9.16c.49,0,.88.79.88,1.77s-.39,1.78-.88,1.78H617.7c-.49,0-.89-.8-.89-1.78S617.21,45.59,617.7,45.59Z"/><path class="cls-6" d="M617,96.58c.16-.41.41-.67.69-.67h9.16c.28,0,.53.26.69.67h1.34a7.13,7.13,0,0,1,1.54.18c.15-.51.43-.85.75-.85H647.9c.49,0,.88.79.88,1.77s-.39,1.77-.88,1.77H634.5a7,7,0,0,1,1.26,3.24h17.15c.49,0,.88.8.88,1.77s-.39,1.78-.88,1.78H635.82v3.53h6.68c.49,0,.89.8.89,1.78s-.4,1.77-.89,1.77h-6.68v4h47.79c.48,0,.88.79.88,1.77s-.4,1.77-.88,1.77H635.82v3.78H647.9c.49,0,.88.79.88,1.77s-.39,1.78-.88,1.78H635.82V132h43a.27.27,0,0,1,.27.26v3a.27.27,0,0,1-.27.27h-43v3.78h17.09c.49,0,.88.79.88,1.77s-.39,1.78-.88,1.78H635.82v3.53h55.57a.31.31,0,0,1,.3.3v3a.31.31,0,0,1-.3.3H635.82v3.78h17.09c.49,0,.88.79.88,1.77s-.39,1.77-.88,1.77H635.82v3.07h47.79c.48,0,.88.79.88,1.77s-.4,1.77-.88,1.77H635.82v3.78H647.9c.49,0,.88.8.88,1.77s-.39,1.78-.88,1.78H635.82v3.24h17.09c.49,0,.88.79.88,1.77s-.39,1.77-.88,1.77H635.82v3.54h34.79a.24.24,0,0,1,.24.24v3.06a.24.24,0,0,1-.24.24H635.82v18.16H693.7V178H667.61c-.49,0-.88-.79-.88-1.77s.39-1.77.88-1.77H693.7V157.23H667a.29.29,0,0,1-.3-.3V154a.29.29,0,0,1,.3-.3H693.7V78.19H631.18c-.49,0-.89-.79-.89-1.77s.4-1.77.89-1.77H693.7V67.36a2.77,2.77,0,0,0-2.77-2.77h-94.8v32H617Zm58.4,31.6h-24.1c-.49,0-.89-.8-.89-1.78s.4-1.77.89-1.77h24.1c.49,0,.88.79.88,1.77S675.9,128.18,675.41,128.18Zm-10.93,14.65h-8.62c-.49,0-.88-.8-.88-1.78s.39-1.77.88-1.77h8.62c.49,0,.88.79.88,1.77S665,142.83,664.48,142.83Zm0,35.12h-8.62c-.49,0-.88-.79-.88-1.77s.39-1.77.88-1.77h8.62c.49,0,.88.79.88,1.77S665,178,664.48,178Zm10.93-6.78h-24.1c-.49,0-.89-.8-.89-1.78s.4-1.77.89-1.77h24.1c.49,0,.88.8.88,1.77S675.9,171.17,675.41,171.17Zm-10.93-13.94h-8.62c-.49,0-.88-.79-.88-1.77s.39-1.77.88-1.77h8.62c.49,0,.88.79.88,1.77S665,157.23,664.48,157.23Zm2.25-89.43a.23.23,0,0,1,.23-.23H683.6a.23.23,0,0,1,.23.23v3.08a.23.23,0,0,1-.23.23H667a.23.23,0,0,1-.23-.23Zm-10.87-.23h8.62c.49,0,.88.79.88,1.77s-.39,1.77-.88,1.77h-8.62c-.49,0-.88-.79-.88-1.77S655.37,67.57,655.86,67.57Zm-24.68,0h21.73c.49,0,.88.79.88,1.77s-.39,1.77-.88,1.77H631.18c-.49,0-.89-.79-.89-1.77S630.69,67.57,631.18,67.57Zm20.13,31.88c-.49,0-.89-.79-.89-1.77s.4-1.77.89-1.77h24.1c.49,0,.88.79.88,1.77s-.39,1.77-.88,1.77Zm13.17,6.79h-8.62c-.49,0-.88-.8-.88-1.78s.39-1.77.88-1.77h8.62c.49,0,.88.8.88,1.77S665,106.24,664.48,106.24Zm25.91-.28a.29.29,0,0,1-.28.28H667a.28.28,0,0,1-.27-.28v-3a.28.28,0,0,1,.27-.28h23.11a.29.29,0,0,1,.28.28ZM666.73,82.27A.29.29,0,0,1,667,82h26.15a.29.29,0,0,1,.29.3v3a.29.29,0,0,1-.29.29H667a.29.29,0,0,1-.29-.29ZM655.86,82h8.62c.49,0,.88.8.88,1.78s-.39,1.77-.88,1.77h-8.62c-.49,0-.88-.8-.88-1.77S655.37,82,655.86,82Zm-24.68,0h21.73c.49,0,.88.8.88,1.78s-.39,1.77-.88,1.77H631.18c-.49,0-.89-.8-.89-1.77S630.69,82,631.18,82Zm0,6.61h52.43c.48,0,.88.8.88,1.77s-.4,1.78-.88,1.78H631.18c-.49,0-.89-.8-.89-1.78S630.69,88.58,631.18,88.58ZM617.7,74.65h9.16c.49,0,.88.79.88,1.77s-.39,1.77-.88,1.77H617.7c-.49,0-.89-.79-.89-1.77S617.21,74.65,617.7,74.65Zm0,7.32h9.16c.49,0,.88.8.88,1.78s-.39,1.77-.88,1.77H617.7c-.49,0-.89-.8-.89-1.77S617.21,82,617.7,82Z"/><path class="cls-6" d="M634.94,117.31h.88v-4h-2.24A26.77,26.77,0,0,1,634.94,117.31Z"/><path class="cls-6" d="M627.74,104.46a1.69,1.69,0,0,1,0,.23,27.78,27.78,0,0,1,4,5.08h4.08v-3.53h-4.64c-.49,0-.89-.8-.89-1.78s.4-1.77.89-1.77h4.58a7,7,0,0,0-1.26-3.24h-3.32c-.49,0-.89-.79-.89-1.77a2.91,2.91,0,0,1,.14-.92,7.13,7.13,0,0,0-1.54-.18h-1.34a3,3,0,0,1,.19,1.1c0,1-.39,1.77-.88,1.77h-6.42a28.09,28.09,0,0,1,5.06,3.24h1.36C627.35,102.69,627.74,103.49,627.74,104.46Z"/><path class="cls-6" d="M635.82,124.22v-3.37h-.22A26.86,26.86,0,0,1,635.82,124.22Z"/><path class="cls-6" d="M617,96.58h-8.84A27.56,27.56,0,0,1,616.83,98a2.64,2.64,0,0,1,0-.29A3,3,0,0,1,617,96.58Z"/><path class="cls-6" d="M631.18,120.85c-.49,0-.89-.79-.89-1.77s.4-1.77.89-1.77h3.76a26.77,26.77,0,0,0-1.36-4h-2.4c-.49,0-.89-.79-.89-1.77s.4-1.78.89-1.78h.56a27.78,27.78,0,0,0-4-5.08,2.38,2.38,0,0,1-.39,1.26,5.43,5.43,0,0,1,.35,1.9v3.09a3.86,3.86,0,0,1,0,.61,4,4,0,0,1,0,.61v21a3.86,3.86,0,0,1,0,.61,4,4,0,0,1,0,.61v6.1a4,4,0,0,1,0,.61,3.86,3.86,0,0,1,0,.61v5.86a3.81,3.81,0,0,1,0,1.23v20a3.81,3.81,0,0,1,0,1.23v5.56a3.86,3.86,0,0,1,0,.61,4,4,0,0,1,0,.61v26.4h8.13V185h-5.28a.25.25,0,0,1-.25-.24v-3.06a.25.25,0,0,1,.25-.24h5.28V178h-4.64c-.49,0-.89-.79-.89-1.77s.4-1.77.89-1.77h4.64v-3.24h-4.64c-.49,0-.89-.8-.89-1.78s.4-1.77.89-1.77h4.64v-3.78h-4.64c-.49,0-.89-.79-.89-1.77s.4-1.77.89-1.77h4.64v-3.07h-4.64c-.49,0-.89-.79-.89-1.77s.4-1.77.89-1.77h4.64v-3.78h-5.23a.31.31,0,0,1-.3-.3v-3a.31.31,0,0,1,.3-.3h5.23v-3.53h-4.64c-.49,0-.89-.8-.89-1.78s.4-1.77.89-1.77h4.64V135.5h-5.26a.27.27,0,0,1-.27-.27v-3a.27.27,0,0,1,.27-.26h5.26v-3.78h-4.64c-.49,0-.89-.8-.89-1.78s.4-1.77.89-1.77h4.64v-.41a26.86,26.86,0,0,0-.22-3.37Z"/><path class="cls-6" d="M622.2,102.36a5.57,5.57,0,0,1,1.87.33h1.43a28.09,28.09,0,0,0-5.06-3.24H617.7c-.44,0-.8-.64-.87-1.48a27.56,27.56,0,0,0-8.66-1.39h-12v5.78Z"/><path class="cls-6" d="M598.29,122.48a3.38,3.38,0,0,1,3.38,3.38v77.33h26v-26.4c-.13.68-.45,1.16-.83,1.16H617.7c-.49,0-.89-.79-.89-1.77s.4-1.77.89-1.77h9.16c.38,0,.7.48.83,1.16V170c-.13.67-.45,1.16-.83,1.16H617.7c-.49,0-.89-.8-.89-1.78s.4-1.77.89-1.77h9.16c.38,0,.7.49.83,1.16v-20c-.13.67-.45,1.16-.83,1.16H617.7c-.49,0-.89-.8-.89-1.77s.4-1.78.89-1.78h9.16c.38,0,.7.49.83,1.16v-5.86c-.13.68-.45,1.17-.83,1.17H617.7c-.49,0-.89-.8-.89-1.78s.4-1.77.89-1.77h9.16c.38,0,.7.49.83,1.16v-6.1c-.13.68-.45,1.16-.83,1.16H617.7c-.49,0-.89-.79-.89-1.77s.4-1.77.89-1.77h9.16c.38,0,.7.48.83,1.16v-21c-.13.67-.45,1.16-.83,1.16H617.7c-.49,0-.89-.79-.89-1.77s.4-1.78.89-1.78h9.16c.38,0,.7.49.83,1.17v-3.09a5.43,5.43,0,0,0-.35-1.9.63.63,0,0,1-.48.29H617.7c-.49,0-.89-.8-.89-1.78s.4-1.77.89-1.77h6.37a5.57,5.57,0,0,0-1.87-.33H596.13v20.12Z"/><path class="cls-6" d="M598.29,122.48h-2.16v78.9a1.81,1.81,0,0,0,1.81,1.81h3.73V125.86A3.38,3.38,0,0,0,598.29,122.48Z"/><path class="cls-23" d="M617.7,49.14h9.16c.49,0,.88-.8.88-1.78s-.39-1.77-.88-1.77H617.7c-.49,0-.89.79-.89,1.77S617.21,49.14,617.7,49.14Z"/><path class="cls-23" d="M631.18,49.14h52.43c.48,0,.88-.8.88-1.78s-.4-1.77-.88-1.77H631.18c-.49,0-.89.79-.89,1.77S630.69,49.14,631.18,49.14Z"/><path class="cls-24" d="M631.18,56.46H647.9c.49,0,.88-.79.88-1.77s-.39-1.77-.88-1.77H631.18c-.49,0-.89.79-.89,1.77S630.69,56.46,631.18,56.46Z"/><path class="cls-4" d="M651.31,52.92c-.49,0-.89.79-.89,1.77s.4,1.77.89,1.77h24.1c.49,0,.88-.79.88-1.77s-.39-1.77-.88-1.77Z"/><path class="cls-4" d="M631.18,92.13h52.43c.48,0,.88-.8.88-1.78s-.4-1.77-.88-1.77H631.18c-.49,0-.89.8-.89,1.77S630.69,92.13,631.18,92.13Z"/><path class="cls-23" d="M626.86,95.91H617.7c-.28,0-.53.26-.69.67h10.54C627.39,96.17,627.14,95.91,626.86,95.91Z"/><path class="cls-23" d="M627.74,97.68a3,3,0,0,0-.19-1.1H617a3,3,0,0,0-.2,1.1,2.64,2.64,0,0,0,0,.29,28.48,28.48,0,0,1,3.61,1.48h6.42C627.35,99.45,627.74,98.66,627.74,97.68Z"/><path class="cls-23" d="M617.7,99.45h2.74A28.48,28.48,0,0,0,616.83,98C616.9,98.81,617.26,99.45,617.7,99.45Z"/><path class="cls-4" d="M634.5,99.45h13.4c.49,0,.88-.79.88-1.77s-.39-1.77-.88-1.77H631.18c-.32,0-.6.34-.75.85A6.94,6.94,0,0,1,634.5,99.45Z"/><path class="cls-4" d="M631.18,99.45h3.32a6.94,6.94,0,0,0-4.07-2.69,2.91,2.91,0,0,0-.14.92C630.29,98.66,630.69,99.45,631.18,99.45Z"/><path class="cls-24" d="M676.29,97.68c0-1-.39-1.77-.88-1.77h-24.1c-.49,0-.89.79-.89,1.77s.4,1.77.89,1.77h24.1C675.9,99.45,676.29,98.66,676.29,97.68Z"/><path class="cls-24" d="M631.18,63.79h65.43c.49,0,.88-.8.88-1.78s-.39-1.77-.88-1.77H631.18c-.49,0-.89.79-.89,1.77S630.69,63.79,631.18,63.79Z"/><rect class="cls-23" x="666.73" y="67.57" width="17.1" height="3.54" rx="0.23"/><path class="cls-4" d="M631.18,71.11h21.73c.49,0,.88-.79.88-1.77s-.39-1.77-.88-1.77H631.18c-.49,0-.89.79-.89,1.77S630.69,71.11,631.18,71.11Z"/><path class="cls-23" d="M655.86,71.11h8.62c.49,0,.88-.79.88-1.77s-.39-1.77-.88-1.77h-8.62c-.49,0-.88.79-.88,1.77S655.37,71.11,655.86,71.11Z"/><path class="cls-4" d="M617.7,78.19h9.16c.49,0,.88-.79.88-1.77s-.39-1.77-.88-1.77H617.7c-.49,0-.89.79-.89,1.77S617.21,78.19,617.7,78.19Z"/><path class="cls-4" d="M696.61,78.19c.49,0,.88-.79.88-1.77s-.39-1.77-.88-1.77H693.7v3.54Z"/><path class="cls-4" d="M630.29,76.42c0,1,.4,1.77.89,1.77H693.7V74.65H631.18C630.69,74.65,630.29,75.44,630.29,76.42Z"/><path class="cls-4" d="M627.73,104.69a1.69,1.69,0,0,0,0-.23c0-1-.39-1.77-.88-1.77H625.5A26.5,26.5,0,0,1,627.73,104.69Z"/><path class="cls-4" d="M627.34,106a2.38,2.38,0,0,0,.39-1.26,26.5,26.5,0,0,0-2.23-2h-1.43A5.52,5.52,0,0,1,627.34,106Z"/><path class="cls-4" d="M616.81,104.46c0,1,.4,1.78.89,1.78h9.16a.63.63,0,0,0,.48-.29,5.52,5.52,0,0,0-3.27-3.26H617.7C617.21,102.69,616.81,103.49,616.81,104.46Z"/><rect class="cls-4" x="666.73" y="102.69" width="23.66" height="3.54" rx="0.28"/><path class="cls-4" d="M635.82,106.24h17.09c.49,0,.88-.8.88-1.78s-.39-1.77-.88-1.77H635.76a5.55,5.55,0,0,1,.06.82Z"/><path class="cls-4" d="M630.29,104.46c0,1,.4,1.78.89,1.78h4.64v-2.73a5.55,5.55,0,0,0-.06-.82h-4.58C630.69,102.69,630.29,103.49,630.29,104.46Z"/><path class="cls-4" d="M664.48,102.69h-8.62c-.49,0-.88.8-.88,1.77s.39,1.78.88,1.78h8.62c.49,0,.88-.8.88-1.78S665,102.69,664.48,102.69Z"/><path class="cls-25" d="M627.69,110.94v1.22a4,4,0,0,0,0-.61A3.86,3.86,0,0,0,627.69,110.94Z"/><path class="cls-25" d="M626.86,109.77H617.7c-.49,0-.89.8-.89,1.78s.4,1.77.89,1.77h9.16c.38,0,.7-.49.83-1.16v-1.22C627.56,110.26,627.24,109.77,626.86,109.77Z"/><path class="cls-23" d="M642.5,113.32c.49,0,.89-.79.89-1.77s-.4-1.78-.89-1.78h-6.68v3.55Z"/><path class="cls-23" d="M633.58,113.32h2.24v-3.55h-4.08A27.1,27.1,0,0,1,633.58,113.32Z"/><path class="cls-23" d="M630.29,111.55c0,1,.4,1.77.89,1.77h2.4a27.1,27.1,0,0,0-1.84-3.55h-.56C630.69,109.77,630.29,110.57,630.29,111.55Z"/><path class="cls-23" d="M617.7,85.52h9.16c.49,0,.88-.8.88-1.77s-.39-1.78-.88-1.78H617.7c-.49,0-.89.8-.89,1.78S617.21,85.52,617.7,85.52Z"/><rect class="cls-4" x="666.73" y="81.97" width="26.73" height="3.54" rx="0.29"/><path class="cls-25" d="M631.18,85.52h21.73c.49,0,.88-.8.88-1.77S653.4,82,652.91,82H631.18c-.49,0-.89.8-.89,1.78S630.69,85.52,631.18,85.52Z"/><path class="cls-25" d="M655.86,85.52h8.62c.49,0,.88-.8.88-1.77S665,82,664.48,82h-8.62c-.49,0-.88.8-.88,1.78S655.37,85.52,655.86,85.52Z"/><path class="cls-4" d="M683.61,120.85c.48,0,.88-.79.88-1.77s-.4-1.77-.88-1.77H635.82v3.54Z"/><path class="cls-4" d="M635.6,120.85h.22v-3.54h-.88A25.72,25.72,0,0,1,635.6,120.85Z"/><path class="cls-4" d="M630.29,119.08c0,1,.4,1.77.89,1.77h4.42a25.72,25.72,0,0,0-.66-3.54h-3.76C630.69,117.31,630.29,118.1,630.29,119.08Z"/><path class="cls-4" d="M647.9,128.18c.49,0,.88-.8.88-1.78s-.39-1.77-.88-1.77H635.82v3.55Z"/><path class="cls-4" d="M630.29,126.4c0,1,.4,1.78.89,1.78h4.64v-3.55h-4.64C630.69,124.63,630.29,125.42,630.29,126.4Z"/><path class="cls-4" d="M675.41,124.63h-24.1c-.49,0-.89.79-.89,1.77s.4,1.78.89,1.78h24.1c.49,0,.88-.8.88-1.78S675.9,124.63,675.41,124.63Z"/><path class="cls-4" d="M683.61,163.84c.48,0,.88-.79.88-1.77s-.4-1.77-.88-1.77H635.82v3.54Z"/><path class="cls-4" d="M630.29,162.07c0,1,.4,1.77.89,1.77h4.64V160.3h-4.64C630.69,160.3,630.29,161.09,630.29,162.07Z"/><path class="cls-24" d="M627.69,168.78V170a3.81,3.81,0,0,0,0-1.23Z"/><path class="cls-24" d="M626.86,167.62H617.7c-.49,0-.89.8-.89,1.77s.4,1.78.89,1.78h9.16c.38,0,.7-.49.83-1.16v-1.23C627.56,168.11,627.24,167.62,626.86,167.62Z"/><path class="cls-23" d="M647.9,171.17c.49,0,.88-.8.88-1.78s-.39-1.77-.88-1.77H635.82v3.55Z"/><path class="cls-23" d="M630.29,169.39c0,1,.4,1.78.89,1.78h4.64v-3.55h-4.64C630.69,167.62,630.29,168.42,630.29,169.39Z"/><path class="cls-4" d="M675.41,167.62h-24.1c-.49,0-.89.8-.89,1.77s.4,1.78.89,1.78h24.1c.49,0,.88-.8.88-1.78S675.9,167.62,675.41,167.62Z"/><path class="cls-24" d="M627.69,133.12v1.22a4,4,0,0,0,0-.61A3.86,3.86,0,0,0,627.69,133.12Z"/><path class="cls-24" d="M626.86,132H617.7c-.49,0-.89.79-.89,1.77s.4,1.77.89,1.77h9.16c.38,0,.7-.48.83-1.16v-1.22C627.56,132.44,627.24,132,626.86,132Z"/><path class="cls-24" d="M678.78,135.5a.27.27,0,0,0,.27-.27v-3a.27.27,0,0,0-.27-.26h-43v3.54Z"/><path class="cls-24" d="M630.29,132.22v3a.27.27,0,0,0,.27.27h5.26V132h-5.26A.27.27,0,0,0,630.29,132.22Z"/><path class="cls-4" d="M627.69,140.44v1.22a3.86,3.86,0,0,0,0-.61A4,4,0,0,0,627.69,140.44Z"/><path class="cls-4" d="M626.86,139.28H617.7c-.49,0-.89.79-.89,1.77s.4,1.78.89,1.78h9.16c.38,0,.7-.49.83-1.17v-1.22C627.56,139.77,627.24,139.28,626.86,139.28Z"/><path class="cls-4" d="M652.91,142.83c.49,0,.88-.8.88-1.78s-.39-1.77-.88-1.77H635.82v3.55Z"/><path class="cls-4" d="M630.29,141.05c0,1,.4,1.78.89,1.78h4.64v-3.55h-4.64C630.69,139.28,630.29,140.07,630.29,141.05Z"/><path class="cls-4" d="M664.48,139.28h-8.62c-.49,0-.88.79-.88,1.77s.39,1.78.88,1.78h8.62c.49,0,.88-.8.88-1.78S665,139.28,664.48,139.28Z"/><path class="cls-4" d="M627.69,147.52v1.23a3.81,3.81,0,0,0,0-1.23Z"/><path class="cls-4" d="M626.86,146.36H617.7c-.49,0-.89.8-.89,1.78s.4,1.77.89,1.77h9.16c.38,0,.7-.49.83-1.16v-1.23C627.56,146.85,627.24,146.36,626.86,146.36Z"/><path class="cls-4" d="M691.39,149.91a.31.31,0,0,0,.3-.3v-3a.31.31,0,0,0-.3-.3H635.82v3.55Z"/><path class="cls-4" d="M630.29,146.66v3a.31.31,0,0,0,.3.3h5.23v-3.55h-5.23A.31.31,0,0,0,630.29,146.66Z"/><path class="cls-4" d="M627.69,175.57v1.22a4,4,0,0,0,0-.61A3.86,3.86,0,0,0,627.69,175.57Z"/><path class="cls-4" d="M626.86,174.41H617.7c-.49,0-.89.79-.89,1.77s.4,1.77.89,1.77h9.16c.38,0,.7-.48.83-1.16v-1.22C627.56,174.89,627.24,174.41,626.86,174.41Z"/><path class="cls-4" d="M696.54,178c.49,0,.88-.79.88-1.77s-.39-1.77-.88-1.77H693.7V178Z"/><path class="cls-4" d="M666.73,176.18c0,1,.39,1.77.88,1.77H693.7v-3.54H667.61C667.12,174.41,666.73,175.2,666.73,176.18Z"/><path class="cls-4" d="M652.91,178c.49,0,.88-.79.88-1.77s-.39-1.77-.88-1.77H635.82V178Z"/><path class="cls-4" d="M630.29,176.18c0,1,.4,1.77.89,1.77h4.64v-3.54h-4.64C630.69,174.41,630.29,175.2,630.29,176.18Z"/><path class="cls-4" d="M664.48,174.41h-8.62c-.49,0-.88.79-.88,1.77s.39,1.77.88,1.77h8.62c.49,0,.88-.79.88-1.77S665,174.41,664.48,174.41Z"/><path class="cls-25" d="M670.61,185a.24.24,0,0,0,.24-.24v-3.06a.24.24,0,0,0-.24-.24H635.82V185Z"/><path class="cls-25" d="M630.29,181.73v3.06a.25.25,0,0,0,.25.24h5.28v-3.54h-5.28A.25.25,0,0,0,630.29,181.73Z"/><path class="cls-24" d="M694.73,157.23a.29.29,0,0,0,.3-.3V154a.29.29,0,0,0-.3-.3h-1v3.54Z"/><path class="cls-24" d="M666.73,154v2.94a.29.29,0,0,0,.3.3H693.7v-3.54H667A.29.29,0,0,0,666.73,154Z"/><path class="cls-25" d="M652.91,157.23c.49,0,.88-.79.88-1.77s-.39-1.77-.88-1.77H635.82v3.54Z"/><path class="cls-25" d="M630.29,155.46c0,1,.4,1.77.89,1.77h4.64v-3.54h-4.64C630.69,153.69,630.29,154.48,630.29,155.46Z"/><path class="cls-25" d="M664.48,153.69h-8.62c-.49,0-.88.79-.88,1.77s.39,1.77.88,1.77h8.62c.49,0,.88-.79.88-1.77S665,153.69,664.48,153.69Z"/><polygon class="cls-17" points="733.69 29.7 733.69 31.21 735.76 30.46 733.69 29.7"/><path class="cls-17" d="M720.5,22v3.33h3.76V22l16.44,6.25v4.5l-7,2.66V55.72a29,29,0,1,0-39.81-30.43h17.88Z"/><path class="cls-17" d="M697.79,43.91h12.45A2.76,2.76,0,0,1,713,46.67v9.62a29,29,0,0,0,20.68-.57V35.37L724.26,39V34.64l9.43-3.43V29.7l-9.43-3.46v-.95H720.5v.95L709,30.46l11.5,4.18V39l-16.44-6.25v-4.5l7.7-2.92H693.88a29.63,29.63,0,0,0-.24,3.67A28.89,28.89,0,0,0,697.79,43.91Z"/><path class="cls-17" d="M710.24,43.91H697.79A29.08,29.08,0,0,0,713,56.29V46.67A2.76,2.76,0,0,0,710.24,43.91Z"/><polygon class="cls-10" points="711.76 25.29 720.5 25.29 720.5 21.96 711.76 25.29"/><polygon class="cls-10" points="704.06 28.21 704.06 32.7 720.5 38.96 720.5 34.64 709 30.46 720.5 26.25 720.5 25.29 711.76 25.29 704.06 28.21"/><path class="cls-10" d="M740.7,28.21,724.26,22v3.33h7.62a1.81,1.81,0,0,1,1.81,1.81v2.6l2.07.76-2.07.75v4.16l7-2.66Z"/><polygon class="cls-10" points="724.26 34.64 724.26 38.96 733.69 35.37 733.69 31.21 724.26 34.64"/><path class="cls-10" d="M731.88,25.29h-7.62v.95l9.43,3.46V27.1A1.81,1.81,0,0,0,731.88,25.29Z"/><path class="cls-12" d="M531,548.72a31.52,31.52,0,0,0,10.19-1.7H520.84A31.52,31.52,0,0,0,531,548.72Z"/><path class="cls-12" d="M532.18,512.13a5.49,5.49,0,0,0-2.89.74h5.2l0-.51A11,11,0,0,0,532.18,512.13Z"/><path class="cls-12" d="M549.84,492.14H512.22a31.42,31.42,0,0,0-12.29,20.73h15.31a17.68,17.68,0,0,1,1.41-3.43,16,16,0,0,1,6.28-6.42,18.56,18.56,0,0,1,9.37-2.33,17.07,17.07,0,0,1,8,1.83,13,13,0,0,1,5.42,5.2,14.51,14.51,0,0,1,1.72,5.15h14.7A31.38,31.38,0,0,0,549.84,492.14Z"/><path class="cls-12" d="M531.94,508.43a25.22,25.22,0,0,1,3.85.34,21.06,21.06,0,0,1,3.46.8l-.16,3.3h3.82a11.06,11.06,0,0,0-1.1-3.19,9.24,9.24,0,0,0-3.83-3.83,11.77,11.77,0,0,0-5.64-1.32,14.49,14.49,0,0,0-7.13,1.69,11.26,11.26,0,0,0-4.64,4.87,14.83,14.83,0,0,0-.75,1.78h3.58a8.56,8.56,0,0,1,1.43-1.82A9.84,9.84,0,0,1,531.94,508.43Z"/><path class="cls-12" d="M531,485.89a31.27,31.27,0,0,0-18.81,6.25h37.62A31.23,31.23,0,0,0,531,485.89Z"/><path class="cls-12" d="M540.45,532.06a24.49,24.49,0,0,1-9.65,1.85q-7.71,0-12-4H502.23a31.36,31.36,0,0,0,2.72,5h52.16a31.36,31.36,0,0,0,2.72-5H540.45Z"/><path class="cls-12" d="M533.31,529.86h-5.19a18.16,18.16,0,0,0,2.52.17A23.07,23.07,0,0,0,533.31,529.86Z"/><path class="cls-12" d="M538.78,519.51c0,1.88.52,2.82,1.55,2.82.86,0,1.55-.63,2.07-1.9a15.09,15.09,0,0,0,.51-7.56h-3.82Z"/><path class="cls-12" d="M562.13,512.87h-14.7a18.71,18.71,0,0,1,.19,2.63,14.68,14.68,0,0,1-.94,5.36,8.87,8.87,0,0,1-2.64,3.81,6.08,6.08,0,0,1-4,1.38,4.93,4.93,0,0,1-2.66-.72,4.11,4.11,0,0,1-1.66-1.9h-.33a7,7,0,0,1-5.59,2.62,7.44,7.44,0,0,1-5.66-2.17A8.16,8.16,0,0,1,522.1,518a9.73,9.73,0,0,1,1.3-5.09h-3.58a17.2,17.2,0,0,0-.87,5.56q0,5.61,3,8.6a10.49,10.49,0,0,0,6.17,2.83h5.19c.66-.08,1.35-.18,2.06-.31a31.62,31.62,0,0,0,5.08-1.39v1.7h19.38a31.31,31.31,0,0,0,2.62-12.56A32.42,32.42,0,0,0,562.13,512.87Z"/><path class="cls-12" d="M514.44,518.55a19.84,19.84,0,0,1,.8-5.68H499.93a32.42,32.42,0,0,0-.31,4.43,31.3,31.3,0,0,0,2.61,12.56h16.53Q514.44,525.79,514.44,518.55Z"/><path class="cls-12" d="M528.23,513.72a6.26,6.26,0,0,0-1.41,4.32q0,4.29,3.49,4.29a3.23,3.23,0,0,0,2.78-1.29,8.07,8.07,0,0,0,1.16-4.19l.24-4h-5.2A4.31,4.31,0,0,0,528.23,513.72Z"/><path class="cls-12" d="M556.54,535.64h-51A31.5,31.5,0,0,0,520.84,547h20.38A31.48,31.48,0,0,0,556.54,535.64Z"/><path class="cls-12" d="M505,534.82c.19.28.38.55.58.82h51l.57-.82Z"/><path class="cls-21" d="M540.29,502.52a17.07,17.07,0,0,0-8-1.83,18.56,18.56,0,0,0-9.37,2.33,16,16,0,0,0-6.28,6.42,17.68,17.68,0,0,0-1.41,3.43h4.58a14.83,14.83,0,0,1,.75-1.78,11.26,11.26,0,0,1,4.64-4.87,14.49,14.49,0,0,1,7.13-1.69,11.77,11.77,0,0,1,5.64,1.32,9.24,9.24,0,0,1,3.83,3.83,11.06,11.06,0,0,1,1.1,3.19h4.52a14.51,14.51,0,0,0-1.72-5.15A13,13,0,0,0,540.29,502.52Z"/><path class="cls-21" d="M532.18,512.13a11,11,0,0,1,2.34.23l0,.51h4.6l.16-3.3a21.06,21.06,0,0,0-3.46-.8,25.22,25.22,0,0,0-3.85-.34,9.84,9.84,0,0,0-7.11,2.62,8.56,8.56,0,0,0-1.43,1.82h5.89A5.49,5.49,0,0,1,532.18,512.13Z"/><path class="cls-21" d="M530.8,533.91a24.49,24.49,0,0,0,9.65-1.85v-2.2h-7.14a23.07,23.07,0,0,1-2.67.17,18.16,18.16,0,0,1-2.52-.17h-9.34Q523.09,533.91,530.8,533.91Z"/><path class="cls-21" d="M543.17,515.46a13.5,13.5,0,0,1-.77,5c-.52,1.27-1.21,1.9-2.07,1.9-1,0-1.55-.94-1.55-2.82l.31-6.64h-4.6l-.24,4a8.07,8.07,0,0,1-1.16,4.19,3.23,3.23,0,0,1-2.78,1.29q-3.49,0-3.49-4.29a6.26,6.26,0,0,1,1.41-4.32,4.31,4.31,0,0,1,1.06-.85H523.4a9.73,9.73,0,0,0-1.3,5.09,8.16,8.16,0,0,0,2.08,5.92,7.44,7.44,0,0,0,5.66,2.17,7,7,0,0,0,5.59-2.62h.33a4.11,4.11,0,0,0,1.66,1.9,4.93,4.93,0,0,0,2.66.72,6.08,6.08,0,0,0,4-1.38,8.87,8.87,0,0,0,2.64-3.81,14.68,14.68,0,0,0,.94-5.36,18.71,18.71,0,0,0-.19-2.63h-4.52A13.45,13.45,0,0,1,543.17,515.46Z"/><path class="cls-21" d="M514.44,518.55q0,7.23,4.32,11.3h9.36A10.49,10.49,0,0,1,522,527q-3-3-3-8.6a17.2,17.2,0,0,1,.87-5.56h-4.58A19.84,19.84,0,0,0,514.44,518.55Z"/><path class="cls-21" d="M540.45,528.16a31.62,31.62,0,0,1-5.08,1.39c-.71.13-1.4.23-2.06.31h7.14Z"/><path class="cls-26" d="M650.36,336.24l-.07.05.21.28Z"/><path class="cls-27" d="M643.58,543l4.72.26-.89-3.55A23.18,23.18,0,0,1,643.58,543Z"/><path class="cls-27" d="M643.47,543h.11a23.18,23.18,0,0,0,3.83-3.29l0-.1A23.4,23.4,0,0,1,643.47,543Z"/><path class="cls-27" d="M641,539.59l.75,3.3,1.69.1a23.4,23.4,0,0,0,3.92-3.38v0Z"/><path class="cls-6" d="M634.79,546.62a23.75,23.75,0,0,0-3.86,2.34c.09.37,18.47-1.56,18.47-1.56l-1.1-4.14-4.72-.26A23,23,0,0,1,634.79,546.62Z"/><path class="cls-6" d="M643.47,543a22.61,22.61,0,0,1-8.65,3.61l0,0a23,23,0,0,0,8.79-3.62Z"/><path class="cls-6" d="M634.82,546.6a22.61,22.61,0,0,0,8.65-3.61l-1.69-.1S637.93,544.9,634.82,546.6Z"/><path class="cls-27" d="M697.83,528.34l-1.93,1,2.56,3.84,6.22-2-1.86-2.65-3.74,1.33Z"/><path class="cls-6" d="M690.53,542.72c.22.31,16.67-8.1,16.67-8.1l-2.52-3.46-6.22,2S690.31,542.41,690.53,542.72Z"/><path class="cls-12" d="M651.25,421.46l-15.43-.85v46.53a67.3,67.3,0,0,0,6.66-2.07,159.46,159.46,0,0,1,8.95-42.45C651.36,422.19,651.3,421.8,651.25,421.46Z"/><path class="cls-12" d="M648.48,539.59l-.21-.84c-.24.28-.48.56-.74.84Z"/><path class="cls-12" d="M635.82,512.87h7.89a239.84,239.84,0,0,1-1.23-47.8,67.3,67.3,0,0,1-6.66,2.07Z"/><path class="cls-12" d="M627.69,423v45.7a65.26,65.26,0,0,0,8.13-1.51V420.61l-7.42-.4C628.24,420.8,628,421.73,627.69,423Z"/><path class="cls-12" d="M627.69,507c.47,1.95,1,3.92,1.56,5.89h6.57V467.14a65.26,65.26,0,0,1-8.13,1.51Z"/><path class="cls-12" d="M622.85,469.06c1.61-.08,3.23-.21,4.84-.41V423A184,184,0,0,0,622.85,469.06Z"/><path class="cls-12" d="M627.69,507V468.65c-1.61.2-3.23.33-4.84.41A173.41,173.41,0,0,0,627.69,507Z"/><path class="cls-12" d="M647.4,539.59h.13c.26-.28.5-.56.74-.84l0-.11C648,539,647.69,539.28,647.4,539.59Z"/><path class="cls-12" d="M635.53,530.67c.59,1.38,1.2,2.77,1.84,4.15h10c-.41-1.9-.9-4.33-1.43-7.21-3.37.71-6.76,1.28-10.15,1.71A6.58,6.58,0,0,1,635.53,530.67Z"/><path class="cls-12" d="M635.82,528.71c0,.21,0,.41,0,.61,3.39-.43,6.78-1,10.15-1.71-.74-4.08-1.53-9.06-2.23-14.74h-7.89Z"/><path class="cls-12" d="M635.53,530.67a6.58,6.58,0,0,0,.26-1.35l-.78.1C635.18,529.84,635.35,530.25,635.53,530.67Z"/><path class="cls-12" d="M635,529.42l.78-.1c0-.2,0-.4,0-.61V512.87h-6.57A152.29,152.29,0,0,0,635,529.42Z"/><path class="cls-12" d="M639.66,539.59H641l-.27-1.2,6.16-.64.46,1.84h0c.29-.31.57-.63.84-1-.19-.8-.49-2.09-.87-3.82h-10Q638.47,537.2,639.66,539.59Z"/><polygon class="cls-12" points="646.92 537.75 640.76 538.39 641.03 539.59 647.38 539.59 646.92 537.75"/><path class="cls-12" d="M667.75,422.36l-15.9-.87-.42,1.13a236.84,236.84,0,0,0,8,33.07A65.21,65.21,0,0,0,672,443.08a189.75,189.75,0,0,1-3.84-25C667.9,420.77,667.75,422.36,667.75,422.36Z"/><path class="cls-12" d="M659.47,455.69c6.76,21.28,18.49,48.62,38.36,72.65l3.58-1.83,1.41,2,2.45-.87s-23.4-39.3-33.29-84.56A65.21,65.21,0,0,1,659.47,455.69Z"/><path class="cls-12" d="M697.83,528.34l1.25,1.5,3.74-1.33-1.41-2Z"/><path class="cls-12" d="M651.43,422.62l.42-1.13-.6,0C651.3,421.8,651.36,422.19,651.43,422.62Z"/><path class="cls-28" d="M635.82,276.26l.32-.06a1.83,1.83,0,0,0,.15-.7v-.59h-.48Z"/><polygon class="cls-28" points="635.82 276.26 635.82 274.91 627.98 274.91 630.2 277.35 635.82 276.26"/><path class="cls-28" d="M636.3,274.91l0-3.18a1.61,1.61,0,0,0-.07-.49l-.43-1.65v5.32Z"/><path class="cls-28" d="M633.38,269.09l-2.19-2a1.87,1.87,0,0,0-3,.57c-.18.38-.37.8-.55,1.23v5.73l.29.32h7.84v-5.32l-.28-1Z"/><path class="cls-28" d="M627,273.87l.67.72v-5.73a17,17,0,0,0-1.14,3.46A1.84,1.84,0,0,0,627,273.87Z"/><path class="cls-29" d="M639.4,350.07H639l.14.12Z"/><path class="cls-29" d="M656.17,344.81l.66-.11c-2.14-2.62-4.33-5.4-6.33-8.13l3.64,8.73C655,345.08,655.67,344.91,656.17,344.81Z"/><path class="cls-29" d="M635.82,276.71v35.37a11.83,11.83,0,0,1,4.82-5.05c-1.58-13.94-3.25-31.07-3.25-31.07l-1.25.24A1.91,1.91,0,0,1,635.82,276.71Z"/><path class="cls-29" d="M635.82,339.77v7.76c1.13.93,2.2,1.78,3.16,2.54h.42l.2-.08c1.32-4.12,2.94-8.92,2.94-8.92l7.75-4.78-.61-.86C645.29,338.7,639.6,340.5,635.82,339.77Z"/><path class="cls-29" d="M632.28,278.07a1.88,1.88,0,0,1-1.9-.53l-.18-.19-.35.07s-2.59,52.18-.3,58.18c.7,1.85,2.57,6,5.11,11l1.16.94v-7.76a5,5,0,0,1-3.17-1.76c-3.5-4.63,2-23,2-23a14.46,14.46,0,0,1,1.15-3V276.71a1.94,1.94,0,0,1-.86.57Z"/><path class="cls-29" d="M639.6,350c3-1.22,10.43-3.58,14.54-4.69l-3.64-8.73-.21-.28-7.75,4.78S640.92,345.87,639.6,350Z"/><path class="cls-29" d="M635.82,276.71a1.91,1.91,0,0,0,.32-.51l-.32.06Z"/><path class="cls-29" d="M630.38,277.54a1.88,1.88,0,0,0,1.9.53l2.68-.79a1.94,1.94,0,0,0,.86-.57v-.45l-5.62,1.09Z"/><path class="cls-28" d="M649.68,335.43A18.67,18.67,0,0,0,654,331c5-7.4,6-24.05-2.49-25.44-4.25-.69-8-.18-10.86,1.43.72,6.4,1.42,12.13,1.93,15.22S646,330.28,649.68,335.43Z"/><path class="cls-28" d="M635.82,312.08v27.69c3.78.73,9.47-1.07,13.86-4.34-3.69-5.15-6.59-10-7.11-13.18s-1.21-8.82-1.93-15.22A11.83,11.83,0,0,0,635.82,312.08Z"/><path class="cls-28" d="M632.65,338a5,5,0,0,0,3.17,1.76V312.08a14.46,14.46,0,0,0-1.15,3S629.15,333.38,632.65,338Z"/><path class="cls-29" d="M656.11,375.06c-1.83-.54-3.85-2.1-5.93-4.3h-7.81a10.08,10.08,0,0,1-6.55,2.05v46.43l16.53-.38,15.45-6.05c.09,1.75.2,3.51.34,5.26.84-9.16,2.79-31.12,3.85-47.31H667.9A9.89,9.89,0,0,1,656.11,375.06Z"/><path class="cls-29" d="M627.69,420.17l.71,0c.15-.53.24-.81.24-.81l7.18-.16V383.17h-8.13Z"/><path class="cls-29" d="M627.5,420.16h.19v-37h-4.47A85.19,85.19,0,0,0,627.5,420.16Z"/><path class="cls-29" d="M629.85,370.76h-2.16v12.41h8.13V372.81a9,9,0,0,1-1.15-.07A12,12,0,0,1,629.85,370.76Z"/><path class="cls-29" d="M623.22,383.17h4.47V370.76h-2.3A86.53,86.53,0,0,0,623.22,383.17Z"/><path class="cls-29" d="M661.46,350.07h-.12l.07.08Z"/><path class="cls-29" d="M642.37,370.76h7.81a53.53,53.53,0,0,1-4.33-5.33A10.24,10.24,0,0,1,642.37,370.76Z"/><path class="cls-29" d="M667.9,370.76H672c.14-2.11.27-4.11.37-6-.94-1.27-1.92-2.48-2.94-3.66A13.66,13.66,0,0,1,667.9,370.76Z"/><path class="cls-29" d="M661.41,350.15c4.09,4.75,7.22,8.11,7.22,8.11a17.48,17.48,0,0,1,.79,2.86c1,1.18,2,2.39,2.94,3.66.22-4,.35-7.35.35-9.68,0-.66,0-1.27,0-1.89a15.74,15.74,0,0,0-1.68-3.14h-9.55Z"/><path class="cls-29" d="M627.69,370.76h2.16c-.7-.44-1.42-.95-2.16-1.51Z"/><path class="cls-29" d="M626.12,368c-.24.86-.49,1.78-.73,2.76h2.3v-1.51C627.17,368.85,626.65,368.44,626.12,368Z"/><path class="cls-29" d="M656.83,344.7c1.56,1.9,3.09,3.72,4.51,5.37h.12q1.69-2.34,3.45-4.65A16.89,16.89,0,0,0,656.83,344.7Z"/><path class="cls-29" d="M671,350.07a12.43,12.43,0,0,0-6.1-4.65q-1.75,2.31-3.45,4.65Z"/><path class="cls-29" d="M652.35,418.86l-16.53.38v1.37l15.43.85c-.2-1.34-.29-2.06-.29-2.06Z"/><path class="cls-29" d="M628.64,419.4s-.09.28-.24.81l7.42.4v-1.37Z"/><path class="cls-29" d="M652.35,418.86h.54c-.35.88-.7,1.76-1,2.64l15.9.87s.15-1.59.39-4.29c-.14-1.75-.25-3.51-.34-5.26Z"/><path class="cls-29" d="M652.35,418.86l-1.39.54s.09.72.29,2.06l.6,0c.34-.88.69-1.76,1-2.64Z"/><path class="cls-29" d="M656.11,375.06a9.89,9.89,0,0,0,11.79-4.3H650.18C652.26,373,654.28,374.52,656.11,375.06Z"/><path class="cls-29" d="M641.83,352.31,644,354a14.69,14.69,0,0,1,1.81,11.43,53.53,53.53,0,0,0,4.33,5.33H667.9a13.66,13.66,0,0,0,1.52-9.64,65.68,65.68,0,0,0-9.43-9c.47-.66,1-1.31,1.42-2l-.07-.08H650.42A29.89,29.89,0,0,1,641.83,352.31Z"/><path class="cls-29" d="M639.46,350.45l.12-.38h-.18l-.28.12Z"/><path class="cls-29" d="M669.42,361.12a17.48,17.48,0,0,0-.79-2.86s-3.13-3.36-7.22-8.11c-.47.65-.95,1.3-1.42,2A65.68,65.68,0,0,1,669.42,361.12Z"/><path class="cls-29" d="M654.14,345.3l.63,1.51a11.33,11.33,0,0,1-4.35,3.26h10.92c-1.42-1.65-3-3.47-4.51-5.37l-.66.11C655.67,344.91,655,345.08,654.14,345.3Z"/><path class="cls-29" d="M639.6,350l-.2.08h.18Z"/><path class="cls-29" d="M639.46,350.45l2.37,1.86a29.89,29.89,0,0,0,8.59-2.24H639.58Z"/><path class="cls-29" d="M650.42,350.07a11.33,11.33,0,0,0,4.35-3.26l-.63-1.51c-4.11,1.11-11.5,3.47-14.54,4.69l0,.08Z"/><path class="cls-28" d="M597.68,278.2l-.57-3.29h-9.4a10.91,10.91,0,0,0-.18,1.88,1.82,1.82,0,0,0,.74,1.43l3.74,2.87,5.64-2.17A1.92,1.92,0,0,0,597.68,278.2Z"/><path class="cls-28" d="M597,274.49a1.92,1.92,0,0,0-.15-.48l-1.18-2.53-2,.92-2.52-1.61a1.86,1.86,0,0,0-2.8,1.08,29.56,29.56,0,0,0-.66,3h9.4Z"/><path class="cls-29" d="M635.82,350.07v2.43c.44-.36.9-.73,1.38-1.1-.25-.44-.49-.89-.72-1.33Z"/><path class="cls-29" d="M627.69,350.07v13.08c.85-2.35,1.47-3.64,1.47-3.64.28-.86,2.94-3.93,6.66-7v-2.43Z"/><path class="cls-29" d="M627.69,350.07H609.77c4.8,6.21,10.88,13.34,16.35,17.93.55-1.92,1.1-3.55,1.57-4.85Z"/><path class="cls-29" d="M636.48,350.07c-.23-.42-.45-.83-.66-1.25v1.25Z"/><path class="cls-29" d="M635.82,348.82c-.4-.76-.79-1.5-1.16-2.23-2.19-1.8-4.58-3.82-7-5.92v9.4h8.13Z"/><path class="cls-29" d="M627.69,350.07v-9.4c-7.07-6.22-14.09-13.19-15.62-17.55-2.18-6.15-7.21-23.5-10.4-34.67v50.24c1.19,1.95,4.22,6.36,8.1,11.38Z"/><path class="cls-29" d="M598.83,278.47l-1.18.45a1.86,1.86,0,0,1-1,1.27l-2.5,1.25a1.87,1.87,0,0,1-2-.19l-.2-.16-.34.13s6.61,51.83,9.92,57.34l.08.13V288.45C600,282.62,598.83,278.47,598.83,278.47Z"/><path class="cls-29" d="M637.2,351.4c.33-.25.67-.51,1-.76l0,.05c0-.08.31-.26.87-.5l-.14-.12h-2.5C636.71,350.51,637,351,637.2,351.4Z"/><path class="cls-29" d="M636.48,350.07H639c-1-.76-2-1.61-3.16-2.54v1.29C636,349.24,636.25,349.65,636.48,350.07Z"/><path class="cls-29" d="M635.82,348.82v-1.29l-1.16-.94C635,347.32,635.42,348.06,635.82,348.82Z"/><path class="cls-29" d="M635.82,372.81a10.08,10.08,0,0,0,6.55-2.05h-6.55Z"/><path class="cls-29" d="M629.85,370.76a12,12,0,0,0,4.82,2,9,9,0,0,0,1.15.07v-2.05Z"/><path class="cls-29" d="M645.85,365.43a134.53,134.53,0,0,1-8.65-14c-.48.37-.94.74-1.38,1.1v18.26h6.55A10.24,10.24,0,0,0,645.85,365.43Z"/><path class="cls-29" d="M629.16,359.51s-.62,1.29-1.47,3.64v6.1c.74.56,1.46,1.07,2.16,1.51h6V352.5C632.1,355.58,629.44,358.65,629.16,359.51Z"/><path class="cls-29" d="M627.69,363.15c-.47,1.3-1,2.93-1.57,4.85.53.44,1,.85,1.57,1.25Z"/><path class="cls-29" d="M639.46,350.45l-.34-.26c-.56.24-.88.42-.87.5l0-.05c-.35.25-.69.51-1,.76a134.53,134.53,0,0,0,8.65,14A14.69,14.69,0,0,0,644,354l-2.21-1.69c-1.8.22-3,.24-3,.24C639,351.91,639.22,351.19,639.46,350.45Z"/><path class="cls-29" d="M638.8,352.55s1.23,0,3-.24l-2.37-1.86C639.22,351.19,639,351.91,638.8,352.55Z"/><path class="cls-29" d="M594.18,281.44l2.5-1.25a1.86,1.86,0,0,0,1-1.27L592,281.09l.2.16A1.87,1.87,0,0,0,594.18,281.44Z"/><path class="cls-10" d="M520.83,407.7l38.86,4.42.63.07,26.42-13.74-1.91-3.67-25.3,13.16-38.44-4.37a6.53,6.53,0,0,1,.22,1.67A6.69,6.69,0,0,1,520.83,407.7Z"/><path class="cls-10" d="M267.87,449.31l-44,22,1.85,3.7,44.65-22.33A6.51,6.51,0,0,1,267.87,449.31Z"/><path class="cls-10" d="M458.56,425.58l50.69-16.8a6.5,6.5,0,0,1-1-3.54c0-.16,0-.31,0-.47l-50,16.67H405.81l-68.63,25.85-56.6-.92a7,7,0,0,1,.07.93,6.48,6.48,0,0,1-.83,3.19l57.69.95h.39l68.29-25.87Z"/><polygon class="cls-13" points="451.53 549.76 452.25 547.02 448.75 547.02 451.53 549.76"/><path class="cls-13" d="M473.85,492.14H402.37A18.24,18.24,0,0,0,401.14,505l2.15,7.85h14.85a4.06,4.06,0,0,1,7.86-.09.28.28,0,0,0,0,.09h12.92a4,4,0,1,1,2.09,0h38.25a17.8,17.8,0,0,0-.52-2.85Zm-15,15.83a4.06,4.06,0,1,1,2.84-5A4.06,4.06,0,0,1,458.89,508Z"/><path class="cls-13" d="M472.05,485.57a18.45,18.45,0,0,0-22.59-12.87L414,482.43a18.31,18.31,0,0,0-11.63,9.71h71.48Z"/><path class="cls-13" d="M465.89,532.61a18.2,18.2,0,0,0,5.75-2.75H408a18.24,18.24,0,0,0,2.34,5h47.51Z"/><path class="cls-13" d="M479.27,512.87H441a4,4,0,0,1-2.09,0H426a4.06,4.06,0,0,1-7.86,2.06,4.11,4.11,0,0,1,0-2.06H403.29l4.55,16.6.13.39h63.67A18.44,18.44,0,0,0,479.27,512.87Z"/><path class="cls-13" d="M410.89,535.64a18.45,18.45,0,0,0,19.54,6.7l10.64-2.92,7.68,7.6h3.5l3-11.38Z"/><path class="cls-13" d="M457.82,534.82H410.31c.19.28.38.55.58.82h44.34l0-.11Z"/><path class="cls-21" d="M421,509.93a4.05,4.05,0,0,0-2.86,2.94H426a.28.28,0,0,1,0-.09A4.07,4.07,0,0,0,421,509.93Z"/><path class="cls-21" d="M418.15,514.93a4.06,4.06,0,0,0,7.86-2.06h-7.87A4.11,4.11,0,0,0,418.15,514.93Z"/><path class="cls-21" d="M443.86,507.87a4.07,4.07,0,1,0-4.93,5H441A4.06,4.06,0,0,0,443.86,507.87Z"/><path class="cls-21" d="M441,512.87h-2.09A4,4,0,0,0,441,512.87Z"/><path class="cls-21" d="M456.74,500.13a4.06,4.06,0,1,0,5,2.84A4.05,4.05,0,0,0,456.74,500.13Z"/><path class="cls-12" d="M280.58,446.37a6.55,6.55,0,0,0-13,.93,6.36,6.36,0,0,0,.32,2l6.1-3.05Z"/><path class="cls-12" d="M270.37,452.68a6.54,6.54,0,0,0,9.45-2.19l-4.9-.08Z"/><path class="cls-12" d="M280.58,446.37l-6.61-.11-6.1,3.05a6.51,6.51,0,0,0,2.5,3.37l4.55-2.27,4.9.08a6.48,6.48,0,0,0,.83-3.19A7,7,0,0,0,280.58,446.37Z"/><path class="cls-30" d="M514.65,402.84l6.44.73a6.55,6.55,0,0,0-12.86,1.2l6-2Z"/><path class="cls-30" d="M509.25,408.78a6.55,6.55,0,0,0,11.58-1.08l-6.19-.7Z"/><path class="cls-30" d="M509.25,408.78l5.39-1.78,6.19.7a6.69,6.69,0,0,0,.48-2.46,6.53,6.53,0,0,0-.22-1.67l-6.44-.73-.46,0-6,2c0,.16,0,.31,0,.47A6.5,6.5,0,0,0,509.25,408.78Z"/><path class="cls-21" d="M839.76,374H710.07a3.24,3.24,0,0,1-3.24-3.24h0a3.25,3.25,0,0,1,3.24-3.25H839.76a3.25,3.25,0,0,1,3.24,3.25h0A3.24,3.24,0,0,1,839.76,374Z"/><path class="cls-31" d="M661.67,298.57c1.28,1.08,2.48,2,3.6,2.81a22.93,22.93,0,0,1,9.51,20.49l-.32,3.88h0a12,12,0,0,0,.9,12.25l2.8,4a7.1,7.1,0,0,1-2,10.09l-1.83,1.14a10.44,10.44,0,0,1-9.63.75l-2.51-1.08a9.27,9.27,0,0,0-7.34,0l-.8.34A10.8,10.8,0,0,1,642.11,351h0a5.1,5.1,0,0,0-6.24-.77h0a3,3,0,0,1-4.58-2.59h0a10.38,10.38,0,0,1,1.28-5l8.32-15.25,5.58-11.17a11.08,11.08,0,0,0,1.07-3.42l.43-3a3.38,3.38,0,0,0-4.85-3.5h0A2.37,2.37,0,0,1,640,303h0a16,16,0,0,1,15-6.23l1.82.26A6.47,6.47,0,0,1,661.67,298.57Z"/></g></g></g></svg>