<?xml version="1.0" encoding="utf-8"?>
<!-- Generator: Adobe Illustrator 23.0.3, SVG Export Plug-In . SVG Version: 6.00 Build 0)  -->
<svg version="1.1" id="Capa_1" xmlns="http://www.w3.org/2000/svg" xmlns:xlink="http://www.w3.org/1999/xlink" x="0px" y="0px"
	 viewBox="0 0 512 512" style="enable-background:new 0 0 512 512;" xml:space="preserve">
<style type="text/css">
	.st0{fill:#F9F871;}
	.st1{fill:#FFC764;}
	.st2{fill:#9ABADB;}
	.st3{fill:#D1E8FF;}
	.st4{fill:#F5F5FF;}
	.st5{fill:#294B6E;}
	.st6{fill:#6283A3;}
	.st7{fill:#0093FF;}
	.st8{fill:#00CEFF;}
</style>
<circle class="st0" cx="256" cy="256" r="256"/>
<path class="st1" d="M110,345.9l165.4,165.4C407.7,501.4,512,390.9,512,256c0-8-0.4-16-1.1-23.8L402,123.3L110,345.9z"/>
<polygon class="st2" points="299.7,380.1 299.7,345.9 244.6,334.5 256,380.1 "/>
<g>
	<polygon class="st3" points="212.3,380.1 256,380.1 256,334.5 212.3,345.9 	"/>
	<polygon class="st3" points="402,294.5 244.6,283.1 256,345.9 402,345.9 	"/>
</g>
<polygon class="st4" points="110,294.5 110,345.9 256,345.9 256,283.1 "/>
<polygon class="st3" points="325.4,371.6 256,371.6 250.3,380.1 256,388.7 325.4,388.7 "/>
<rect x="186.6" y="371.6" class="st4" width="69.4" height="17.1"/>
<polygon class="st5" points="402,123.3 256,123.3 244.6,208.9 256,294.5 402,294.5 "/>
<rect x="110" y="123.3" class="st6" width="146" height="171.2"/>
<path class="st7" d="M256,157.6l-11.4,77l11.4,77c42.5,0,77-34.6,77-77S298.5,157.6,256,157.6z"/>
<path class="st8" d="M179,234.6c0,42.5,34.6,77,77,77V157.6C213.5,157.6,179,192.1,179,234.6z"/>
<path class="st3" d="M307.9,243.2V226h-15.3c-0.9-4-2.5-7.8-4.7-11.3l10.8-10.8l-12.1-12.1l-10.8,10.8c-3.4-2.1-7.2-3.7-11.3-4.7
	v-15.3H256l-5.7,23l5.7,8.4c11.3,0,20.5,9.2,20.5,20.5s-9.2,20.5-20.5,20.5l-5.7,7.9l5.7,23.5h8.6v-15.3c4-0.9,7.8-2.5,11.3-4.7
	l10.8,10.8l12.1-12.1l-10.8-10.8c2.1-3.4,3.7-7.2,4.7-11.3L307.9,243.2L307.9,243.2z"/>
<path class="st4" d="M235.5,234.6c0-11.3,9.2-20.5,20.5-20.5v-31.4h-8.6V198c-4,0.9-7.8,2.5-11.3,4.7l-10.8-10.8l-12.1,12.1
	l10.8,10.8c-2.1,3.4-3.7,7.2-4.7,11.3h-15.3v17.1h15.3c0.9,4,2.5,7.8,4.7,11.3l-10.8,10.8l12.1,12.1l10.8-10.8
	c3.4,2.1,7.2,3.7,11.3,4.7v15.3h8.6v-31.4C244.7,255.1,235.5,245.9,235.5,234.6z"/>
</svg>
