<svg xmlns="http://www.w3.org/2000/svg" viewBox="0 0 1675 661.57"><defs><style>.cls-1,.cls-14,.cls-3{fill:none;}.cls-1,.cls-10,.cls-11,.cls-12,.cls-2,.cls-3,.cls-4,.cls-7,.cls-8,.cls-9{stroke:#007dea;}.cls-1,.cls-10,.cls-11,.cls-12,.cls-14,.cls-2,.cls-3,.cls-4,.cls-7,.cls-8,.cls-9{stroke-linejoin:round;stroke-width:2px;}.cls-11,.cls-2,.cls-6,.cls-8{fill:#dbedff;}.cls-14,.cls-2,.cls-3,.cls-4{stroke-linecap:round;}.cls-4,.cls-5,.cls-7,.cls-9{fill:#fff;}.cls-7,.cls-8{fill-rule:evenodd;}.cls-10,.cls-13{fill:#f9f871;}.cls-12{fill:#ff7d9e;}.cls-14{stroke:#ea698c;}</style></defs><title>Asset 4</title><g id="Layer_2" data-name="Layer 2"><g id="Layer_1-2" data-name="Layer 1"><line class="cls-1" y1="653.54" x2="1675" y2="653.54"/><path class="cls-2" d="M1554.8,466.34c0,56.61-13.9,86.12-31,86.12s-31-29.51-31-86.12,13.9-118.91,31-118.91S1554.8,409.72,1554.8,466.34Z"/><line class="cls-3" x1="1523.76" y1="347.43" x2="1523.76" y2="552.46"/><polyline class="cls-3" points="1496.4 511.06 1523.76 538.41 1551.11 511.06"/><polyline class="cls-3" points="1492.79 459.6 1523.76 490.57 1554.73 459.61"/><polyline class="cls-3" points="1496.24 415.22 1523.76 442.74 1551.27 415.23"/><polyline class="cls-3" points="1504.56 375.69 1523.76 394.9 1542.96 375.7"/><path class="cls-4" d="M1492.6,478c17.48,43.89,15.82,71,2.54,76.33s-33.17-13.28-50.65-57.17-25.93-96.46-12.64-101.76S1475.13,434.11,1492.6,478Z"/><line class="cls-3" x1="1431.85" y1="395.4" x2="1495.14" y2="554.33"/><polyline class="cls-3" points="1461.14 530.69 1490.8 543.45 1503.56 513.8"/><polyline class="cls-3" points="1442.46 491.92 1476.04 506.36 1490.48 472.8"/><polyline class="cls-3" points="1431.44 456.46 1461.27 469.29 1474.1 439.48"/><polyline class="cls-3" points="1425.68 423.25 1446.5 432.2 1455.45 411.4"/><path class="cls-4" d="M1547.88,489.76c-14.91,37.4-13.49,60.57-2.16,65.07s28.27-11.33,43.17-48.74,22.11-82.23,10.78-86.75S1562.77,452.34,1547.88,489.76Z"/><line class="cls-3" x1="1599.67" y1="419.34" x2="1545.72" y2="554.83"/><polyline class="cls-3" points="1574.69 534.67 1549.41 545.55 1538.53 520.28"/><polyline class="cls-3" points="1590.62 501.63 1562.01 513.94 1549.69 485.33"/><polyline class="cls-3" points="1600.03 471.38 1574.59 482.33 1563.65 456.91"/><polyline class="cls-3" points="1604.92 443.08 1587.18 450.71 1579.55 432.98"/><polygon class="cls-5" points="1466.37 540.34 1581.15 540.34 1609.11 653.54 1438.4 653.54 1466.37 540.34"/><polygon class="cls-6" points="1466.37 540.34 1490.48 540.34 1549.69 653.54 1438.4 653.54 1466.37 540.34"/><polygon class="cls-3" points="1466.37 540.34 1581.15 540.34 1609.11 653.54 1438.4 653.54 1466.37 540.34"/><path class="cls-7" d="M1471.56,622.89a12.41,12.41,0,0,1-12.38,12.38H876.79a12.42,12.42,0,0,1-12.39-12.38V280.15a12.43,12.43,0,0,1,12.39-12.39h582.39a12.42,12.42,0,0,1,12.38,12.39Z"/><path class="cls-8" d="M1459.28,593.16a4.13,4.13,0,0,1-4.13,4.12H880.8a4.14,4.14,0,0,1-4.13-4.12V290a4.14,4.14,0,0,1,4.13-4.13h574.35a4.14,4.14,0,0,1,4.13,4.13Z"/><path class="cls-7" d="M1555.89,619.47H780.07a6.91,6.91,0,0,0-6.89,6.89v17.89s17.83,16.32,52.73,16.32H1510c34.9,0,52.73-16.32,52.73-16.32V626.36A6.9,6.9,0,0,0,1555.89,619.47Z"/><path class="cls-8" d="M1029.49,619.47a11.79,11.79,0,0,0,11.41,8.83h254.16a11.81,11.81,0,0,0,11.41-8.83Z"/><polygon class="cls-9" points="1222.66 597.28 1113.3 597.28 1140.42 421.8 1195.54 421.8 1222.66 597.28"/><line class="cls-3" x1="1147.47" y1="477.81" x2="1140.7" y2="555.09"/><line class="cls-3" x1="1164.31" y1="489.46" x2="1163.32" y2="555.09"/><line class="cls-3" x1="1180.21" y1="455.65" x2="1182.35" y2="492.7"/><line class="cls-3" x1="1193.27" y1="470.51" x2="1202.68" y2="555.09"/><path class="cls-9" d="M1106.93,322.86l-55.12,44s1.48,57.37,41.8,122.48h8.15s-2.22-56,24.41-92.75Z"/><path class="cls-9" d="M1229,322.86l55.12,44s-1.47,57.37-41.8,122.48h-8.14s2.22-56-24.41-92.75Z"/><path class="cls-10" d="M1203.27,424.22c0,19.5-35.29,73.49-35.29,73.49s-35.3-54-35.3-73.49a35.3,35.3,0,1,1,70.59,0Z"/><path class="cls-9" d="M1168,1c-114.86,55.16-92.1,195.07-74.77,287.22s28.18,126.45,28.18,126.45h93.19s10.83-34.3,28.17-126.45S1282.83,56.16,1168,1Z"/><path class="cls-11" d="M1168,109.76a357.84,357.84,0,0,0,81.25-9.12C1238.32,59.42,1214.39,23.29,1168,1c-46.41,22.29-70.33,58.42-81.25,99.64A357.77,357.77,0,0,0,1168,109.76Z"/><path class="cls-9" d="M1221.69,180A53.71,53.71,0,1,1,1168,126.28,53.71,53.71,0,0,1,1221.69,180Z"/><ellipse class="cls-11" cx="1167.98" cy="180" rx="41.8" ry="41.81" transform="translate(-1.46 9.75) rotate(-0.48)"/><path class="cls-3" d="M1135.87,180A32.11,32.11,0,0,1,1168,147.88"/><path class="cls-9" d="M1204,292.48a36,36,0,1,1-36-36A36,36,0,0,1,1204,292.48Z"/><path class="cls-11" d="M1196,292.48a28,28,0,1,1-28-28A28,28,0,0,1,1196,292.48Z"/><path class="cls-3" d="M1146.46,292.48A21.52,21.52,0,0,1,1168,271"/><path class="cls-12" d="M1228.91,356.61l-.8-.46H1106.94c9.14,41.68,14.45,58.52,14.45,58.52h93.19S1219.85,398,1228.91,356.61Z"/><path class="cls-9" d="M1409.7,461a116,116,0,0,0,5,33.89,102.83,102.83,0,0,0-34.4,36.49,90.84,90.84,0,0,0-47.1-13.23c-39.63,0-73.72,25.82-89.06,62.9-1.49-.07-3-.12-4.5-.12a91.13,91.13,0,0,0-51.83,16.35h267.67a4,4,0,0,0,3.77-4.12V368C1429.69,386.4,1409.7,421.12,1409.7,461Z"/><path class="cls-9" d="M926.26,461a116.05,116.05,0,0,1-5,33.89,102.77,102.77,0,0,1,34.41,36.49,90.78,90.78,0,0,1,47.1-13.23c39.62,0,73.71,25.82,89.06,62.9,1.48-.07,3-.12,4.49-.12a91.18,91.18,0,0,1,51.84,16.35H880.44a4,4,0,0,1-3.77-4.12V368C906.26,386.4,926.26,421.12,926.26,461Z"/><path class="cls-9" d="M1455.45,532.92a38.43,38.43,0,0,0-8.57,1,54.78,54.78,0,0,0-104.25,12,38.57,38.57,0,0,0-5-.36,38.17,38.17,0,0,0-37.91,33.84,38,38,0,0,0-46.22,17.89h201.6a4.13,4.13,0,0,0,4.13-4.12v-60A37,37,0,0,0,1455.45,532.92Z"/><path class="cls-9" d="M880.5,532.92a38.43,38.43,0,0,1,8.57,1,54.78,54.78,0,0,1,104.26,12,37.85,37.85,0,0,1,42.85,33.48,38,38,0,0,1,46.22,17.89H880.8a4.13,4.13,0,0,1-4.13-4.12v-60A37.34,37.34,0,0,1,880.5,532.92Z"/><path class="cls-9" d="M1399.05,371.22a45.57,45.57,0,1,1-28-58.08A45.58,45.58,0,0,1,1399.05,371.22Z"/><path class="cls-10" d="M1401.59,356a44.71,44.71,0,0,1-.38,6.1c6.41,4.28,9.82,8,9,10.5-2.07,5.9-27.63,2.32-57.1-8s-51.66-23.46-49.59-29.37c.86-2.47,5.86-3.27,13.54-2.61a46.59,46.59,0,0,1,3.49-5c-18.37-2.82-31.43-1.53-33.49,4.36-3.43,9.79,24.69,28.55,62.81,41.9s71.8,16.25,75.23,6.46C1427.12,374.44,1417.72,365.28,1401.59,356Z"/><path class="cls-13" d="M974.5,461.94c6.6-18.68-8.55-31.39-25.24-21.18,16.69-10.21,13.25-29.68-5.73-32.45,19,2.77,28.87-14.36,16.48-28.54,12.39,14.18,31,7.42,31-11.27,0,18.69,18.58,25.45,31,11.27-12.39,14.18-2.51,31.31,16.47,28.54-19,2.77-22.41,22.24-5.72,32.45-16.69-10.21-31.84,2.5-25.24,21.18C1000.86,443.26,981.1,443.26,974.5,461.94Z"/><path class="cls-1" d="M974.5,461.94c6.6-18.68-8.55-31.39-25.24-21.18,16.69-10.21,13.25-29.68-5.73-32.45,19,2.77,28.87-14.36,16.48-28.54,12.39,14.18,31,7.42,31-11.27,0,18.69,18.58,25.45,31,11.27-12.39,14.18-2.51,31.31,16.47,28.54-19,2.77-22.41,22.24-5.72,32.45-16.69-10.21-31.84,2.5-25.24,21.18C1000.86,443.26,981.1,443.26,974.5,461.94Z"/><path class="cls-9" d="M1012.7,416.38A21.73,21.73,0,1,1,991,394.66,21.71,21.71,0,0,1,1012.7,416.38Z"/><polygon class="cls-9" points="1316.77 454.38 1318.19 462.52 1325.27 466.77 1317.96 470.64 1316.11 478.69 1310.18 472.94 1301.94 473.66 1305.58 466.24 1302.35 458.63 1310.53 459.8 1316.77 454.38"/><line class="cls-3" x1="1056.37" y1="490.56" x2="1050.45" y2="496.48"/><line class="cls-3" x1="1056.37" y1="496.48" x2="1050.45" y2="490.56"/><line class="cls-3" x1="937.43" y1="325.52" x2="931.51" y2="331.44"/><line class="cls-3" x1="937.43" y1="331.44" x2="931.51" y2="325.52"/><line class="cls-3" x1="1443.53" y1="317.54" x2="1437.61" y2="323.46"/><line class="cls-3" x1="1443.53" y1="323.46" x2="1437.61" y2="317.54"/><line class="cls-3" x1="1256.51" y1="521.77" x2="1250.58" y2="527.69"/><line class="cls-3" x1="1256.51" y1="527.69" x2="1250.58" y2="521.77"/><polygon class="cls-11" points="1325.27 137.41 1345.01 157.15 1353.4 148.75 1325.27 120.63 1297.15 148.75 1305.54 157.15 1325.27 137.41"/><polygon class="cls-9" points="1325.27 171.22 1345.01 190.95 1353.4 182.56 1325.27 154.44 1297.15 182.56 1305.54 190.95 1325.27 171.22"/><polygon class="cls-11" points="1325.27 205.03 1345.01 224.76 1353.4 216.37 1325.27 188.25 1297.15 216.37 1305.54 224.76 1325.27 205.03"/><line class="cls-3" x1="1321.23" y1="37.69" x2="1329.32" y2="45.79"/><line class="cls-3" x1="1329.32" y1="37.69" x2="1321.23" y2="45.79"/><line class="cls-3" x1="1626.97" y1="548.41" x2="1635.07" y2="556.51"/><line class="cls-3" x1="1635.07" y1="548.41" x2="1626.97" y2="556.51"/><polygon class="cls-14" points="1456.92 179.59 1443.2 181.77 1451.95 192.57 1456.92 179.59"/><polygon class="cls-14" points="997.84 52.28 984.12 54.46 992.86 65.26 997.84 52.28"/><path class="cls-3" d="M863.31,124.58c4.56,0,4.56,3.41,9.11,3.41s4.56-3.41,9.13-3.41,4.56,3.41,9.11,3.41,4.57-3.41,9.13-3.41,4.56,3.41,9.13,3.41,4.57-3.41,9.14-3.41"/><path class="cls-14" d="M1552.17,307.16c4.56,0,4.56,3.41,9.11,3.41s4.56-3.41,9.12-3.41,4.56,3.41,9.12,3.41,4.56-3.41,9.12-3.41,4.57,3.41,9.14,3.41,4.57-3.41,9.14-3.41"/><path class="cls-3" d="M745.81,470c4.55,0,4.55,3.41,9.11,3.41S759.47,470,764,470s4.56,3.41,9.12,3.41,4.56-3.41,9.12-3.41,4.56,3.41,9.14,3.41S796,470,800.55,470"/><path class="cls-14" d="M750.37,282.7l-2.15-1.38c-5.1-3.29-5.1-5.69-5.11-6.59a28.33,28.33,0,0,0,10.5-3.94,4,4,0,0,1,3.95,3.94c0,.9,0,3.3-5.06,6.59Z"/><path class="cls-11" d="M1028.82,194.22a13.61,13.61,0,0,0-3.09.36,19.16,19.16,0,0,0-38-2.16,14.3,14.3,0,0,0-2-.15,14.77,14.77,0,1,0,0,29.54h43.08a13.8,13.8,0,0,0,0-27.59Z"/><path class="cls-9" d="M1010.9,200.48a13.59,13.59,0,0,0-3.08.36,19.16,19.16,0,0,0-38-2.17,16.34,16.34,0,0,0-2-.15,14.77,14.77,0,0,0,0,29.54h43.07a13.79,13.79,0,1,0,0-27.58Z"/></g></g></svg>