<svg xmlns="http://www.w3.org/2000/svg" viewBox="0 0 555.92 385"><defs><style>.cls-1{fill:#00ceff;}.cls-2{fill:#0028ff;}.cls-3{fill:#ff007b;}</style></defs><title>Asset 1</title><g id="Layer_2" data-name="Layer 2"><g id="Layer_1-2" data-name="Layer 1"><path class="cls-1" d="M332.27,305.77h-81.7v59.76h88.7V305.77Z"/><path class="cls-2" d="M220.23,361.53H369.61v8H220.23Z"/><path class="cls-1" d="M257.57,224.08h14.94v14H257.57Z"/><path class="cls-1" d="M287.45,224.08h14.94v14H287.45Z"/><path class="cls-1" d="M317.33,224.08h14.94v14H317.33Z"/><path class="cls-1" d="M116.12,37.35H331.8v73.76H116.12Z"/><path class="cls-2" d="M115.66,130H332.27v8H115.66Z"/><path class="cls-2" d="M115.66,159.86H332.27v8H115.66Z"/><path class="cls-2" d="M115.66,189.73H332.27v8H115.66Z"/><path class="cls-2" d="M354.68,40.35h119.5v8H354.68Z"/><path class="cls-2" d="M354.68,70.23h119.5v8H354.68Z"/><path class="cls-2" d="M354.68,100.1h119.5v8H354.68Z"/><path class="cls-2" d="M436.84,294.3h89.63v8H436.84Z"/><path class="cls-1" d="M407.89,328.65v36.41A15.34,15.34,0,0,0,422.83,380h119c7.73,0,14-6.7,14-14.94V328.65Z"/><path class="cls-1" d="M541.91,127.06h-119c-8.23,0-14.94,6.28-14.94,14v37.35h148V141.06A13.69,13.69,0,0,0,541.91,127.06Z"/><path class="cls-2" d="M555.88,185.8v-14h-148v14.13h134V321.18h-120v-120h-14V254H92.78V14.47a.48.48,0,0,1,.47-.47H496.59a.48.48,0,0,1,.47.47v97.1h14V14.47A14.48,14.48,0,0,0,496.59,0H93.25A14.48,14.48,0,0,0,78.78,14.47V298.3a14.49,14.49,0,0,0,14.47,14.48H392v-14H93.25a.47.47,0,0,1-.47-.47V268H407.89v67.22h148v-14h0V185.8Zm-147.95.08v-.08h12.28Z"/><path class="cls-2" d="M466.48,346.59h29.88v8H466.48Z"/><path class="cls-1" d="M437.3,201.67H526v73.76H437.3Z"/><path class="cls-3" d="M43,310.11H4.78a4.78,4.78,0,1,1,0-9.55H43a4.78,4.78,0,1,1,0,9.55Z"/><path class="cls-3" d="M23.89,329.22a4.78,4.78,0,0,1-4.78-4.78V286.22a4.78,4.78,0,0,1,9.56,0v38.22A4.78,4.78,0,0,1,23.89,329.22Z"/><path class="cls-3" d="M90.78,365.89H52.56a4.78,4.78,0,0,1,0-9.56H90.78a4.78,4.78,0,0,1,0,9.56Z"/><path class="cls-3" d="M71.67,385a4.78,4.78,0,0,1-4.78-4.78V342a4.78,4.78,0,1,1,9.55,0v38.22A4.78,4.78,0,0,1,71.67,385Z"/></g></g></svg>