<?xml version="1.0" encoding="utf-8"?>
<!-- Generator: Adobe Illustrator 23.0.3, SVG Export Plug-In . SVG Version: 6.00 Build 0)  -->
<svg version="1.1" id="Layer_1" xmlns="http://www.w3.org/2000/svg" xmlns:xlink="http://www.w3.org/1999/xlink" x="0px" y="0px"
	 viewBox="0 0 476 338.1" style="enable-background:new 0 0 476 338.1;" xml:space="preserve">
<style type="text/css">
	.st0{fill:#4FF7D7;}
</style>
<title>Asset 7</title>
<g>
	<g id="Layer_1-2">
		<path class="st0" d="M452.1,0H0v337.9c0.2,0.1,0.5,0.1,0.7,0.2c6.8-2.7,13.1-7,19.9-9.8l0.1-0.1c1.3-1.3,3-2,4.8-1.9
			c9.6-11,24.9-15.1,38.7-10.2l1.3,0.5c20.8,7.4,43.7-3.5,51.1-24.3c0.3-1,0.7-2,0.9-2.9l0.9-3.2c14-51.4,52.3-92.8,102.5-110.7
			l74.5-26.6c22.9-7.9,43.5-21.2,60.2-38.7c2.9-3.1,21.2-25,32.2-38.8c5.6-7,13.3-12,22-14.3l57.5-14.8C484.5,28,474.5,0,452.1,0z"
			/>
	</g>
</g>
</svg>
