<svg xmlns="http://www.w3.org/2000/svg" viewBox="0 0 476 338.09"><defs><style>.cls-1{fill:#a4fff6;}</style></defs><title>Asset 7</title><g id="Layer_2" data-name="Layer 2"><g id="Layer_1-2" data-name="Layer 1"><path class="cls-1" d="M452.11,0H0V337.9c.23.08.46.13.7.19,6.84-2.66,13.13-7,19.93-9.75l.06-.09a6.52,6.52,0,0,1,4.79-1.94,35.44,35.44,0,0,1,38.68-10.17l1.34.47a40,40,0,0,0,52-27.25l.88-3.21A162.83,162.83,0,0,1,220.85,175.48l74.52-26.55a151.14,151.14,0,0,0,60.16-38.74c2.93-3.08,21.21-25,32.19-38.8a41.28,41.28,0,0,1,22-14.29l57.55-14.85C484.54,28,474.48,0,452.11,0Z"/></g></g></svg>