<svg id="Layer_1" data-name="Layer 1" xmlns="http://www.w3.org/2000/svg" viewBox="0 0 877.32 354.94"><defs><style>.cls-1{fill:#def6ff;}</style></defs><title>Untitled-2</title><path class="cls-1" d="M-.5-.5c865-1,865,0,865,0l-1.18,12.27C914.5,126.5,808.55,153.77,739,185h0a160.47,160.47,0,0,1-90.61,12.12l-41.52-6.53a134,134,0,0,0-94.74,20.61l-45.88,49.06a55.67,55.67,0,0,1-52.82,16.31L290.19,249a138.12,138.12,0,0,0-116.45,26.94l-59.88,62.9a66.35,66.35,0,0,1-61.63,11.4,66.25,66.25,0,0,0-42.09.24L0,354Z" transform="translate(0.5 0.94)"/></svg>