<?xml version="1.0" encoding="utf-8"?>
<!-- Generator: Adobe Illustrator 23.0.3, SVG Export Plug-In . SVG Version: 6.00 Build 0)  -->
<svg version="1.1" id="Layer_1" xmlns="http://www.w3.org/2000/svg" xmlns:xlink="http://www.w3.org/1999/xlink" x="0px" y="0px"
	 viewBox="0 0 512 512" style="enable-background:new 0 0 512 512;" xml:space="preserve">
<style type="text/css">
	.st0{fill:#0028FF;}
	.st1{fill:#FF007B;}
	.st2{fill:#F9F871;}
	.st3{fill:#263238;}
	.st4{fill:#00CEFF;}
</style>
<g>
	<path class="st0" d="M348,496h-52c-2.2,0-4-1.8-4-4s1.8-4,4-4h52c8.8,0,16-7.2,16-16V352c0-8.8-7.2-16-16-16H164
		c-8.8,0-16,7.2-16,16v120c0,8.8,7.2,16,16,16h52c2.2,0,4,1.8,4,4s-1.8,4-4,4h-52c-13.2,0-24-10.8-24-24V352c0-13.2,10.8-24,24-24
		h184c13.2,0,24,10.8,24,24v120C372,485.2,361.2,496,348,496z"/>
	<path class="st0" d="M256,256c-41.9,0-78-27.8-88.8-68c-4.9-0.2-9.6-1.8-13.7-4.9c-1-0.8-1.6-1.9-1.6-3.2v-31.8
		c0-1.3,0.6-2.4,1.6-3.2c4-3,8.7-4.7,13.7-4.9C178,99.8,214.1,72,256,72s78,27.8,88.8,68c4.9,0.2,9.6,1.8,13.6,4.9
		c1,0.8,1.6,1.9,1.6,3.2v31.8c0,1.3-0.6,2.4-1.6,3.2c-4,3-8.7,4.7-13.6,4.9C334,228.2,297.9,256,256,256z M169.7,179.8
		c1.9,0,4.1,1.2,4.5,3C183,221.2,216.7,248,256,248s73-26.8,81.8-65.1c0.5-2,2.2-3.4,4.4-3.1c1.1,0.1,1.5,0.2,1.8,0.2
		c2.8,0,5.5-0.8,8-2.2v-27.6c-2.8-1.6-6-2.5-9.1-2.1c-2,0.3-4.6-1-5.1-3C329,106.8,295.3,80,256,80s-73,26.8-81.8,65.1
		c-0.5,2-2.4,3.3-4.4,3.1c-1.1-0.1-1.5-0.2-1.8-0.2c-2.8,0-5.5,0.8-8,2.2v27.6c2.8,1.7,6.1,2.5,9.1,2.1
		C169.3,179.9,169.5,179.8,169.7,179.8z"/>
	<path class="st0" d="M112,456c-2.2,0-4-1.8-4-4V347.6c0-25.6,15.2-48.7,38.8-58.8l75.6-32.4c2-0.9,4.4,0.1,5.2,2.1
		c0.9,2-0.1,4.4-2.1,5.2l-75.6,32.4c-20.6,8.8-33.9,29-33.9,51.5V452C116,454.2,114.2,456,112,456z"/>
	<path class="st0" d="M400,456c-2.2,0-4-1.8-4-4V347.6c0-22.4-13.3-42.6-33.9-51.5l-75.6-32.4c-2-0.9-3-3.2-2.1-5.2
		c0.9-2,3.2-3,5.3-2.1l75.6,32.4c23.6,10.1,38.8,33.2,38.8,58.8V452C404,454.2,402.2,456,400,456z"/>
	<path class="st0" d="M256,312c-1.3,0-2.6-0.7-3.3-1.8l-32-48c-0.4-0.7-0.7-1.4-0.7-2.2v-14.1c0-1.3,0.7-2.6,1.7-3.3
		c1.1-0.7,2.5-0.9,3.7-0.4c19.7,7.7,41.4,7.7,61.1,0c1.2-0.5,2.6-0.3,3.7,0.4c1.1,0.7,1.8,2,1.8,3.3V260c0,0.8-0.2,1.6-0.7,2.2
		l-32,48C258.6,311.3,257.3,312,256,312z M228,258.8l28,42l28-42v-7.2c-18.2,5.9-37.8,5.9-56,0V258.8z M288,260L288,260L288,260z"/>
	<path class="st0" d="M146,253.7H74c-2.2,0-4-1.8-4-4c0-2.2,1.8-4,4-4h72c2.2,0,4,1.8,4,4C150,251.9,148.2,253.7,146,253.7z"/>
	<path class="st0" d="M58,253.7H42c-2.2,0-4-1.8-4-4c0-2.2,1.8-4,4-4h16c2.2,0,4,1.8,4,4C62,251.9,60.2,253.7,58,253.7z"/>
	<path class="st0" d="M438,253.7h-72c-2.2,0-4-1.8-4-4c0-2.2,1.8-4,4-4h72c2.2,0,4,1.8,4,4C442,251.9,440.2,253.7,438,253.7z"/>
	<path class="st0" d="M470,253.7h-16c-2.2,0-4-1.8-4-4c0-2.2,1.8-4,4-4h16c2.2,0,4,1.8,4,4C474,251.9,472.2,253.7,470,253.7z"/>
	<path class="st0" d="M280,512c-2.2,0-4-1.8-4-4v-36h-40v36c0,2.2-1.8,4-4,4s-4-1.8-4-4v-40c0-2.2,1.8-4,4-4h48c2.2,0,4,1.8,4,4v40
		C284,510.2,282.2,512,280,512z"/>
	<path class="st1" d="M124,60H92c-2.2,0-4-1.8-4-4s1.8-4,4-4h32c2.2,0,4,1.8,4,4S126.2,60,124,60z"/>
	<path class="st1" d="M108,76c-2.2,0-4-1.8-4-4V40c0-2.2,1.8-4,4-4s4,1.8,4,4v32C112,74.2,110.2,76,108,76z"/>
	<path class="st1" d="M92,100H60c-2.2,0-4-1.8-4-4s1.8-4,4-4h32c2.2,0,4,1.8,4,4S94.2,100,92,100z"/>
	<path class="st1" d="M76,116c-2.2,0-4-1.8-4-4V80c0-2.2,1.8-4,4-4s4,1.8,4,4v32C80,114.2,78.2,116,76,116z"/>
</g>
<path class="st2" d="M176,156h-4v-52h24v32C196,147,187,156,176,156z"/>
<path class="st0" d="M176,160h-4c-2.2,0-4-1.8-4-4v-52c0-2.2,1.8-4,4-4h24c2.2,0,4,1.8,4,4v32C200,149.2,189.2,160,176,160z
	 M176,152L176,152L176,152z M176,108v44c8.8,0,16-7.2,16-16v-28H176z"/>
<path class="st2" d="M316,103.6V136c0,11,9,20,20,20h4V92.5C333.7,98.7,325.3,102.7,316,103.6z"/>
<path class="st0" d="M340,160h-4c-13.2,0-24-10.8-24-24v-32.4c0-2.1,1.6-3.8,3.6-4c8.2-0.8,15.9-4.4,21.6-10
	c1.2-1.1,2.9-1.5,4.4-0.8c1.5,0.6,2.5,2.1,2.5,3.7V156C344,158.2,342.2,160,340,160z M320,107.1V136c0,8.8,7.2,16,16,16v-51.2
	C331.2,103.9,325.7,106,320,107.1z"/>
<path class="st0" d="M256,208c-11.3,0-22.5-4.3-31.1-12.9c-1.6-1.6-1.6-4.1,0-5.7c1.6-1.6,4.1-1.6,5.7,0c14,14,36.9,14,50.9,0
	c1.6-1.6,4.1-1.6,5.7,0c1.6,1.6,1.6,4.1,0,5.7C278.5,203.7,267.3,208,256,208z"/>
<path class="st2" d="M312,104H172c0-33.1,26.9-60,60-60h41.6c17.4,0,34.5-3.8,50.3-11L352,20v44C352,86.1,334.1,104,312,104z"/>
<path class="st0" d="M312,108H172c-2.2,0-4-1.8-4-4c0-35.3,28.7-64,64-64h41.6c16.7,0,33.5-3.7,48.6-10.7l28.1-13
	c1.2-0.6,2.7-0.5,3.8,0.3c1.2,0.7,1.8,2,1.8,3.4v44C356,88.3,336.3,108,312,108z M176.1,100H312c19.8,0,36-16.2,36-36V26.2
	l-22.4,10.3C309.4,44,291.5,48,273.6,48H232C202.5,48,178.2,71,176.1,100z"/>
<path class="st3" d="M356,136c-2.2,0-4-1.8-4-4v-24.6c0-2.7-0.1-5.4-0.3-8.1c-0.2-2.2,1.5-4.1,3.7-4.3c2.2-0.1,4.1,1.5,4.3,3.7
	c0.2,2.9,0.4,5.8,0.4,8.7V132C360,134.2,358.2,136,356,136z"/>
<path class="st4" d="M356,132h12c11,0,20,9,20,20v24c0,11-9,20-20,20h-12V132z"/>
<path class="st0" d="M368,200h-12c-2.2,0-4-1.8-4-4v-64c0-2.2,1.8-4,4-4h12c13.2,0,24,10.8,24,24v24C392,189.2,381.2,200,368,200z
	 M360,192h8c8.8,0,16-7.2,16-16v-24c0-8.8-7.2-16-16-16h-8V192z"/>
<path class="st4" d="M156,196h-12c-11,0-20-9-20-20v-24c0-11,9-20,20-20h12V196z"/>
<path class="st0" d="M156,200h-12c-13.2,0-24-10.8-24-24v-24c0-13.2,10.8-24,24-24h12c2.2,0,4,1.8,4,4v64
	C160,198.2,158.2,200,156,200z M144,136c-8.8,0-16,7.2-16,16v24c0,8.8,7.2,16,16,16h8v-56H144z"/>
<path class="st0" d="M356,136c-2.2,0-4-1.8-4-4v-28c0-1.1-0.1-2.1-0.1-3.2l-0.1-1.8c-0.1-2.2,1.6-4.1,3.8-4.2
	c2.4-0.2,4.1,1.6,4.2,3.8l0.1,1.6c0.1,1.2,0.2,2.4,0.2,3.7v28C360,134.2,358.2,136,356,136z"/>
<path class="st0" d="M156,136c-2.2,0-4-1.8-4-4v-28C152,46.7,198.7,0,256,0c20.6,0,40.5,6,57.6,17.4c1.8,1.2,2.3,3.7,1.1,5.5
	c-1.2,1.8-3.7,2.3-5.5,1.1C293.4,13.6,275,8,256,8c-52.9,0-96,43.1-96,96v28C160,134.2,158.2,136,156,136z"/>
<path class="st0" d="M224,436c-0.8,0-1.7-0.3-2.4-0.8l-32-24c-1-0.8-1.6-1.9-1.6-3.2s0.6-2.4,1.6-3.2l32-24c1.8-1.3,4.3-1,5.6,0.8
	c1.3,1.8,1,4.3-0.8,5.6L198.7,408l27.7,20.8c1.8,1.3,2.1,3.8,0.8,5.6C226.4,435.4,225.2,436,224,436z"/>
<path class="st0" d="M288,436c-1.2,0-2.4-0.6-3.2-1.6c-1.3-1.8-1-4.3,0.8-5.6l27.7-20.8l-27.7-20.8c-1.8-1.3-2.1-3.8-0.8-5.6
	c1.3-1.8,3.8-2.1,5.6-0.8l32,24c1,0.8,1.6,1.9,1.6,3.2s-0.6,2.4-1.6,3.2l-32,24C289.7,435.7,288.8,436,288,436z"/>
<path class="st0" d="M240,436c-0.8,0-1.5-0.2-2.2-0.7c-1.8-1.2-2.3-3.7-1.1-5.5l32-48c1.2-1.8,3.7-2.3,5.5-1.1
	c1.8,1.2,2.3,3.7,1.1,5.5l-32,48C242.6,435.4,241.3,436,240,436z"/>
</svg>
